<svg width="30" height="25" viewBox="0 0 30 27" fill="none" xmlns="http://www.w3.org/2000/svg">
<path d="M15.5 3.44C16.1006 3.4 16 2.5 16 2H9C4.58172 2 1 5.58172 1 10V18C1 22.4183 4.58172 26 9 26H17C21.4183 26 25 22.4183 25 18V12.0004C25 12.0004 24.6946 12 24.5 12H24L23.5595 12.06V18.56C23.5595 21.8737 20.8732 24.56 17.5595 24.56H8.43946C5.12575 24.56 2.43945 21.8737 2.43945 18.56V9.44C2.43945 6.12629 5.12574 3.44 8.43945 3.44H15.3994H15.5Z" fill="black"/>
<path d="M22 4.5H29H22Z" fill="white"/>
<path d="M25.5 1V8V1Z" fill="white"/>
<path d="M22 4.5H29M25.5 1V8M16 2C16 2.5 16.1006 3.4 15.5 3.44H15.3994H8.43945C5.12574 3.44 2.43945 6.12629 2.43945 9.44V18.56C2.43945 21.8737 5.12575 24.56 8.43946 24.56H17.5595C20.8732 24.56 23.5595 21.8737 23.5595 18.56V12.06L24 12H24.5C24.6946 12 25 12.0004 25 12.0004V18C25 22.4183 21.4183 26 17 26H9C4.58172 26 1 22.4183 1 18V10C1 5.58172 4.58172 2 9 2H16Z" stroke="black" stroke-miterlimit="10" stroke-linecap="round" stroke-linejoin="round"/>
</svg>
