<svg width="30" height="27" viewBox="0 0 30 27" fill="none" xmlns="http://www.w3.org/2000/svg">
<path d="M15.5 3.44C16.1006 3.4 16 2.5 16 2H9C4.58172 2 1 5.58172 1 10V18C1 22.4183 4.58172 26 9 26H17C21.4183 26 25 22.4183 25 18V12.0004C25 12.0004 24.6946 12 24.5 12H24L23.5595 12.06V18.56C23.5595 21.8737 20.8732 24.56 17.5595 24.56H8.43946C5.12575 24.56 2.43945 21.8737 2.43945 18.56V9.44C2.43945 6.12629 5.12574 3.44 8.43945 3.44H15.3994H15.5Z" fill="white"/>
<path d="M22 4.5H29H22Z" fill="white"/>
<path d="M25.5 1V8V1Z" fill="white"/>
<path d="M16 2H16.5C16.5 1.72386 16.2761 1.5 16 1.5V2ZM15.5 3.44V3.94C15.5111 3.94 15.5222 3.93963 15.5332 3.93889L15.5 3.44ZM25 12.0004H25.5C25.5 11.7245 25.2765 11.5007 25.0006 11.5004L25 12.0004ZM23.5595 12.06L23.492 11.5646C23.2442 11.5984 23.0595 11.81 23.0595 12.06H23.5595ZM22 4C21.7239 4 21.5 4.22386 21.5 4.5C21.5 4.77614 21.7239 5 22 5V4ZM29 5C29.2761 5 29.5 4.77614 29.5 4.5C29.5 4.22386 29.2761 4 29 4V5ZM26 1C26 0.723858 25.7761 0.5 25.5 0.5C25.2239 0.5 25 0.723858 25 1H26ZM25 8C25 8.27614 25.2239 8.5 25.5 8.5C25.7761 8.5 26 8.27614 26 8H25ZM24 12V11.5C23.9774 11.5 23.9549 11.5015 23.9325 11.5046L24 12ZM15.5 2C15.5 2.30688 15.5228 2.57155 15.4823 2.80837C15.4636 2.91841 15.4389 2.95872 15.4348 2.96413C15.4348 2.96413 15.4353 2.96348 15.4363 2.96234C15.4374 2.9612 15.4389 2.95965 15.441 2.95784C15.4454 2.95406 15.4509 2.95012 15.4572 2.94673C15.4714 2.93911 15.4778 2.94037 15.4668 2.94111L15.5332 3.93889C15.8281 3.91926 16.0664 3.78371 16.2282 3.57275C16.3741 3.38253 16.4369 3.1591 16.4681 2.97663C16.5275 2.62845 16.5 2.19312 16.5 2H15.5ZM9 2.5H16V1.5H9V2.5ZM1.5 10C1.5 5.85786 4.85786 2.5 9 2.5V1.5C4.30558 1.5 0.5 5.30558 0.5 10H1.5ZM1.5 18V10H0.5V18H1.5ZM9 25.5C4.85786 25.5 1.5 22.1421 1.5 18H0.5C0.5 22.6944 4.30558 26.5 9 26.5V25.5ZM17 25.5H9V26.5H17V25.5ZM24.5 18C24.5 22.1421 21.1421 25.5 17 25.5V26.5C21.6944 26.5 25.5 22.6944 25.5 18H24.5ZM24.5 12.0004V18H25.5V12.0004H24.5ZM24.5 12.5C24.5971 12.5 24.7219 12.5001 24.8225 12.5002C24.8728 12.5002 24.917 12.5003 24.9487 12.5003C24.9645 12.5003 24.9772 12.5003 24.9859 12.5004C24.9903 12.5004 24.9936 12.5004 24.9959 12.5004C24.9971 12.5004 24.9979 12.5004 24.9985 12.5004C24.9988 12.5004 24.999 12.5004 24.9992 12.5004C24.9992 12.5004 24.9993 12.5004 24.9993 12.5004C24.9994 12.5004 24.9994 12.5004 24.9994 12.5004C24.9994 12.5004 24.9994 12.5004 24.9994 12.5004C24.9994 12.5004 24.9994 12.5004 25 12.0004C25.0006 11.5004 25.0006 11.5004 25.0006 11.5004C25.0006 11.5004 25.0006 11.5004 25.0006 11.5004C25.0006 11.5004 25.0006 11.5004 25.0005 11.5004C25.0005 11.5004 25.0005 11.5004 25.0004 11.5004C25.0002 11.5004 25 11.5004 24.9997 11.5004C24.9991 11.5004 24.9983 11.5004 24.9971 11.5004C24.9948 11.5004 24.9914 11.5004 24.9871 11.5004C24.9783 11.5003 24.9656 11.5003 24.9498 11.5003C24.9181 11.5003 24.8738 11.5002 24.8234 11.5002C24.7227 11.5001 24.5975 11.5 24.5 11.5V12.5ZM23.0595 12.06V18.56H24.0595V12.06H23.0595ZM23.0595 18.56C23.0595 21.5976 20.597 24.06 17.5595 24.06V25.06C21.1493 25.06 24.0595 22.1498 24.0595 18.56H23.0595ZM17.5595 24.06H8.43946V25.06H17.5595V24.06ZM8.43946 24.06C5.40189 24.06 2.93945 21.5976 2.93945 18.56H1.93945C1.93945 22.1499 4.8496 25.06 8.43946 25.06V24.06ZM2.93945 18.56V9.44H1.93945V18.56H2.93945ZM2.93945 9.44C2.93945 6.40244 5.40189 3.94 8.43945 3.94V2.94C4.8496 2.94 1.93945 5.85015 1.93945 9.44H2.93945ZM8.43945 3.94H15.3994V2.94H8.43945V3.94ZM15.5 2.94H15.3994V3.94H15.5V2.94ZM22 5H29V4H22V5ZM25 1V8H26V1H25ZM23.627 12.5554L24.0675 12.4954L23.9325 11.5046L23.492 11.5646L23.627 12.5554ZM24 12.5H24.5V11.5H24V12.5Z" fill="white"/>
</svg>
