<svg width="1024" height="1024" viewBox="0 0 164 200" fill="none" xmlns="http://www.w3.org/2000/svg">
<path d="M141.95 90.2494C140.33 87.1694 136.09 86.6794 133.7 89.2194L133.63 89.2894C132.12 90.7994 131.75 93.1194 132.75 94.9994C134.22 97.7494 135.05 100.899 135.05 104.219C135.05 115.089 126.21 123.939 115.32 123.939C112.71 123.939 110.22 123.429 107.95 122.499C107.79 122.439 107.63 122.369 107.47 122.299C102.92 120.329 97.6905 122.019 94.9605 126.159C94.9405 126.189 94.9205 126.219 94.9005 126.259C90.4405 132.949 82.8405 137.359 74.2205 137.359C67.0605 137.359 60.5905 134.319 56.0605 129.449C55.5205 128.869 55.0105 128.269 54.5305 127.639C52.0305 124.389 47.6705 123.289 43.9205 124.969C43.1905 125.299 42.4405 125.599 41.6705 125.849C38.6305 126.879 35.3105 127.279 31.8905 126.959C20.4205 125.899 11.2205 116.469 10.4005 104.969C9.69049 94.9294 15.2505 86.0694 23.5405 81.9294C25.0305 81.1794 26.6005 80.5894 28.2405 80.1694C31.4705 79.3294 33.8705 76.7294 34.7405 73.5094C35.1405 71.9994 35.6805 70.5394 36.3505 69.1494C40.5305 60.3094 49.5305 54.1894 59.9305 54.1894C65.0805 54.1894 69.8905 55.6894 73.9405 58.2794C75.9805 59.5794 78.6705 59.1994 80.3505 57.4594C82.6305 55.0894 82.1405 51.2494 79.3705 49.4894C73.7505 45.9194 67.0805 43.8594 59.9305 43.8594C43.2805 43.8594 29.2105 55.0894 24.8805 70.3594C9.74047 74.6494 -1.16953 89.1394 0.100473 105.899C1.37047 122.669 14.9705 136.179 31.7505 137.339C37.2005 137.709 42.4005 136.809 47.0805 134.879C53.5305 142.709 63.3005 147.719 74.2205 147.719C86.4605 147.719 97.2605 141.429 103.56 131.909C107.75 133.689 112.42 134.549 117.32 134.229C132.5 133.249 144.71 120.759 145.37 105.559C145.61 100.019 144.35 94.7894 141.95 90.2494Z" fill="url(#paint0_linear_1360_15836)"/>
<path d="M39.2904 143.619C30.6604 143.619 23.6404 150.649 23.6404 159.279C23.6404 167.909 30.6604 174.939 39.2904 174.939C47.9304 174.939 54.9504 167.909 54.9504 159.279C54.9504 150.649 47.9304 143.619 39.2904 143.619ZM39.2904 164.589C36.3604 164.589 33.9804 162.209 33.9804 159.279C33.9804 156.349 36.3604 153.959 39.2904 153.959C42.2204 153.959 44.6104 156.349 44.6104 159.279C44.6104 162.209 42.2204 164.589 39.2904 164.589Z" fill="url(#paint1_linear_1360_15836)"/>
<path d="M128.51 18.22C128.963 18.22 129.33 17.853 129.33 17.4001C129.33 16.9472 128.963 16.5801 128.51 16.5801C128.058 16.5801 127.69 16.9472 127.69 17.4001C127.69 17.853 128.058 18.22 128.51 18.22Z" fill="#D588F2"/>
<path d="M151.531 63.3889C152.315 63.3889 152.951 62.7531 152.951 61.9688C152.951 61.1846 152.315 60.5488 151.531 60.5488C150.746 60.5488 150.11 61.1846 150.11 61.9688C150.11 62.7531 150.746 63.3889 151.531 63.3889Z" fill="#D588F2"/>
<path d="M98.1705 24.3395C99.6616 24.3395 100.87 23.1306 100.87 21.6395C100.87 20.1483 99.6616 18.9395 98.1705 18.9395C96.6793 18.9395 95.4705 20.1483 95.4705 21.6395C95.4705 23.1306 96.6793 24.3395 98.1705 24.3395Z" fill="#9CD4F7"/>
<path d="M129.341 40.9006C130.125 40.9006 130.76 40.2648 130.76 39.4805C130.76 38.6963 130.125 38.0605 129.341 38.0605C128.556 38.0605 127.921 38.6963 127.921 39.4805C127.921 40.2648 128.556 40.9006 129.341 40.9006Z" fill="#9CD4F7"/>
<path d="M116.421 80.6799C117.205 80.6799 117.841 80.0441 117.841 79.2598C117.841 78.4756 117.205 77.8398 116.421 77.8398C115.636 77.8398 115 78.4756 115 79.2598C115 80.0441 115.636 80.6799 116.421 80.6799Z" fill="#D588F2"/>
<path d="M96.5204 9.00061C96.7579 9.00061 96.9504 8.8081 96.9504 8.57062C96.9504 8.33314 96.7579 8.14062 96.5204 8.14062C96.283 8.14062 96.0905 8.33314 96.0905 8.57062C96.0905 8.8081 96.283 9.00061 96.5204 9.00061Z" fill="#9CD4F7"/>
<path d="M146.171 3.02051C146.596 3.02051 146.94 2.67575 146.94 2.25049C146.94 1.82523 146.596 1.48047 146.171 1.48047C145.745 1.48047 145.401 1.82523 145.401 2.25049C145.401 2.67575 145.745 3.02051 146.171 3.02051Z" fill="#D588F2"/>
<path d="M161.281 34.8606C162.308 34.8606 163.141 34.0279 163.141 33.0006C163.141 31.9734 162.308 31.1406 161.281 31.1406C160.253 31.1406 159.421 31.9734 159.421 33.0006C159.421 34.0279 160.253 34.8606 161.281 34.8606Z" fill="#D588F2"/>
<path d="M120.701 7.77972C122.661 7.77972 124.25 6.19029 124.25 4.22968C124.25 2.26906 122.661 0.679688 120.701 0.679688C118.74 0.679688 117.151 2.26906 117.151 4.22968C117.151 6.19029 118.74 7.77972 120.701 7.77972Z" fill="#9CD4F7"/>
<path d="M100.87 73.5998C107.294 73.5998 112.5 68.3929 112.5 61.9698C112.5 55.5467 107.294 50.3398 100.87 50.3398C94.4474 50.3398 89.2405 55.5467 89.2405 61.9698C89.2405 68.3929 94.4474 73.5998 100.87 73.5998Z" fill="#9CD4F7"/>
<path d="M147.581 54.0394C150.392 54.0394 152.671 51.7605 152.671 48.9494C152.671 46.1383 150.392 43.8594 147.581 43.8594C144.769 43.8594 142.49 46.1383 142.49 48.9494C142.49 51.7605 144.769 54.0394 147.581 54.0394Z" fill="#9CD4F7"/>
<path d="M113.19 35.4788C115.587 35.4788 117.53 33.5358 117.53 31.1389C117.53 28.7419 115.587 26.7988 113.19 26.7988C110.794 26.7988 108.85 28.7419 108.85 31.1389C108.85 33.5358 110.794 35.4788 113.19 35.4788Z" fill="#D588F2"/>
<path d="M150.13 24.1695C152.036 24.1695 153.58 22.6249 153.58 20.7195C153.58 18.8141 152.036 17.2695 150.13 17.2695C148.225 17.2695 146.68 18.8141 146.68 20.7195C146.68 22.6249 148.225 24.1695 150.13 24.1695Z" fill="#9CD4F7"/>
<path d="M85.0206 41.569C87.6053 41.569 89.7006 39.4737 89.7006 36.889C89.7006 34.3043 87.6053 32.209 85.0206 32.209C82.4359 32.209 80.3406 34.3043 80.3406 36.889C80.3406 39.4737 82.4359 41.569 85.0206 41.569Z" fill="#D588F2"/>
<path d="M132.62 77.4705C137.243 77.4705 140.99 73.7231 140.99 69.1005C140.99 64.4778 137.243 60.7305 132.62 60.7305C127.998 60.7305 124.25 64.4778 124.25 69.1005C124.25 73.7231 127.998 77.4705 132.62 77.4705Z" fill="#9CD4F7"/>
<path d="M21.1504 185.67C23.2104 185.67 24.8904 187.35 24.8904 189.41C24.8904 191.47 23.2104 193.15 21.1504 193.15C19.0904 193.15 17.4104 191.47 17.4104 189.41C17.4204 187.34 19.0904 185.67 21.1504 185.67ZM21.1504 179.67C15.7704 179.67 11.4104 184.03 11.4104 189.41C11.4104 194.79 15.7704 199.15 21.1504 199.15C26.5304 199.15 30.8904 194.79 30.8904 189.41C30.8904 184.03 26.5304 179.67 21.1504 179.67Z" fill="url(#paint2_linear_1360_15836)"/>
<defs>
<linearGradient id="paint0_linear_1360_15836" x1="-55.3139" y1="87.8344" x2="119.315" y2="99.1713" gradientUnits="userSpaceOnUse">
<stop offset="0.00558659" stop-color="#D588F2"/>
<stop offset="0.2062" stop-color="#D18EF2"/>
<stop offset="0.4677" stop-color="#C49EF3"/>
<stop offset="0.7615" stop-color="#B0B9F5"/>
<stop offset="1" stop-color="#9CD4F7"/>
</linearGradient>
<linearGradient id="paint1_linear_1360_15836" x1="-59.5208" y1="152.866" x2="115.084" y2="164.202" gradientUnits="userSpaceOnUse">
<stop stop-color="#D588F2"/>
<stop offset="0.2018" stop-color="#D18EF2"/>
<stop offset="0.4647" stop-color="#C49EF3"/>
<stop offset="0.7602" stop-color="#B0B9F5"/>
<stop offset="1" stop-color="#9CD4F7"/>
</linearGradient>
<linearGradient id="paint2_linear_1360_15836" x1="-63.3238" y1="183.243" x2="79.6963" y2="193.671" gradientUnits="userSpaceOnUse">
<stop offset="0.00558659" stop-color="#D588F2"/>
<stop offset="0.2062" stop-color="#D18EF2"/>
<stop offset="0.4677" stop-color="#C49EF3"/>
<stop offset="0.7615" stop-color="#B0B9F5"/>
<stop offset="1" stop-color="#9CD4F7"/>
</linearGradient>
</defs>
</svg>
