<svg width="22" height="22" viewBox="0 0 20 19" fill="none" xmlns="http://www.w3.org/2000/svg">
<path d="M10.166 0C10.962 0 13.661 0.223 14.935 3.073C15.361 4.032 15.259 5.662 15.175 6.971L15.173 7.018C15.162 7.164 15.155 7.296 15.149 7.428C15.2479 7.48064 15.3592 7.50553 15.471 7.5C15.712 7.487 16.001 7.404 16.302 7.259C16.4179 7.20164 16.5458 7.17283 16.675 7.175C16.821 7.175 16.964 7.198 17.084 7.247C17.445 7.367 17.674 7.632 17.674 7.921C17.687 8.282 17.361 8.596 16.699 8.86C16.628 8.883 16.53 8.921 16.423 8.956C16.06 9.065 15.506 9.245 15.35 9.607C15.278 9.788 15.301 10.028 15.448 10.304L15.46 10.317C15.508 10.426 16.688 13.112 19.314 13.546C19.4104 13.5615 19.4977 13.6116 19.5597 13.6869C19.6218 13.7622 19.6542 13.8575 19.651 13.955C19.651 14.015 19.638 14.074 19.615 14.136C19.422 14.593 18.592 14.931 17.085 15.157C17.038 15.23 16.989 15.459 16.953 15.616C16.931 15.76 16.893 15.905 16.846 16.06C16.785 16.278 16.629 16.385 16.4 16.385H16.376C16.2302 16.3783 16.0853 16.3585 15.943 16.326C15.6066 16.2534 15.2633 16.2172 14.919 16.218C14.679 16.218 14.439 16.23 14.187 16.278C13.704 16.362 13.283 16.651 12.801 16.988C12.114 17.469 11.332 18.024 10.152 18.024C10.104 18.024 10.056 18.012 10.006 18.012H9.88704C8.70605 18.012 7.93604 17.469 7.25004 16.976C6.76904 16.638 6.36004 16.35 5.87704 16.265C5.63036 16.2282 5.38145 16.2081 5.13204 16.205C4.69704 16.205 4.36104 16.277 4.10904 16.325C3.93904 16.36 3.79504 16.384 3.67404 16.384C3.56859 16.392 3.46369 16.3626 3.37774 16.301C3.29179 16.2394 3.2303 16.1494 3.20404 16.047C3.15604 15.893 3.13304 15.734 3.09704 15.591C3.05904 15.445 3.01204 15.195 2.96404 15.133C1.42104 14.954 0.591044 14.616 0.399044 14.147C0.372525 14.0902 0.357569 14.0287 0.355045 13.966C0.3512 13.8683 0.383424 13.7727 0.445573 13.6973C0.507723 13.6218 0.595453 13.5719 0.692044 13.557C3.31704 13.123 4.49704 10.438 4.54604 10.325L4.55904 10.302C4.70404 10.025 4.73904 9.782 4.65504 9.603C4.49904 9.254 3.94404 9.074 3.58504 8.953C3.48952 8.92887 3.39619 8.89676 3.30604 8.857C2.41604 8.507 2.29504 8.109 2.34404 7.833C2.41604 7.449 2.88504 7.196 3.28304 7.196C3.40004 7.196 3.50004 7.219 3.59104 7.256C3.92804 7.411 4.22604 7.497 4.47904 7.497C4.60867 7.50176 4.73728 7.47245 4.85204 7.412L4.81104 6.954C4.73104 5.647 4.62904 4.019 5.05804 3.065C6.29404 0.229 8.98704 0.0109999 9.78204 0.0109999L10.117 0H10.166Z" fill="#FEE101"/>
</svg>
