<svg width="33" height="33" viewBox="0 0 40 49" fill="none" xmlns="http://www.w3.org/2000/svg">
<path d="M35.5493 21.5331C35.1436 20.7758 34.0818 20.6553 33.4832 21.2798L33.4657 21.2971C33.0875 21.6684 32.9949 22.2388 33.2453 22.7011C33.6134 23.3773 33.8213 24.1518 33.8213 24.9682C33.8213 27.641 31.6075 29.8172 28.8802 29.8172C28.2266 29.8172 27.603 29.6918 27.0345 29.4631C26.9945 29.4483 26.9544 29.4311 26.9143 29.4139C25.7748 28.9295 24.4651 29.3451 23.7814 30.3631C23.7764 30.3704 23.7714 30.3778 23.7664 30.3876C22.6494 32.0327 20.7461 33.117 18.5874 33.117C16.7943 33.117 15.174 32.3695 14.0395 31.172C13.9043 31.0294 13.7765 30.8819 13.6563 30.727C13.0302 29.9278 11.9383 29.6573 10.9992 30.0704C10.8164 30.1516 10.6286 30.2253 10.4357 30.2868C9.67441 30.5401 8.84297 30.6384 7.98648 30.5598C5.11399 30.2991 2.81 27.9804 2.60464 25.1526C2.42683 22.6839 3.81925 20.5053 5.89535 19.4873C6.2685 19.3029 6.66168 19.1578 7.07239 19.0545C7.8813 18.848 8.48234 18.2087 8.70022 17.4169C8.80039 17.0456 8.93562 16.6866 9.10341 16.3448C10.1502 14.1711 12.4041 12.6663 15.0087 12.6663C16.2984 12.6663 17.503 13.0351 18.5173 13.672C19.0281 13.9916 19.7018 13.8982 20.1225 13.4703C20.6935 12.8876 20.5708 11.9434 19.8771 11.5106C18.4697 10.6328 16.7993 10.1262 15.0087 10.1262C10.8389 10.1262 7.31531 12.8876 6.23093 16.6423C2.43935 17.6972 -0.29289 21.2602 0.0251619 25.3813C0.343214 29.5049 3.74912 32.8269 7.95142 33.1121C9.31628 33.2031 10.6185 32.9818 11.7906 32.5072C13.4059 34.4326 15.8526 35.6645 18.5874 35.6645C21.6527 35.6645 24.3574 34.1178 25.9351 31.7769C26.9844 32.2146 28.154 32.4261 29.3811 32.3474C33.1827 32.1064 36.2405 29.0353 36.4058 25.2977C36.4659 23.9355 36.1504 22.6495 35.5493 21.5331Z" fill="url(#paint0_linear_4518_11321)"/>
<path d="M9.83971 34.6558C7.67846 34.6558 5.92041 36.3844 5.92041 38.5064C5.92041 40.6285 7.67846 42.357 9.83971 42.357C12.0035 42.357 13.7615 40.6285 13.7615 38.5064C13.7615 36.3844 12.0035 34.6558 9.83971 34.6558ZM9.83971 39.8121C9.10594 39.8121 8.5099 39.2269 8.5099 38.5064C8.5099 37.786 9.10594 37.1983 9.83971 37.1983C10.5735 37.1983 11.172 37.786 11.172 38.5064C11.172 39.2269 10.5735 39.8121 9.83971 39.8121Z" fill="url(#paint1_linear_4518_11321)"/>
<path d="M31.7855 19.3858C32.1894 19.3858 32.5167 19.0643 32.5167 18.6677C32.5167 18.2712 32.1894 17.9497 31.7855 17.9497C31.3816 17.9497 31.0542 18.2712 31.0542 18.6677C31.0542 19.0643 31.3816 19.3858 31.7855 19.3858Z" fill="#D588F2"/>
<path d="M24.5863 4.58838C24.9598 4.58838 25.2625 4.29112 25.2625 3.92444C25.2625 3.55776 24.9598 3.2605 24.5863 3.2605C24.2129 3.2605 23.9102 3.55776 23.9102 3.92444C23.9102 4.29112 24.2129 4.58838 24.5863 4.58838Z" fill="#9CD4F7"/>
<path d="M39.2836 5.83259C39.6792 5.83259 39.9999 5.51772 39.9999 5.12931C39.9999 4.74089 39.6792 4.42603 39.2836 4.42603C38.8881 4.42603 38.5674 4.74089 38.5674 5.12931C38.5674 5.51772 38.8881 5.83259 39.2836 5.83259Z" fill="#D588F2"/>
<path d="M25.5117 16.7009C27.1202 16.7009 28.4242 15.4205 28.4242 13.8411C28.4242 12.2618 27.1202 10.9814 25.5117 10.9814C23.9031 10.9814 22.5991 12.2618 22.5991 13.8411C22.5991 15.4205 23.9031 16.7009 25.5117 16.7009Z" fill="#9CD4F7"/>
<path d="M34.8323 9.63452C35.5363 9.63452 36.1071 9.07417 36.1071 8.38294C36.1071 7.69171 35.5363 7.13135 34.8323 7.13135C34.1283 7.13135 33.5576 7.69171 33.5576 8.38294C33.5576 9.07417 34.1283 9.63452 34.8323 9.63452Z" fill="#9CD4F7"/>
<path d="M29.3476 7.81915C29.9479 7.81915 30.4345 7.34137 30.4345 6.75199C30.4345 6.16261 29.9479 5.68481 29.3476 5.68481C28.7474 5.68481 28.2607 6.16261 28.2607 6.75199C28.2607 7.34137 28.7474 7.81915 29.3476 7.81915Z" fill="#D588F2"/>
<path d="M32.1682 1.69672C32.6454 1.69672 33.0322 1.31689 33.0322 0.848355C33.0322 0.379815 32.6454 0 32.1682 0C31.691 0 31.3042 0.379815 31.3042 0.848355C31.3042 1.31689 31.691 1.69672 32.1682 1.69672Z" fill="#9CD4F7"/>
<path d="M21.2912 9.56277C21.9385 9.56277 22.4632 9.04755 22.4632 8.412C22.4632 7.77645 21.9385 7.26123 21.2912 7.26123C20.6439 7.26123 20.1191 7.77645 20.1191 8.412C20.1191 9.04755 20.6439 9.56277 21.2912 9.56277Z" fill="#D588F2"/>
<path d="M35.4663 16.4229C36.6239 16.4229 37.5624 15.5014 37.5624 14.3647C37.5624 13.2281 36.6239 12.3066 35.4663 12.3066C34.3086 12.3066 33.3701 13.2281 33.3701 14.3647C33.3701 15.5014 34.3086 16.4229 35.4663 16.4229Z" fill="#D588F2"/>
<path d="M5.29764 44.9954C5.81353 44.9954 6.23426 45.4085 6.23426 45.915C6.23426 46.4215 5.81353 46.8346 5.29764 46.8346C4.78174 46.8346 4.36101 46.4215 4.36101 45.915C4.36351 45.406 4.78174 44.9954 5.29764 44.9954ZM5.29764 43.52C3.9503 43.52 2.8584 44.5921 2.8584 45.915C2.8584 47.2379 3.9503 48.31 5.29764 48.31C6.64497 48.31 7.73687 47.2379 7.73687 45.915C7.73687 44.5921 6.64497 43.52 5.29764 43.52Z" fill="url(#paint2_linear_4518_11321)"/>
<defs>
<linearGradient id="paint0_linear_4518_11321" x1="-13.8525" y1="20.9393" x2="29.8738" y2="23.8304" gradientUnits="userSpaceOnUse">
<stop offset="0.00558659" stop-color="#D588F2"/>
<stop offset="0.2062" stop-color="#D18EF2"/>
<stop offset="0.4677" stop-color="#C49EF3"/>
<stop offset="0.7615" stop-color="#B0B9F5"/>
<stop offset="1" stop-color="#9CD4F7"/>
</linearGradient>
<linearGradient id="paint1_linear_4518_11321" x1="-14.906" y1="36.9295" x2="28.8142" y2="39.8203" gradientUnits="userSpaceOnUse">
<stop stop-color="#D588F2"/>
<stop offset="0.2018" stop-color="#D18EF2"/>
<stop offset="0.4647" stop-color="#C49EF3"/>
<stop offset="0.7602" stop-color="#B0B9F5"/>
<stop offset="1" stop-color="#9CD4F7"/>
</linearGradient>
<linearGradient id="paint2_linear_4518_11321" x1="-15.8576" y1="44.3987" x2="19.9525" y2="47.0579" gradientUnits="userSpaceOnUse">
<stop offset="0.00558659" stop-color="#D588F2"/>
<stop offset="0.2062" stop-color="#D18EF2"/>
<stop offset="0.4677" stop-color="#C49EF3"/>
<stop offset="0.7615" stop-color="#B0B9F5"/>
<stop offset="1" stop-color="#9CD4F7"/>
</linearGradient>
</defs>
</svg>
