<svg width="25" height="25" viewBox="0 0 33 33" color="black" xmlns="http://www.w3.org/2000/svg">
<path d="M4.125 13.5494C4.125 12.1414 5.2664 11 6.67439 11V11C7.64003 11 8.52279 10.4544 8.95463 9.59073L10.0833 7.33333C10.4358 6.62844 10.612 6.27599 10.8834 6.02678C11.0698 5.85568 11.2869 5.72149 11.5233 5.63132C11.8676 5.5 12.2616 5.5 13.0497 5.5H19.9503C20.7384 5.5 21.1324 5.5 21.4767 5.63132C21.7131 5.72149 21.9302 5.85568 22.1166 6.02678C22.388 6.27599 22.5642 6.62844 22.9167 7.33333L24.0454 9.59073C24.4772 10.4544 25.36 11 26.3256 11V11C27.7336 11 28.875 12.1414 28.875 13.5494V21.5C28.875 24.3284 28.875 25.7426 27.9963 26.6213C27.1176 27.5 25.7034 27.5 22.875 27.5H10.125C7.29657 27.5 5.88236 27.5 5.00368 26.6213C4.125 25.7426 4.125 24.3284 4.125 21.5V13.5494Z" stroke="currentColor" stroke-width="2"/>
<circle cx="16.5" cy="17.875" r="4.5" stroke="currentColor" stroke-width="2"/>
</svg>
