<svg width="18" height="16" viewBox="0 0 18 16" fill="none" xmlns="http://www.w3.org/2000/svg">
<g clip-path="url(#clip0_4347_2692)">
<path fill-rule="evenodd" clip-rule="evenodd" d="M16.3636 0H1.63636C0.818182 0 0 0.888889 0 1.77778V14.2222C0 15.2 0.736364 16 1.63636 16H16.3636C17.1818 16 18 15.1111 18 14.2222V1.77778C18 0.888889 17.1818 0 16.3636 0ZM16.3636 14.1511C16.3473 14.1778 16.3145 14.2044 16.2982 14.2222H1.63636V1.84889L1.70182 1.77778H16.29C16.3145 1.79556 16.3391 1.83111 16.3555 1.84889V14.1511H16.3636ZM8.18182 11.12L6.13636 8.44444L3.27273 12.4444H14.7273L11.0455 7.11111L8.18182 11.12Z" fill="#282B33"/>
</g>
<defs>
<clipPath id="clip0_4347_2692">
<rect width="18" height="16" fill="white"/>
</clipPath>
</defs>
</svg>
