<svg width="26" height="37" viewBox="0 0 26 37" fill="none" xmlns="http://www.w3.org/2000/svg">
<path d="M13 23C13.9851 23 14.9298 22.6313 15.6264 21.9749C16.323 21.3185 16.7143 20.4283 16.7143 19.5C16.7143 18.5717 16.323 17.6815 15.6264 17.0251C14.9298 16.3687 13.9851 16 13 16C12.0149 16 11.0702 16.3687 10.3736 17.0251C9.67704 17.6815 9.28571 18.5717 9.28571 19.5C9.28571 20.4283 9.67704 21.3185 10.3736 21.9749C11.0702 22.6313 12.0149 23 13 23ZM13 21.25C12.5075 21.25 12.0351 21.0656 11.6868 20.7374C11.3385 20.4092 11.1429 19.9641 11.1429 19.5C11.1429 19.0359 11.3385 18.5908 11.6868 18.2626C12.0351 17.9344 12.5075 17.75 13 17.75C13.4925 17.75 13.9649 17.9344 14.3132 18.2626C14.6615 18.5908 14.8571 19.0359 14.8571 19.5C14.8571 19.9641 14.6615 20.4092 14.3132 20.7374C13.9649 21.0656 13.4925 21.25 13 21.25ZM4.64286 23C5.38167 23 6.09023 22.7234 6.61265 22.2312C7.13508 21.7389 7.42857 21.0712 7.42857 20.375C7.42857 19.6788 7.13508 19.0111 6.61265 18.5188C6.09023 18.0266 5.38167 17.75 4.64286 17.75C3.90404 17.75 3.19548 18.0266 2.67306 18.5188C2.15064 19.0111 1.85714 19.6788 1.85714 20.375C1.85714 21.0712 2.15064 21.7389 2.67306 22.2312C3.19548 22.7234 3.90404 23 4.64286 23ZM4.64286 21.25C4.39658 21.25 4.1604 21.1578 3.98626 20.9937C3.81212 20.8296 3.71429 20.6071 3.71429 20.375C3.71429 20.1429 3.81212 19.9204 3.98626 19.7563C4.1604 19.5922 4.39658 19.5 4.64286 19.5C4.88913 19.5 5.12531 19.5922 5.29946 19.7563C5.4736 19.9204 5.57143 20.1429 5.57143 20.375C5.57143 20.6071 5.4736 20.8296 5.29946 20.9937C5.12531 21.1578 4.88913 21.25 4.64286 21.25ZM24.1429 20.375C24.1429 20.7197 24.0708 21.0611 23.9308 21.3795C23.7908 21.698 23.5856 21.9874 23.3269 22.2312C23.0683 22.4749 22.7612 22.6683 22.4232 22.8002C22.0852 22.9321 21.723 23 21.3571 23C20.9913 23 20.6291 22.9321 20.2911 22.8002C19.9531 22.6683 19.646 22.4749 19.3873 22.2312C19.1287 21.9874 18.9235 21.698 18.7835 21.3795C18.6435 21.0611 18.5714 20.7197 18.5714 20.375C18.5714 19.6788 18.8649 19.0111 19.3873 18.5188C19.9098 18.0266 20.6183 17.75 21.3571 17.75C22.096 17.75 22.8045 18.0266 23.3269 18.5188C23.8494 19.0111 24.1429 19.6788 24.1429 20.375ZM22.2857 20.375C22.2857 20.1429 22.1879 19.9204 22.0137 19.7563C21.8396 19.5922 21.6034 19.5 21.3571 19.5C21.1109 19.5 20.8747 19.5922 20.7005 19.7563C20.5264 19.9204 20.4286 20.1429 20.4286 20.375C20.4286 20.6071 20.5264 20.8296 20.7005 20.9937C20.8747 21.1578 21.1109 21.25 21.3571 21.25C21.6034 21.25 21.8396 21.1578 22.0137 20.9937C22.1879 20.8296 22.2857 20.6071 22.2857 20.375ZM8.33114 24.9705C8.59114 24.8305 8.89293 24.75 9.21421 24.75H16.7858C17.1415 24.7494 17.4892 24.8494 17.784 25.037C18.2594 25.3397 18.5714 25.8516 18.5714 26.4326V31.75C18.5714 33.1424 17.9844 34.4777 16.9396 35.4623C15.8947 36.4469 14.4776 37 13 37C11.5224 37 10.1053 36.4469 9.0604 35.4623C8.01556 34.4777 7.42857 33.1424 7.42857 31.75V26.4326C7.42857 25.8061 7.79164 25.2601 8.33114 24.9705ZM9.28571 31.75C9.28571 32.6783 9.67704 33.5685 10.3736 34.2249C11.0702 34.8813 12.0149 35.25 13 35.25C13.9851 35.25 14.9298 34.8813 15.6264 34.2249C16.323 33.5685 16.7143 32.6783 16.7143 31.75V26.5H9.28571V31.75ZM6.03571 26.4326C6.03571 25.8088 6.23814 25.2295 6.58357 24.75H1.85714C1.3646 24.75 0.892226 24.9344 0.543945 25.2626C0.195663 25.5908 2.08363e-07 26.0359 2.08363e-07 26.5V30.875C-0.000239304 31.6284 0.206013 32.3692 0.598778 33.0254C0.991543 33.6817 1.55751 34.2313 2.24186 34.6209C2.9262 35.0105 3.70573 35.227 4.50494 35.2494C5.30415 35.2718 6.09595 35.0993 6.80364 34.7486C6.51362 34.2178 6.3024 33.6519 6.17593 33.0669C5.75596 33.3277 5.26888 33.4765 4.76639 33.4976C4.2639 33.5186 3.76474 33.411 3.3219 33.1863C2.87906 32.9615 2.50906 32.628 2.25116 32.221C1.99327 31.8141 1.85712 31.349 1.85714 30.875V26.5H6.03571V26.4326ZM21.3571 35.25C20.5771 35.25 19.8417 35.0689 19.1964 34.7486C19.4864 34.2178 19.6976 33.6519 19.8241 33.0669C20.244 33.3277 20.7311 33.4765 21.2336 33.4976C21.7361 33.5186 22.2353 33.411 22.6781 33.1863C23.1209 32.9615 23.4909 32.628 23.7488 32.221C24.0067 31.8141 24.1429 31.349 24.1429 30.875V26.5H19.9643V26.4326C19.9643 25.8088 19.7619 25.2295 19.4164 24.75H24.1429C24.6354 24.75 25.1078 24.9344 25.4561 25.2626C25.8043 25.5908 26 26.0359 26 26.5V30.875C26 32.0353 25.5108 33.1481 24.6401 33.9686C23.7694 34.7891 22.5885 35.25 21.3571 35.25Z" fill="url(#paint0_linear_5054_17471)"/>
<g opacity="0.4" filter="url(#filter0_f_5054_17471)">
<rect x="9" y="4" width="8" height="8" rx="4" fill="url(#paint1_linear_5054_17471)"/>
</g>
<rect x="9" y="4" width="8" height="8" rx="4" fill="url(#paint2_linear_5054_17471)"/>
<defs>
<filter id="filter0_f_5054_17471" x="5" y="0" width="16" height="16" filterUnits="userSpaceOnUse" color-interpolation-filters="sRGB">
<feFlood flood-opacity="0" result="BackgroundImageFix"/>
<feBlend mode="normal" in="SourceGraphic" in2="BackgroundImageFix" result="shape"/>
<feGaussianBlur stdDeviation="2" result="effect1_foregroundBlur_5054_17471"/>
</filter>
<linearGradient id="paint0_linear_5054_17471" x1="-1.93715e-07" y1="26.5" x2="26" y2="26.5" gradientUnits="userSpaceOnUse">
<stop stop-color="#8E2DE2"/>
<stop offset="1" stop-color="#4A00E0"/>
</linearGradient>
<linearGradient id="paint1_linear_5054_17471" x1="17" y1="8" x2="9" y2="8" gradientUnits="userSpaceOnUse">
<stop stop-color="#5538FE"/>
<stop offset="1" stop-color="#6B53F6"/>
</linearGradient>
<linearGradient id="paint2_linear_5054_17471" x1="17" y1="8" x2="9" y2="8" gradientUnits="userSpaceOnUse">
<stop stop-color="#5538FE"/>
<stop offset="1" stop-color="#6B53F6"/>
</linearGradient>
</defs>
</svg>
