<svg width="14" height="22" viewBox="0 0 14 22" color="#282B33" xmlns="http://www.w3.org/2000/svg">
<path fill-rule="evenodd" clip-rule="evenodd" d="M13.7503 9.49624L13.7438 9.7391L13.7503 9.99626L13.7441 10.2395L13.7503 10.4962L13.7444 10.7411L13.7502 10.9962L13.5879 18.0993C13.5493 19.7845 12.2676 21.1802 10.5916 21.3617C8.20422 21.6202 5.79586 21.6202 3.40843 21.3617C1.73252 21.1802 0.450754 19.7845 0.412227 18.0993L0.249845 10.9962L0.255716 10.7394L0.249863 10.4962L0.256018 10.2405L0.249814 9.99626L0.256318 9.74021L0.249756 9.49624L0.413761 3.39832C0.416049 3.31324 0.422029 3.22905 0.43155 3.1459L0.435279 3.11074L0.438238 3.0824C0.518849 2.2583 0.975529 1.53954 1.64105 1.10821C1.69071 1.07518 1.74152 1.04374 1.79344 1.01394C1.84422 0.983887 1.89605 0.955384 1.94887 0.928498C2.27547 0.756134 2.63996 0.644416 3.02796 0.6087C5.67042 0.365459 8.32963 0.365459 10.9721 0.608701C11.3595 0.644359 11.7234 0.755779 12.0496 0.927674C12.1024 0.954521 12.1543 0.982984 12.2051 1.013C12.2586 1.04369 12.311 1.07613 12.3622 1.11025C13.0242 1.54061 13.4788 2.25564 13.5612 3.0756L13.569 3.1499C13.5782 3.23175 13.584 3.31461 13.5863 3.39833L13.7503 9.49624ZM12.0743 3.31694L12.2313 10.1836L12.104 14.9138C12.0754 15.9772 11.2563 16.8513 10.1971 16.9488C8.0702 17.1446 5.92985 17.1446 3.80298 16.9488C2.74371 16.8513 1.92461 15.9772 1.89601 14.9138L1.7688 10.1842L1.92579 3.31694C1.92613 3.30217 1.92675 3.28746 1.92763 3.27282C1.98711 2.87054 2.22025 2.52329 2.55079 2.31243C2.67601 2.24715 2.81495 2.20386 2.96275 2.18785C5.64643 1.89722 8.35365 1.89722 11.0373 2.18785C11.1851 2.20385 11.324 2.24711 11.4491 2.31235C11.7798 2.52326 12.0131 2.87068 12.0725 3.27315C12.0733 3.28768 12.074 3.30228 12.0743 3.31694ZM7.00006 20.6963C7.82849 20.6963 8.50006 20.0247 8.50006 19.1963C8.50006 18.3678 7.82849 17.6963 7.00006 17.6963C6.17163 17.6963 5.50006 18.3678 5.50006 19.1963C5.50006 20.0247 6.17163 20.6963 7.00006 20.6963Z" fill="currentColor"/>
</svg>
