<svg width="26" height="21" viewBox="0 0 26 21" fill="none" xmlns="http://www.w3.org/2000/svg">
<path d="M13 7C13.9851 7 14.9298 6.63125 15.6264 5.97487C16.323 5.3185 16.7143 4.42826 16.7143 3.5C16.7143 2.57174 16.323 1.6815 15.6264 1.02513C14.9298 0.368749 13.9851 0 13 0C12.0149 0 11.0702 0.368749 10.3736 1.02513C9.67704 1.6815 9.28571 2.57174 9.28571 3.5C9.28571 4.42826 9.67704 5.3185 10.3736 5.97487C11.0702 6.63125 12.0149 7 13 7ZM13 5.25C12.5075 5.25 12.0351 5.06563 11.6868 4.73744C11.3385 4.40925 11.1429 3.96413 11.1429 3.5C11.1429 3.03587 11.3385 2.59075 11.6868 2.26256C12.0351 1.93437 12.5075 1.75 13 1.75C13.4925 1.75 13.9649 1.93437 14.3132 2.26256C14.6615 2.59075 14.8571 3.03587 14.8571 3.5C14.8571 3.96413 14.6615 4.40925 14.3132 4.73744C13.9649 5.06563 13.4925 5.25 13 5.25ZM4.64286 7C5.38167 7 6.09023 6.72344 6.61265 6.23116C7.13508 5.73887 7.42857 5.07119 7.42857 4.375C7.42857 3.67881 7.13508 3.01113 6.61265 2.51884C6.09023 2.02656 5.38167 1.75 4.64286 1.75C3.90404 1.75 3.19548 2.02656 2.67306 2.51884C2.15064 3.01113 1.85714 3.67881 1.85714 4.375C1.85714 5.07119 2.15064 5.73887 2.67306 6.23116C3.19548 6.72344 3.90404 7 4.64286 7ZM4.64286 5.25C4.39658 5.25 4.1604 5.15781 3.98626 4.99372C3.81212 4.82962 3.71429 4.60706 3.71429 4.375C3.71429 4.14294 3.81212 3.92038 3.98626 3.75628C4.1604 3.59219 4.39658 3.5 4.64286 3.5C4.88913 3.5 5.12531 3.59219 5.29946 3.75628C5.4736 3.92038 5.57143 4.14294 5.57143 4.375C5.57143 4.60706 5.4736 4.82962 5.29946 4.99372C5.12531 5.15781 4.88913 5.25 4.64286 5.25ZM24.1429 4.375C24.1429 4.71972 24.0708 5.06106 23.9308 5.37954C23.7908 5.69802 23.5856 5.9874 23.3269 6.23116C23.0683 6.47491 22.7612 6.66827 22.4232 6.80018C22.0852 6.9321 21.723 7 21.3571 7C20.9913 7 20.6291 6.9321 20.2911 6.80018C19.9531 6.66827 19.646 6.47491 19.3873 6.23116C19.1287 5.9874 18.9235 5.69802 18.7835 5.37954C18.6435 5.06106 18.5714 4.71972 18.5714 4.375C18.5714 3.67881 18.8649 3.01113 19.3873 2.51884C19.9098 2.02656 20.6183 1.75 21.3571 1.75C22.096 1.75 22.8045 2.02656 23.3269 2.51884C23.8494 3.01113 24.1429 3.67881 24.1429 4.375ZM22.2857 4.375C22.2857 4.14294 22.1879 3.92038 22.0137 3.75628C21.8396 3.59219 21.6034 3.5 21.3571 3.5C21.1109 3.5 20.8747 3.59219 20.7005 3.75628C20.5264 3.92038 20.4286 4.14294 20.4286 4.375C20.4286 4.60706 20.5264 4.82962 20.7005 4.99372C20.8747 5.15781 21.1109 5.25 21.3571 5.25C21.6034 5.25 21.8396 5.15781 22.0137 4.99372C22.1879 4.82962 22.2857 4.60706 22.2857 4.375ZM8.33114 8.9705C8.59114 8.8305 8.89293 8.75 9.21421 8.75H16.7858C17.1415 8.74938 17.4892 8.84936 17.784 9.037C18.2594 9.33975 18.5714 9.85162 18.5714 10.4326V15.75C18.5714 17.1424 17.9844 18.4777 16.9396 19.4623C15.8947 20.4469 14.4776 21 13 21C11.5224 21 10.1053 20.4469 9.0604 19.4623C8.01556 18.4777 7.42857 17.1424 7.42857 15.75V10.4326C7.42857 9.80612 7.79164 9.26013 8.33114 8.9705ZM9.28571 15.75C9.28571 16.6783 9.67704 17.5685 10.3736 18.2249C11.0702 18.8813 12.0149 19.25 13 19.25C13.9851 19.25 14.9298 18.8813 15.6264 18.2249C16.323 17.5685 16.7143 16.6783 16.7143 15.75V10.5H9.28571V15.75ZM6.03571 10.4326C6.03571 9.80875 6.23814 9.2295 6.58357 8.75H1.85714C1.3646 8.75 0.892226 8.93437 0.543945 9.26256C0.195663 9.59075 2.08363e-07 10.0359 2.08363e-07 10.5V14.875C-0.000239304 15.6284 0.206013 16.3692 0.598778 17.0254C0.991543 17.6817 1.55751 18.2313 2.24186 18.6209C2.9262 19.0105 3.70573 19.227 4.50494 19.2494C5.30415 19.2718 6.09595 19.0993 6.80364 18.7486C6.51362 18.2178 6.3024 17.6519 6.17593 17.0669C5.75596 17.3277 5.26888 17.4765 4.76639 17.4976C4.2639 17.5186 3.76474 17.411 3.3219 17.1863C2.87906 16.9615 2.50906 16.628 2.25116 16.221C1.99327 15.8141 1.85712 15.349 1.85714 14.875V10.5H6.03571V10.4326ZM21.3571 19.25C20.5771 19.25 19.8417 19.0689 19.1964 18.7486C19.4864 18.2178 19.6976 17.6519 19.8241 17.0669C20.244 17.3277 20.7311 17.4765 21.2336 17.4976C21.7361 17.5186 22.2353 17.411 22.6781 17.1863C23.1209 16.9615 23.4909 16.628 23.7488 16.221C24.0067 15.8141 24.1429 15.349 24.1429 14.875V10.5H19.9643V10.4326C19.9643 9.80875 19.7619 9.2295 19.4164 8.75H24.1429C24.6354 8.75 25.1078 8.93437 25.4561 9.26256C25.8043 9.59075 26 10.0359 26 10.5V14.875C26 16.0353 25.5108 17.1481 24.6401 17.9686C23.7694 18.7891 22.5885 19.25 21.3571 19.25Z" fill="url(#paint0_linear_3919_23940)"/>
<defs>
<linearGradient id="paint0_linear_3919_23940" x1="-1.93715e-07" y1="10.5" x2="26" y2="10.5" gradientUnits="userSpaceOnUse">
<stop stop-color="#8E2DE2"/>
<stop offset="1" stop-color="#4A00E0"/>
</linearGradient>
</defs>
</svg>
