<svg width="14" height="14" viewBox="0 0 14 14" fill="none" xmlns="http://www.w3.org/2000/svg">
<path fill-rule="evenodd" clip-rule="evenodd" d="M2.05031 11.9501C1.40028 11.3 0.884649 10.5283 0.532857 9.67903C0.181065 8.82973 6.84915e-09 7.91946 0 7.00018C-6.84914e-09 6.0809 0.181065 5.17063 0.532857 4.32133C0.884649 3.47203 1.40028 2.70033 2.05031 2.05031C2.70033 1.40028 3.47203 0.884649 4.32133 0.532857C5.17063 0.181065 6.0809 -6.84915e-09 7.00018 0C7.91946 6.84915e-09 8.82973 0.181065 9.67903 0.532857C10.5283 0.884649 11.3 1.40028 11.9501 2.05031C13.2628 3.36309 14.0004 5.14362 14.0004 7.00018C14.0004 8.85674 13.2628 10.6373 11.9501 11.9501C10.6373 13.2628 8.85674 14.0004 7.00018 14.0004C5.14362 14.0004 3.36309 13.2628 2.05031 11.9501ZM5.27643 4.34893C5.15203 4.23301 4.98749 4.1699 4.81747 4.1729C4.64746 4.1759 4.48525 4.24477 4.36501 4.36501C4.24477 4.48525 4.1759 4.64746 4.1729 4.81747C4.1699 4.98749 4.23301 5.15203 4.34893 5.27643L6.07268 7.00018L4.34893 8.72393C4.28445 8.78401 4.23274 8.85646 4.19687 8.93696C4.161 9.01746 4.14172 9.10436 4.14016 9.19247C4.13861 9.28059 4.15482 9.36811 4.18782 9.44983C4.22083 9.53154 4.26996 9.60577 4.33227 9.66809C4.39459 9.7304 4.46882 9.77953 4.55053 9.81254C4.63225 9.84554 4.71977 9.86175 4.80789 9.8602C4.896 9.85864 4.9829 9.83936 5.0634 9.80349C5.1439 9.76762 5.21635 9.71591 5.27643 9.65143L7.00018 7.92768L8.72393 9.65143C8.78401 9.71591 8.85646 9.76762 8.93696 9.80349C9.01746 9.83936 9.10436 9.85864 9.19247 9.8602C9.28059 9.86175 9.36811 9.84554 9.44983 9.81254C9.53154 9.77953 9.60577 9.7304 9.66809 9.66809C9.7304 9.60577 9.77953 9.53154 9.81254 9.44983C9.84554 9.36811 9.86175 9.28059 9.8602 9.19247C9.85864 9.10436 9.83936 9.01746 9.80349 8.93696C9.76762 8.85646 9.71591 8.78401 9.65143 8.72393L7.92768 7.00018L9.65143 5.27643C9.71591 5.21635 9.76762 5.1439 9.80349 5.0634C9.83936 4.9829 9.85864 4.896 9.8602 4.80789C9.86175 4.71977 9.84554 4.63225 9.81254 4.55053C9.77953 4.46882 9.7304 4.39459 9.66809 4.33227C9.60577 4.26996 9.53154 4.22083 9.44983 4.18782C9.36811 4.15482 9.28059 4.13861 9.19247 4.14016C9.10436 4.14172 9.01746 4.161 8.93696 4.19687C8.85646 4.23274 8.78401 4.28445 8.72393 4.34893L7.00018 6.07268L5.27643 4.34893Z" fill="#FD355A"/>
</svg>
