<svg width="19" height="19" viewBox="0 0 19 19" fill="none" xmlns="http://www.w3.org/2000/svg">
<path fill-rule="evenodd" clip-rule="evenodd" d="M0.943548 5.09879V3.0121C0.943548 1.87149 1.87151 0.943548 3.0121 0.943548H5.09879C5.35934 0.943548 5.57057 0.73232 5.57057 0.471774C5.57057 0.211228 5.35934 0 5.09879 0H3.0121C1.35123 0 0 1.35122 0 3.0121V5.09879C0 5.35934 0.211228 5.57056 0.471774 5.57056C0.732321 5.57056 0.943548 5.35934 0.943548 5.09879ZM5.09879 17.6371C5.35934 17.6371 5.57057 17.8483 5.57057 18.1089C5.57057 18.3694 5.35934 18.5806 5.09879 18.5806H3.0121C1.35123 18.5806 0 17.2294 0 15.5685V13.4819C0 13.2213 0.211228 13.0101 0.471774 13.0101C0.732321 13.0101 0.943548 13.2213 0.943548 13.4819V15.5685C0.943548 16.7091 1.87151 17.6371 3.0121 17.6371H5.09879ZM18.5806 13.4819V15.5685C18.5806 17.2294 17.2294 18.5806 15.5685 18.5806H13.4819C13.2213 18.5806 13.0101 18.3694 13.0101 18.1089C13.0101 17.8483 13.2213 17.6371 13.4819 17.6371H15.5685C16.7091 17.6371 17.6371 16.7091 17.6371 15.5685V13.4819C17.6371 13.2213 17.8483 13.0101 18.1089 13.0101C18.3694 13.0101 18.5806 13.2213 18.5806 13.4819ZM18.5806 3.0121V5.09879C18.5806 5.35934 18.3694 5.57056 18.1089 5.57056C17.8483 5.57056 17.6371 5.35934 17.6371 5.09879V3.0121C17.6371 1.87149 16.7091 0.943548 15.5685 0.943548H13.4819C13.2213 0.943548 13.0101 0.73232 13.0101 0.471774C13.0101 0.211228 13.2213 0 13.4819 0H15.5685C17.2294 0 18.5806 1.35122 18.5806 3.0121ZM12.5461 13.7329C12.7449 13.5493 12.7571 13.2394 12.5735 13.0406C12.3899 12.8418 12.08 12.8296 11.8812 13.0131C11.174 13.6664 10.2538 14.0262 9.29032 14.0262C8.3268 14.0262 7.40666 13.6664 6.69941 13.0131C6.50061 12.8296 6.19071 12.8419 6.0071 13.0406C5.82351 13.2394 5.83579 13.5493 6.03455 13.7329C6.9234 14.5539 8.07962 15.006 9.29032 15.006C10.501 15.006 11.6573 14.5539 12.5461 13.7329ZM10.2702 7.00403V10.4879C10.2702 11.1783 9.70851 11.7399 9.01815 11.7399H8.61895C8.34837 11.7399 8.12903 11.5206 8.12903 11.25C8.12903 10.9794 8.34837 10.7601 8.61895 10.7601H9.01815C9.16822 10.7601 9.29032 10.638 9.29032 10.4879V7.00403C9.29032 6.73345 9.50966 6.51411 9.78024 6.51411C10.0508 6.51411 10.2702 6.73345 10.2702 7.00403ZM13.6452 8.37399V6.97681C13.6452 6.72128 13.438 6.51411 13.1825 6.51411C12.9269 6.51411 12.7198 6.72128 12.7198 6.97681V8.37399C12.7198 8.62953 12.9269 8.83669 13.1825 8.83669C13.438 8.83669 13.6452 8.62953 13.6452 8.37399ZM5.04436 8.37399C5.04436 8.62953 5.25152 8.83669 5.50706 8.83669C5.7626 8.83669 5.96976 8.62953 5.96976 8.37399V6.97681C5.96976 6.72128 5.7626 6.51411 5.50706 6.51411C5.25152 6.51411 5.04436 6.72128 5.04436 6.97681V8.37399Z" fill="#7B61FF"/>
</svg>
