<svg width="21" height="22" viewBox="0 0 21 22" fill="none" xmlns="http://www.w3.org/2000/svg">
<path d="M15.75 3.25V18.25C15.75 19.0456 15.4339 19.8087 14.8713 20.3713C14.3087 20.9339 13.5456 21.25 12.75 21.25H8.25C7.45435 21.25 6.69129 20.9339 6.12868 20.3713C5.56607 19.8087 5.25 19.0456 5.25 18.25L5.25 3.25C5.25 2.45435 5.56607 1.69129 6.12868 1.12868C6.69129 0.566071 7.45435 0.25 8.25 0.25L12.75 0.25C13.5456 0.25 14.3087 0.566071 14.8713 1.12868C15.4339 1.69129 15.75 2.45435 15.75 3.25ZM14.25 3.25C14.25 2.85218 14.092 2.47064 13.8107 2.18934C13.5294 1.90804 13.1478 1.75 12.75 1.75L8.25 1.75C7.85218 1.75 7.47064 1.90804 7.18934 2.18934C6.90804 2.47064 6.75 2.85218 6.75 3.25L6.75 18.25C6.75 18.6478 6.90804 19.0294 7.18934 19.3107C7.47064 19.592 7.85218 19.75 8.25 19.75H12.75C13.1478 19.75 13.5294 19.592 13.8107 19.3107C14.092 19.0294 14.25 18.6478 14.25 18.25V3.25ZM19.5 0.25C19.6989 0.25 19.8897 0.329018 20.0303 0.46967C20.171 0.610322 20.25 0.801088 20.25 1V20.5C20.25 20.6989 20.171 20.8897 20.0303 21.0303C19.8897 21.171 19.6989 21.25 19.5 21.25C19.3011 21.25 19.1103 21.171 18.9697 21.0303C18.829 20.8897 18.75 20.6989 18.75 20.5V1C18.75 0.801088 18.829 0.610322 18.9697 0.46967C19.1103 0.329018 19.3011 0.25 19.5 0.25ZM1.5 0.25C1.69891 0.25 1.88968 0.329018 2.03033 0.46967C2.17098 0.610322 2.25 0.801088 2.25 1V20.5C2.25 20.6989 2.17098 20.8897 2.03033 21.0303C1.88968 21.171 1.69891 21.25 1.5 21.25C1.30109 21.25 1.11032 21.171 0.969669 21.0303C0.829018 20.8897 0.75 20.6989 0.75 20.5V1C0.75 0.801088 0.829018 0.610322 0.969669 0.46967C1.11032 0.329018 1.30109 0.25 1.5 0.25Z" fill="black"/>
</svg>
