<svg width="20" height="20" viewBox="0 0 24 24" fill="none" xmlns="http://www.w3.org/2000/svg">
<path d="M14.5529 0.353774C12.8642 -0.0655922 11.0872 -0.125517 9.35811 0.246102C9.22448 0.274822 9.13954 0.40595 9.16839 0.538985C9.19723 0.67202 9.32895 0.756585 9.46257 0.727865C11.1185 0.371975 12.8243 0.430656 14.4468 0.835508C18.3269 1.80369 21.5566 4.70804 22.7867 8.50192C23.2625 9.96913 23.4646 11.5314 23.505 13.1687C23.5084 13.3048 23.6219 13.4124 23.7586 13.409C23.8952 13.4057 24.0033 13.2927 23.9999 13.1566C23.9589 11.4968 23.7544 9.89435 23.267 8.37871C21.9895 4.40681 18.6139 1.36224 14.5529 0.353774Z" fill="#FF4242"/>
<path d="M8.10195 1.09936C8.23373 1.06317 8.31109 0.927469 8.27474 0.79627C8.23838 0.665072 8.10208 0.588055 7.97029 0.624249C6.162 1.12089 3.61828 2.83695 2.04623 5.12947C2.04562 5.13036 2.04502 5.13126 2.04442 5.13216C0.664055 7.20313 -0.201235 9.80567 0.0403514 12.3311C0.0405814 12.3335 0.0408469 12.3359 0.0411478 12.3383C0.0990462 12.7994 0.196244 13.2597 0.293556 13.7205C0.498513 14.691 0.703976 15.664 0.543828 16.6524C0.522058 16.7868 0.613819 16.9132 0.748781 16.9349C0.883743 16.9566 1.0108 16.8652 1.03257 16.7309C1.19998 15.6977 0.99211 14.6899 0.784203 13.6819C0.688051 13.2157 0.591891 12.7495 0.532837 12.2807C0.305619 9.89442 1.12404 7.40497 2.45602 5.40601C3.96827 3.20149 6.41706 1.56211 8.10195 1.09936Z" fill="#FF4242"/>
<path d="M11.3502 1.64994C14.4579 1.46101 17.565 2.72368 19.6517 5.14273C19.7407 5.24598 19.7289 5.40156 19.6252 5.49023C19.5214 5.5789 19.3652 5.56708 19.2761 5.46383C17.2918 3.16341 14.3351 1.96179 11.3789 2.14198C11.3778 2.14204 11.3767 2.1421 11.3757 2.14215C7.63718 2.32224 4.13603 4.84713 2.84825 8.38513C2.80167 8.51308 2.65972 8.57922 2.53119 8.53286C2.40266 8.48649 2.33623 8.34517 2.3828 8.21721C3.73944 4.49007 7.41586 1.84013 11.3502 1.64994Z" fill="#FF4242"/>
<path d="M20.4058 6.21932C20.3296 6.10633 20.1758 6.07625 20.0623 6.15213C19.9488 6.22801 19.9186 6.38111 19.9948 6.4941C21.1516 8.20891 21.6299 10.075 21.819 12.2894C21.8306 12.425 21.9504 12.5256 22.0866 12.5141C22.2228 12.5025 22.3238 12.3833 22.3123 12.2476C22.119 9.98481 21.6258 8.02784 20.4058 6.21932Z" fill="#FF4242"/>
<path d="M22.1468 13.2939C22.2832 13.2854 22.4007 13.3886 22.4093 13.5245C22.5026 15.0105 22.5034 16.6917 22.3383 17.9341C22.3204 18.069 22.196 18.1639 22.0604 18.1461C21.9249 18.1282 21.8296 18.0044 21.8475 17.8695C22.0067 16.672 22.0075 15.0264 21.9152 13.5552C21.9066 13.4194 22.0103 13.3024 22.1468 13.2939Z" fill="#FF4242"/>
<path d="M2.47445 9.57872C2.50654 9.44642 2.42482 9.31327 2.29193 9.28133C2.15904 9.24939 2.0253 9.33074 1.99322 9.46304C1.81154 10.2122 1.71722 10.9817 1.71348 11.752C1.70963 12.546 1.85833 13.3209 2.00708 14.0962C2.12877 14.7304 2.2505 15.3648 2.28878 16.01C2.33908 16.8574 2.16003 17.7061 1.85063 18.5138C1.80192 18.641 1.86598 18.7834 1.99372 18.8319C2.12145 18.8804 2.26449 18.8166 2.3132 18.6895C2.64024 17.8357 2.83848 16.916 2.78298 15.9809C2.74496 15.3402 2.62324 14.7094 2.50157 14.079C2.35311 13.3097 2.20472 12.5407 2.20854 11.7544C2.21209 11.0225 2.30172 10.2909 2.47445 9.57872Z" fill="#FF4242"/>
<path d="M8.96955 4.10251C9.02049 4.22881 8.95895 4.3723 8.83209 4.42302C6.26589 5.449 4.33883 7.76425 3.94571 10.4944C3.78146 11.6351 3.95891 12.7649 4.1363 13.8945C4.23621 14.5306 4.33609 15.1666 4.37493 15.8044C4.45914 17.1874 4.30091 18.7065 3.39685 20.0886C3.32225 20.2026 3.16891 20.2349 3.05435 20.1606C2.93979 20.0864 2.9074 19.9337 2.982 19.8196C3.80569 18.5604 3.9616 17.1617 3.88078 15.8342C3.84137 15.1871 3.74211 14.5437 3.64291 13.9007C3.46493 12.7471 3.28714 11.5948 3.45566 10.4245C3.87541 7.50938 5.92776 5.05307 8.6476 3.96566C8.77446 3.91495 8.9186 3.97621 8.96955 4.10251Z" fill="#FF4242"/>
<path d="M17.6593 5.50552C15.6348 3.61778 12.7006 2.95892 10.0339 3.54124C9.90034 3.57039 9.81583 3.7018 9.84512 3.83474C9.87441 3.96768 10.0064 4.05181 10.1399 4.02265C12.6651 3.47124 15.428 4.10025 17.3209 5.86524C18.9163 7.35288 19.8427 9.51751 20.0852 11.8792C20.0991 12.0146 20.2207 12.1131 20.3567 12.0993C20.4927 12.0855 20.5916 11.9645 20.5777 11.8291C20.3259 9.37677 19.3604 7.09168 17.6593 5.50552Z" fill="#FF4242"/>
<path d="M20.5259 13.0027C20.6619 12.9888 20.7835 13.0873 20.7975 13.2227C21.0325 15.5014 20.9312 17.9626 20.5763 20.3436C20.5563 20.4782 20.4304 20.5712 20.2952 20.5512C20.1599 20.5312 20.0666 20.4059 20.0866 20.2713C20.4366 17.9234 20.5351 15.504 20.305 13.273C20.291 13.1376 20.3899 13.0166 20.5259 13.0027Z" fill="#FF4242"/>
<path d="M11.8961 5.00824C8.103 5.00824 5.02108 8.02094 5.02108 11.7457C5.02108 12.1436 5.05655 12.5334 5.12415 12.9125C5.14805 13.0465 5.27654 13.1359 5.41115 13.1121C5.54575 13.0883 5.63549 12.9604 5.61159 12.8264C5.549 12.4754 5.51614 12.1144 5.51614 11.7457C5.51614 8.30071 8.36875 5.5011 11.8961 5.5011C13.4901 5.5011 14.9465 6.07308 16.0644 7.01818C16.1686 7.10628 16.3248 7.0936 16.4133 6.98987C16.5018 6.88613 16.489 6.73061 16.3848 6.64251C15.1802 5.62406 13.6111 5.00824 11.8961 5.00824Z" fill="#FF4242"/>
<path d="M16.9394 7.56132C17.0381 7.46712 17.1948 7.47039 17.2894 7.56862C18.3818 8.70271 18.7315 10.4852 18.9629 11.981C19.2235 13.666 19.2633 15.3098 19.2633 16.0719C19.2633 16.208 19.1524 16.3183 19.0157 16.3183C18.879 16.3183 18.7682 16.208 18.7682 16.0719C18.7682 15.3221 18.7288 13.7061 18.4736 12.056C18.2588 10.6673 17.9491 8.96559 16.9321 7.90975C16.8375 7.81152 16.8408 7.65552 16.9394 7.56132Z" fill="#FF4242"/>
<path d="M19.2004 17.4832C19.2113 17.3476 19.1096 17.2288 18.9733 17.218C18.8371 17.2072 18.7178 17.3084 18.7069 17.4441C18.5854 18.962 18.4265 20.4783 18.1042 21.879C18.0737 22.0116 18.157 22.1438 18.2902 22.1742C18.4235 22.2046 18.5562 22.1217 18.5868 21.989C18.9176 20.5515 19.0785 19.0052 19.2004 17.4832Z" fill="#FF4242"/>
<path d="M5.52259 13.8195C5.65672 13.7932 5.78686 13.8801 5.81328 14.0137C6.33665 16.6596 5.97509 19.0633 4.58912 21.1688C4.51418 21.2826 4.36075 21.3144 4.24641 21.2398C4.13206 21.1652 4.10012 21.0125 4.17505 20.8987C5.4791 18.9176 5.83006 16.6494 5.32755 14.1089C5.30113 13.9754 5.38846 13.8458 5.52259 13.8195Z" fill="#FF4242"/>
<path d="M11.8961 6.61164C9.43386 6.61164 7.01841 8.50913 6.77186 10.8939C6.66393 11.9379 6.81555 12.9663 6.96724 13.9951C7.09969 14.8935 7.23218 15.7921 7.19195 16.7018C7.09989 18.7837 6.48632 20.5022 5.43204 21.9177C5.35062 22.027 5.37362 22.1813 5.48344 22.2624C5.59325 22.3434 5.74827 22.3205 5.8297 22.2112C6.94789 20.71 7.59051 18.8947 7.68653 16.7235C7.72658 15.8179 7.59368 14.9221 7.46087 14.0269C7.30899 13.0032 7.15723 11.9802 7.26432 10.9444C7.48091 8.84938 9.64685 7.1045 11.8961 7.1045C12.9452 7.1045 15.6595 7.67003 16.5229 10.4702C17.0639 12.2249 17.2115 14.5997 17.0805 16.9068C16.9494 19.2137 16.5418 21.42 15.9936 22.8348C15.9445 22.9618 16.008 23.1044 16.1355 23.1534C16.2631 23.2024 16.4063 23.1392 16.4555 23.0122C17.029 21.532 17.4421 19.2698 17.5747 16.9347C17.7074 14.5998 17.5616 12.1593 16.9961 10.3255C16.0377 7.21728 13.0333 6.61164 11.8961 6.61164Z" fill="#FF4242"/>
<path d="M8.08681 21.1692C8.20132 21.2435 8.2336 21.3962 8.15891 21.5102C8.00542 21.7445 7.87039 21.9897 7.73536 22.2348C7.60032 22.48 7.46527 22.7251 7.31174 22.9595C7.23706 23.0735 7.08369 23.1056 6.96919 23.0313C6.85469 22.9569 6.82241 22.8042 6.89709 22.6902C7.05058 22.4559 7.18561 22.2108 7.32064 21.9656C7.45568 21.7205 7.59074 21.4753 7.74426 21.241C7.81894 21.127 7.97231 21.0948 8.08681 21.1692Z" fill="#FF4242"/>
<path d="M10.2063 9.1697C10.32 9.09404 10.3505 8.94099 10.2745 8.82786C10.1985 8.71473 10.0447 8.68437 9.93109 8.76003C8.95091 9.41273 8.34956 10.3103 8.34956 11.6251C8.34956 12.408 8.48887 13.048 8.63176 13.7043C8.84559 14.6865 8.99062 15.6666 8.96456 16.6755C8.93291 17.9006 8.69214 19.02 8.22932 20.0865C8.1751 20.2114 8.23288 20.3565 8.35837 20.4104C8.48387 20.4644 8.62956 20.4069 8.68378 20.282C9.17313 19.1544 9.42627 17.9725 9.45945 16.6882C9.48653 15.6398 9.33748 14.6209 9.11571 13.6001C8.97248 12.9409 8.84461 12.3523 8.84461 11.6251C8.84461 10.4985 9.34242 9.74497 10.2063 9.1697Z" fill="#FF4242"/>
<path d="M11.1724 8.30385C12.1996 8.09539 13.3049 8.35299 14.1185 9.00856C15.5717 10.1796 15.765 12.3151 15.9216 14.0456L15.9296 14.1338C16.132 16.3644 15.9003 18.5311 15.4337 20.707C15.4051 20.8401 15.2736 20.9249 15.1399 20.8965C15.0062 20.8681 14.921 20.7372 14.9495 20.6041C15.4092 18.4608 15.6332 16.3457 15.4366 14.1781C15.43 14.1063 15.4236 14.0335 15.417 13.9599L15.4169 13.9588C15.2778 12.395 15.1036 10.4364 13.8071 9.39166C13.1115 8.83118 12.1575 8.60693 11.2713 8.78678C11.1374 8.81397 11.0067 8.7279 10.9793 8.59454C10.952 8.46119 11.0385 8.33104 11.1724 8.30385Z" fill="#FF4242"/>
<path d="M15.0838 21.9332C15.1175 21.8013 15.0375 21.6672 14.905 21.6336C14.7725 21.6 14.6378 21.6797 14.6041 21.8116C14.4544 22.3968 14.2238 22.925 13.9315 23.4113C13.8613 23.5281 13.8994 23.6794 14.0167 23.7493C14.134 23.8192 14.286 23.7812 14.3562 23.6644C14.6713 23.1403 14.9214 22.5681 15.0838 21.9332Z" fill="#FF4242"/>
<path d="M13.8734 18.3571C14.0091 18.373 14.1062 18.4956 14.0901 18.6307C13.8563 20.5975 13.3285 22.3516 12.4817 23.873C12.4154 23.992 12.2648 24.035 12.1452 23.9691C12.0256 23.9031 11.9824 23.7531 12.0487 23.6341C12.8591 22.1781 13.3709 20.4877 13.5985 18.5728C13.6145 18.4377 13.7376 18.3411 13.8734 18.3571Z" fill="#FF4242"/>
<path d="M13.8224 11.4958C13.6507 10.583 12.8638 9.88467 11.9084 9.88467C10.6146 9.88467 9.7069 11.1829 10.0268 12.3908C10.568 14.523 10.6568 16.5779 10.2905 18.557L10.2902 18.5585C9.97224 20.3355 9.36166 21.9341 8.52879 23.2887C8.45742 23.4048 8.49409 23.5565 8.61068 23.6275C8.72728 23.6986 8.87966 23.6621 8.95103 23.546C9.81796 22.136 10.4493 20.4791 10.7774 18.6457C11.1579 16.5901 11.0636 14.4632 10.5064 12.2688L10.5057 12.2662C10.2658 11.3627 10.9346 10.3775 11.9084 10.3775C12.6111 10.3775 13.2044 10.8922 13.3354 11.5848C13.6957 13.6654 13.8834 15.5948 13.7498 17.256C13.7389 17.3917 13.8405 17.5105 13.9768 17.5213C14.113 17.5322 14.2323 17.431 14.2433 17.2953C14.3818 15.5735 14.1863 13.5966 13.823 11.4993C13.8228 11.4981 13.8226 11.497 13.8224 11.4958Z" fill="#FF4242"/>
<path d="M11.1697 22.1689C11.2913 22.2311 11.3392 22.3797 11.2768 22.5007L10.6209 23.7715C10.5584 23.8925 10.4092 23.9402 10.2876 23.878C10.166 23.8158 10.1181 23.6673 10.1805 23.5462L10.8364 22.2755C10.8989 22.1544 11.0481 22.1067 11.1697 22.1689Z" fill="#FF4242"/>
<path d="M12.0925 11.7335C12.0612 11.601 11.928 11.5188 11.7949 11.5499C11.6618 11.581 11.5792 11.7137 11.6105 11.8462C12.4453 15.3837 12.3306 18.49 11.3138 21.1361C11.265 21.2632 11.3289 21.4057 11.4566 21.4543C11.5843 21.503 11.7274 21.4393 11.7762 21.3122C12.8364 18.5531 12.9441 15.3428 12.0925 11.7335Z" fill="#FF4242"/>
</svg>
