<svg width="11" height="16" viewBox="0 0 11 16" fill="none" xmlns="http://www.w3.org/2000/svg">
<path d="M2.64962 15.9543C2.53268 15.9049 2.43551 15.818 2.37343 15.7073C2.31134 15.5966 2.28789 15.4684 2.30677 15.3429L3.34675 8.57152H0.58679C0.499291 8.57388 0.41242 8.5561 0.332881 8.51956C0.253342 8.48302 0.183261 8.42869 0.128044 8.36078C0.0728266 8.29286 0.0339502 8.21317 0.0144142 8.12784C-0.00512186 8.04252 -0.00479533 7.95385 0.0153684 7.86868L1.72963 0.440199C1.7598 0.312354 1.83309 0.198806 1.93716 0.118668C2.04124 0.038529 2.16975 -0.00330622 2.30105 0.000204233H8.01527C8.10063 -8.60333e-05 8.18498 0.0187547 8.26211 0.055342C8.33924 0.0919293 8.40719 0.145333 8.46097 0.21163C8.51552 0.278676 8.55414 0.35722 8.57393 0.441351C8.59373 0.525482 8.59418 0.613007 8.57526 0.697338L7.5867 5.143H10.301C10.408 5.14278 10.513 5.17267 10.604 5.22925C10.6949 5.28583 10.7681 5.36682 10.8152 5.46299C10.8562 5.5553 10.8719 5.65681 10.8609 5.75718C10.8499 5.85756 10.8124 5.95321 10.7524 6.03441L3.3239 15.7486C3.27369 15.823 3.20666 15.8845 3.12823 15.9282C3.0498 15.9719 2.96218 15.9965 2.87247 16C2.79601 15.9986 2.72047 15.9831 2.64962 15.9543Z" fill="#282B33"/>
</svg>
