<svg width="16" height="16" viewBox="0 0 16 16" fill="none" xmlns="http://www.w3.org/2000/svg">
<path d="M15 14.295L1.705 1L1 1.705L4.2 4.91L3.5 7.885C3.48236 7.95953 3.48207 8.03712 3.49917 8.11178C3.51626 8.18643 3.55028 8.25617 3.59859 8.3156C3.64691 8.37502 3.70823 8.42256 3.77783 8.45453C3.84742 8.4865 3.92344 8.50206 4 8.5H6.415L5.5 14.425C5.48348 14.5348 5.504 14.647 5.55833 14.7439C5.61265 14.8408 5.69768 14.9168 5.8 14.96C5.86356 14.9858 5.93141 14.9994 6 15C6.07636 14.9998 6.15166 14.9821 6.22013 14.9483C6.2886 14.9145 6.34842 14.8655 6.395 14.805L9.735 10.44L14.295 15L15 14.295Z" fill="#282B33"/>
<path d="M11.2646 8.43518L12.8946 6.30518C12.9471 6.23413 12.9799 6.15043 12.9896 6.0626C12.9992 5.97477 12.9854 5.88595 12.9496 5.80518C12.912 5.71635 12.8495 5.6403 12.7697 5.58618C12.6898 5.53206 12.596 5.5022 12.4996 5.50018H10.1246L10.9996 1.61018C11.0162 1.53639 11.0158 1.4598 10.9985 1.38619C10.9811 1.31257 10.9473 1.24384 10.8996 1.18518C10.8515 1.12583 10.7904 1.0783 10.7211 1.04623C10.6518 1.01416 10.576 0.998407 10.4996 1.00018H5.49961C5.38471 0.997107 5.27227 1.03371 5.1812 1.10384C5.09013 1.17396 5.026 1.27331 4.99961 1.38518L4.84961 2.03518L11.2646 8.43518Z" fill="#282B33"/>
</svg>
