<svg width="14" height="12" viewBox="0 0 14 12" fill="none" xmlns="http://www.w3.org/2000/svg">
<path d="M4.70678 0.292893C4.89432 0.105356 5.14867 0 5.41389 0H8.58546C8.85068 0 9.10503 0.105357 9.29257 0.292893L10.0401 1.04044C10.2277 1.22798 10.482 1.33333 10.7472 1.33333H12.9997C13.1765 1.33333 13.3461 1.40357 13.4711 1.5286C13.5961 1.65362 13.6663 1.82319 13.6663 2V11.3333C13.6663 11.5101 13.5961 11.6797 13.4711 11.8047C13.3461 11.9298 13.1765 12 12.9997 12H0.999674C0.822863 12 0.653294 11.9298 0.52827 11.8047C0.403246 11.6797 0.333008 11.5101 0.333008 11.3333V2C0.333008 1.82319 0.403246 1.65362 0.52827 1.5286C0.653294 1.40357 0.822863 1.33333 0.999674 1.33333H3.25213C3.51734 1.33333 3.7717 1.22798 3.95923 1.04044L4.70678 0.292893ZM8.69908 10.289C8.74905 10.2655 8.769 10.2053 8.74431 10.1559L8.23706 9.14145C8.21236 9.09205 8.15236 9.07221 8.10207 9.09504C7.71941 9.26878 7.30061 9.34981 6.87983 9.33088C6.42571 9.31045 5.98435 9.17427 5.59767 8.93528C5.21098 8.69628 4.89182 8.3624 4.67047 7.96535C4.44913 7.56829 4.33297 7.12125 4.33301 6.66667H5.50519C5.57953 6.66667 5.62788 6.58843 5.59463 6.52194L4.28646 3.90622C4.2563 3.84591 4.1763 3.83216 4.12931 3.88052C3.49609 4.53221 3.10262 5.38132 3.01618 6.28857C2.92544 7.24099 3.17907 8.19439 3.73107 8.97582C4.28307 9.75725 5.09688 10.3149 6.02486 10.5477C6.92048 10.7724 7.8652 10.6807 8.69908 10.289ZM5.30027 3.04437C5.2503 3.06785 5.23035 3.12801 5.25504 3.17739L5.76229 4.19189C5.78698 4.24129 5.84699 4.26112 5.89727 4.23829C6.27994 4.06455 6.69874 3.98352 7.11952 4.00245C7.57364 4.02288 8.015 4.15906 8.40168 4.39806C8.78837 4.63705 9.10753 4.97093 9.32887 5.36799C9.55022 5.76504 9.66638 6.21209 9.66634 6.66667H8.49413C8.41979 6.66667 8.37144 6.74489 8.40468 6.81138L9.71223 9.42708C9.74238 9.4874 9.82239 9.50116 9.86939 9.45279C10.5026 8.80111 10.8961 7.95201 10.9825 7.04477C11.0732 6.09235 10.8196 5.13895 10.2676 4.35751C9.71561 3.57608 8.90181 3.01839 7.97383 2.78559C7.0782 2.56091 6.1341 2.65262 5.30027 3.04437Z" fill="#282B33"/>
</svg>
