<svg width="20" height="19" viewBox="0 0 20 19" fill="none" xmlns="http://www.w3.org/2000/svg">
<path d="M14 5V17H2V5H14ZM14 3H2C0.9 3 0 3.9 0 5V17C0 18.1 0.9 19 2 19H14C15.1 19 16 18.1 16 17V5C16 3.9 15.1 3 14 3ZM5.5 12.67L7.19 14.93L9.67 11.83L13 16H3L5.5 12.67Z" fill="url(#paint0_linear_3064_1376)"/>
<path d="M0.7125 0C0.318997 0 0 0.318997 0 0.7125C0 1.106 0.318997 1.425 0.712499 1.425H18V18.25C18 18.6642 18.3358 19 18.75 19C19.1642 19 19.5 18.6642 19.5 18.25V1.5C19.5 0.754027 18.9555 0.135238 18.2422 0.019451C18.1801 0.00669841 18.1158 0 18.05 0H0.7125Z" fill="url(#paint1_linear_3064_1376)"/>
<defs>
<linearGradient id="paint0_linear_3064_1376" x1="-1.45286e-07" y1="9.5" x2="19.5" y2="9.5" gradientUnits="userSpaceOnUse">
<stop stop-color="#8E2DE2"/>
<stop offset="1" stop-color="#4A00E0"/>
</linearGradient>
<linearGradient id="paint1_linear_3064_1376" x1="-1.45286e-07" y1="9.5" x2="19.5" y2="9.5" gradientUnits="userSpaceOnUse">
<stop stop-color="#8E2DE2"/>
<stop offset="1" stop-color="#4A00E0"/>
</linearGradient>
</defs>
</svg>
