<svg width="14" height="14" viewBox="0 0 14 14" fill="none" xmlns="http://www.w3.org/2000/svg">
<path fill-rule="evenodd" clip-rule="evenodd" d="M7.00016 0.583008C3.45641 0.583008 0.583496 3.45592 0.583496 6.99967C0.583496 10.5434 3.45641 13.4163 7.00016 13.4163C10.5439 13.4163 13.4168 10.5434 13.4168 6.99967C13.4168 3.45592 10.5439 0.583008 7.00016 0.583008ZM7.5835 4.08301C7.5835 3.9283 7.52204 3.77993 7.41264 3.67053C7.30325 3.56113 7.15487 3.49967 7.00016 3.49967C6.84545 3.49967 6.69708 3.56113 6.58768 3.67053C6.47829 3.77993 6.41683 3.9283 6.41683 4.08301V7.58301C6.41683 7.73772 6.47829 7.88609 6.58768 7.99549C6.69708 8.10488 6.84545 8.16634 7.00016 8.16634C7.15487 8.16634 7.30325 8.10488 7.41264 7.99549C7.52204 7.88609 7.5835 7.73772 7.5835 7.58301V4.08301ZM7.5835 9.62467C7.5835 9.46996 7.52204 9.32159 7.41264 9.2122C7.30325 9.1028 7.15487 9.04134 7.00016 9.04134C6.84545 9.04134 6.69708 9.1028 6.58768 9.2122C6.47829 9.32159 6.41683 9.46996 6.41683 9.62467V9.91634C6.41683 10.0711 6.47829 10.2194 6.58768 10.3288C6.69708 10.4382 6.84545 10.4997 7.00016 10.4997C7.15487 10.4997 7.30325 10.4382 7.41264 10.3288C7.52204 10.2194 7.5835 10.0711 7.5835 9.91634V9.62467Z" fill="#FD355A"/>
</svg>
