<svg width="46" height="45" viewBox="0 0 46 45" fill="none" xmlns="http://www.w3.org/2000/svg">
<ellipse cx="22.9999" cy="22.4561" rx="22.6667" ry="22.4561" fill="url(#paint0_linear_2160_42738)"/>
<path d="M21.9387 17.0352C19.8137 17.0352 18.1204 18.7617 18.1204 20.8535C18.1204 22.9785 19.8137 24.6719 21.9387 24.6719C24.0305 24.6719 25.7571 22.9785 25.7571 20.8535C25.7571 18.7617 24.0305 17.0352 21.9387 17.0352ZM21.9387 23.3438C20.5774 23.3438 19.4485 22.248 19.4485 20.8535C19.4485 19.4922 20.5442 18.3965 21.9387 18.3965C23.3 18.3965 24.3958 19.4922 24.3958 20.8535C24.3958 22.248 23.3 23.3438 21.9387 23.3438ZM26.7864 16.9023C26.7864 16.4043 26.3879 16.0059 25.8899 16.0059C25.3918 16.0059 24.9934 16.4043 24.9934 16.9023C24.9934 17.4004 25.3918 17.7988 25.8899 17.7988C26.3879 17.7988 26.7864 17.4004 26.7864 16.9023ZM29.3098 17.7988C29.2434 16.6035 28.9778 15.541 28.1145 14.6777C27.2512 13.8145 26.1887 13.5488 24.9934 13.4824C23.7649 13.416 20.0793 13.416 18.8508 13.4824C17.6555 13.5488 16.6262 13.8145 15.7297 14.6777C14.8665 15.541 14.6008 16.6035 14.5344 17.7988C14.468 19.0273 14.468 22.7129 14.5344 23.9414C14.6008 25.1367 14.8665 26.166 15.7297 27.0625C16.6262 27.9258 17.6555 28.1914 18.8508 28.2578C20.0793 28.3242 23.7649 28.3242 24.9934 28.2578C26.1887 28.1914 27.2512 27.9258 28.1145 27.0625C28.9778 26.166 29.2434 25.1367 29.3098 23.9414C29.3762 22.7129 29.3762 19.0273 29.3098 17.7988ZM27.7161 25.2363C27.4836 25.9004 26.9524 26.3984 26.3215 26.6641C25.3254 27.0625 23.0012 26.9629 21.9387 26.9629C20.843 26.9629 18.5188 27.0625 17.5559 26.6641C16.8918 26.3984 16.3938 25.9004 16.1282 25.2363C15.7297 24.2734 15.8293 21.9492 15.8293 20.8535C15.8293 19.791 15.7297 17.4668 16.1282 16.4707C16.3938 15.8398 16.8918 15.3418 17.5559 15.0762C18.5188 14.6777 20.843 14.7773 21.9387 14.7773C23.0012 14.7773 25.3254 14.6777 26.3215 15.0762C26.9524 15.3086 27.4504 15.8398 27.7161 16.4707C28.1145 17.4668 28.0149 19.791 28.0149 20.8535C28.0149 21.9492 28.1145 24.2734 27.7161 25.2363Z" fill="white"/>
<defs>
<linearGradient id="paint0_linear_2160_42738" x1="29.8539" y1="78.4005" x2="93.6234" y2="14.9649" gradientUnits="userSpaceOnUse">
<stop stop-color="white"/>
<stop offset="0.147864" stop-color="#F6640E"/>
<stop offset="0.443974" stop-color="#BA03A7"/>
<stop offset="0.733337" stop-color="#6A01B9"/>
<stop offset="1" stop-color="#6B01B9"/>
</linearGradient>
</defs>
</svg>
