<svg width="14" height="17" viewBox="0 0 14 17" color="black" xmlns="http://www.w3.org/2000/svg">
<path d="M7 1V0V1ZM1 7H0H1ZM2.125 10.375L1.34469 11.0004C1.3527 11.0104 1.36091 11.0202 1.36931 11.0299L2.125 10.375ZM7 16L6.24431 16.6549C6.43425 16.8741 6.70998 17 7 17C7.29002 17 7.56575 16.8741 7.75569 16.6549L7 16ZM11.875 10.375L12.6307 11.0299C12.6391 11.0202 12.6473 11.0104 12.6553 11.0004L11.875 10.375ZM13 7H14H13ZM8.25 7C8.25 7.69036 7.69036 8.25 7 8.25V10.25C8.79493 10.25 10.25 8.79493 10.25 7H8.25ZM7 8.25C6.30964 8.25 5.75 7.69036 5.75 7H3.75C3.75 8.79493 5.20507 10.25 7 10.25V8.25ZM5.75 7C5.75 6.30964 6.30964 5.75 7 5.75V3.75C5.20507 3.75 3.75 5.20507 3.75 7H5.75ZM7 5.75C7.69036 5.75 8.25 6.30964 8.25 7H10.25C10.25 5.20507 8.79493 3.75 7 3.75V5.75ZM7 0C5.14348 0 3.36301 0.737498 2.05025 2.05025L3.46447 3.46447C4.40215 2.52678 5.67392 2 7 2V0ZM2.05025 2.05025C0.737498 3.36301 0 5.14348 0 7H2C2 5.67392 2.52678 4.40215 3.46447 3.46447L2.05025 2.05025ZM0 7C0 7.78011 0.0827379 8.48001 0.304476 9.14895C0.527692 9.82235 0.875187 10.4146 1.34469 11.0004L2.90531 9.74961C2.55131 9.30792 2.33631 8.92215 2.2029 8.51967C2.06801 8.11274 2 7.63889 2 7H0ZM1.36931 11.0299L6.24431 16.6549L7.75569 15.3451L2.88069 9.72007L1.36931 11.0299ZM7.75569 16.6549L12.6307 11.0299L11.1193 9.72007L6.24431 15.3451L7.75569 16.6549ZM12.6553 11.0004C13.1248 10.4146 13.4723 9.82235 13.6955 9.14895C13.9173 8.48001 14 7.78011 14 7H12C12 7.63889 11.932 8.11274 11.7971 8.51967C11.6637 8.92215 11.4487 9.30792 11.0947 9.74961L12.6553 11.0004ZM14 7C14 5.14348 13.2625 3.36301 11.9497 2.05025L10.5355 3.46447C11.4732 4.40215 12 5.67392 12 7H14ZM11.9497 2.05025C10.637 0.737498 8.85652 0 7 0V2C8.32608 2 9.59785 2.52678 10.5355 3.46447L11.9497 2.05025Z" fill="currentColor"/>
</svg>
