<svg width="130" height="67" viewBox="0 0 130 67" fill="none" xmlns="http://www.w3.org/2000/svg">
<path d="M43.5479 26.2982C43.0509 25.3733 41.7502 25.2261 41.017 25.9889L40.9955 26.0099C40.5322 26.4634 40.4187 27.16 40.7255 27.7246C41.1765 28.5504 41.4311 29.4964 41.4311 30.4934C41.4311 33.7577 38.7191 36.4153 35.3783 36.4153C34.5776 36.4153 33.8137 36.2622 33.1173 35.9829C33.0682 35.9649 33.0191 35.9439 32.97 35.9229C31.5742 35.3313 29.9697 35.8388 29.1322 37.082C29.1261 37.091 29.1199 37.1 29.1138 37.112C27.7455 39.1211 25.414 40.4454 22.7695 40.4454C20.573 40.4454 18.5881 39.5325 17.1984 38.07C17.0327 37.8958 16.8762 37.7156 16.729 37.5265C15.962 36.5505 14.6245 36.2201 13.474 36.7246C13.2501 36.8237 13.02 36.9138 12.7838 36.9889C11.8511 37.2982 10.8326 37.4183 9.78344 37.3222C6.26464 37.0039 3.44225 34.1721 3.19069 30.7186C2.97287 27.7036 4.67858 25.0429 7.2218 23.7997C7.67891 23.5745 8.16056 23.3973 8.66368 23.2711C9.65459 23.0189 10.3909 22.2381 10.6578 21.2711C10.7805 20.8177 10.9461 20.3792 11.1517 19.9618C12.434 17.3072 15.1951 15.4693 18.3856 15.4693C19.9655 15.4693 21.4412 15.9198 22.6836 16.6975C23.3095 17.0879 24.1347 16.9738 24.6501 16.4513C25.3496 15.7396 25.1993 14.5864 24.3495 14.0579C22.6254 12.9858 20.5791 12.3672 18.3856 12.3672C13.2777 12.3672 8.96126 15.7396 7.63289 20.3252C2.9882 21.6135 -0.35879 25.9649 0.0308233 30.9979C0.420437 36.034 4.59268 40.091 9.74048 40.4394C11.4124 40.5505 13.0077 40.2802 14.4435 39.7006C16.4222 42.052 19.4195 43.5565 22.7695 43.5565C26.5245 43.5565 29.8378 41.6676 31.7705 38.8088C33.056 39.3433 34.4886 39.6015 35.9919 39.5054C40.6488 39.2111 44.3946 35.4604 44.5971 30.8958C44.6707 29.2321 44.2842 27.6615 43.5479 26.2982Z" fill="url(#paint0_linear_3033_58993)"/>
<path d="M12.0536 42.3242C9.40605 42.3242 7.25244 44.4353 7.25244 47.0269C7.25244 49.6185 9.40605 51.7296 12.0536 51.7296C14.7042 51.7296 16.8578 49.6185 16.8578 47.0269C16.8578 44.4353 14.7042 42.3242 12.0536 42.3242ZM12.0536 48.6215C11.1547 48.6215 10.4246 47.9068 10.4246 47.0269C10.4246 46.1471 11.1547 45.4293 12.0536 45.4293C12.9525 45.4293 13.6857 46.1471 13.6857 47.0269C13.6857 47.9068 12.9525 48.6215 12.0536 48.6215Z" fill="url(#paint1_linear_3033_58993)"/>
<path d="M38.9373 23.6756C39.4321 23.6756 39.8331 23.283 39.8331 22.7987C39.8331 22.3145 39.4321 21.9219 38.9373 21.9219C38.4426 21.9219 38.0415 22.3145 38.0415 22.7987C38.0415 23.283 38.4426 23.6756 38.9373 23.6756Z" fill="#D588F2"/>
<path d="M30.1184 5.60308C30.5758 5.60308 30.9467 5.24006 30.9467 4.79226C30.9467 4.34446 30.5758 3.98145 30.1184 3.98145C29.6609 3.98145 29.29 4.34446 29.29 4.79226C29.29 5.24006 29.6609 5.60308 30.1184 5.60308Z" fill="#9CD4F7"/>
<path d="M48.1225 7.123C48.6071 7.123 48.9999 6.73848 48.9999 6.26414C48.9999 5.7898 48.6071 5.40527 48.1225 5.40527C47.6379 5.40527 47.2451 5.7898 47.2451 6.26414C47.2451 6.73848 47.6379 7.123 48.1225 7.123Z" fill="#D588F2"/>
<path d="M31.2515 20.3961C33.222 20.3961 34.8193 18.8325 34.8193 16.9036C34.8193 14.9748 33.222 13.4111 31.2515 13.4111C29.281 13.4111 27.6836 14.9748 27.6836 16.9036C27.6836 18.8325 29.281 20.3961 31.2515 20.3961Z" fill="#9CD4F7"/>
<path d="M42.6694 11.7661C43.5318 11.7661 44.231 11.0817 44.231 10.2375C44.231 9.39334 43.5318 8.70898 42.6694 8.70898C41.807 8.70898 41.1079 9.39334 41.1079 10.2375C41.1079 11.0817 41.807 11.7661 42.6694 11.7661Z" fill="#9CD4F7"/>
<path d="M35.9511 9.549C36.6864 9.549 37.2825 8.9655 37.2825 8.2457C37.2825 7.5259 36.6864 6.94238 35.9511 6.94238C35.2157 6.94238 34.6196 7.5259 34.6196 8.2457C34.6196 8.9655 35.2157 9.549 35.9511 9.549Z" fill="#D588F2"/>
<path d="M39.4061 2.07207C39.9906 2.07207 40.4645 1.60822 40.4645 1.03603C40.4645 0.463836 39.9906 0 39.4061 0C38.8215 0 38.3477 0.463836 38.3477 1.03603C38.3477 1.60822 38.8215 2.07207 39.4061 2.07207Z" fill="#9CD4F7"/>
<path d="M26.0817 11.679C26.8747 11.679 27.5175 11.0498 27.5175 10.2736C27.5175 9.49739 26.8747 8.86816 26.0817 8.86816C25.2888 8.86816 24.646 9.49739 24.646 10.2736C24.646 11.0498 25.2888 11.679 26.0817 11.679Z" fill="#D588F2"/>
<path d="M43.4462 20.0573C44.8643 20.0573 46.014 18.932 46.014 17.5438C46.014 16.1556 44.8643 15.0303 43.4462 15.0303C42.028 15.0303 40.8784 16.1556 40.8784 17.5438C40.8784 18.932 42.028 20.0573 43.4462 20.0573Z" fill="#D588F2"/>
<path d="M6.48953 54.9522C7.1215 54.9522 7.63689 55.4567 7.63689 56.0753C7.63689 56.6939 7.1215 57.1985 6.48953 57.1985C5.85756 57.1985 5.34216 56.6939 5.34216 56.0753C5.34523 55.4537 5.85756 54.9522 6.48953 54.9522ZM6.48953 53.1504C4.83904 53.1504 3.50146 54.4597 3.50146 56.0753C3.50146 57.6909 4.83904 59.0003 6.48953 59.0003C8.14002 59.0003 9.47759 57.6909 9.47759 56.0753C9.47759 54.4597 8.14002 53.1504 6.48953 53.1504Z" fill="url(#paint2_linear_3033_58993)"/>
<path d="M64.448 47.402C64.188 47.402 63.928 47.532 63.85 47.792L60.288 58.868L56.05 47.844C55.946 47.558 55.712 47.402 55.426 47.402C55.14 47.402 54.906 47.558 54.802 47.844L50.616 58.868L47.002 47.792C46.924 47.584 46.664 47.402 46.404 47.402C46.066 47.402 45.78 47.688 45.78 48.026C45.78 48.13 45.806 48.208 45.832 48.286L49.94 60.558C50.044 60.844 50.278 61.052 50.538 61.052C50.824 61.052 51.032 60.844 51.136 60.558L55.426 49.534L59.742 60.558C59.846 60.844 60.08 61.052 60.34 61.052C60.626 61.052 60.834 60.844 60.938 60.558L65.02 48.286C65.046 48.208 65.072 48.13 65.072 48.026C65.072 47.688 64.786 47.402 64.448 47.402ZM72.6506 47.324C69.6866 47.324 66.0986 49.612 66.0986 54.24C66.0986 58.894 69.5826 61.13 72.8326 61.13C74.4706 61.13 76.1346 60.61 77.2526 59.544C77.5646 59.232 77.6426 59.076 77.6426 58.868C77.6426 58.556 77.4346 58.322 77.0966 58.322C76.9146 58.322 76.7586 58.426 76.4466 58.712C75.5366 59.544 74.1846 59.986 72.8326 59.986C70.3626 59.986 67.6066 58.348 67.4246 54.786H78.2666C78.8126 54.786 79.1246 54.474 79.1246 53.98C79.1246 49.638 75.6146 47.324 72.6506 47.324ZM67.4246 53.642C67.6586 50.132 70.3886 48.494 72.6506 48.494C74.9126 48.494 77.6686 50.132 77.8766 53.642H67.4246ZM93.9001 60.74V57.906H93.8741V48.078C93.8741 47.714 93.6141 47.402 93.2241 47.402C92.8601 47.402 92.5741 47.714 92.5741 48.078V50.418C91.5601 48.312 89.4801 47.324 87.4261 47.324C84.5141 47.324 80.9521 49.612 80.9521 54.24C80.9521 58.894 84.5141 61.182 87.4261 61.182C89.4801 61.182 91.5341 60.116 92.5741 57.906V60.48C92.5741 60.532 92.5741 60.61 92.6001 60.662V60.74C92.6001 63.912 90.2081 65.16 87.6081 65.16C86.4121 65.16 85.2421 64.874 84.5661 64.458C84.4101 64.38 84.2281 64.302 84.0461 64.302C83.7341 64.302 83.5001 64.562 83.5001 64.848C83.5001 65.108 83.6561 65.29 83.8381 65.394C84.4621 65.784 85.7621 66.33 87.5561 66.33C90.3121 66.33 93.9001 65.056 93.9001 60.74ZM82.2521 54.24C82.2521 50.314 85.1641 48.494 87.5041 48.494C89.9221 48.494 92.6521 50.262 92.6521 54.24C92.6521 58.114 89.9221 60.012 87.5041 60.012C85.1641 60.012 82.2521 58.192 82.2521 54.24ZM98.3112 60.454V43.086C98.3112 42.748 98.0252 42.436 97.6612 42.436C97.2972 42.436 97.0112 42.748 97.0112 43.086V60.454C97.0112 60.792 97.2972 61.13 97.6612 61.13C98.0252 61.13 98.3112 60.792 98.3112 60.454ZM107.565 47.324C104.549 47.324 100.909 49.612 100.909 54.24C100.909 58.894 104.549 61.182 107.565 61.182C110.581 61.182 114.221 58.894 114.221 54.24C114.221 49.612 110.581 47.324 107.565 47.324ZM102.209 54.24C102.209 50.314 105.173 48.494 107.565 48.494C109.957 48.494 112.921 50.314 112.921 54.24C112.921 58.192 109.957 60.012 107.565 60.012C105.173 60.012 102.209 58.192 102.209 54.24ZM122.698 47.324C119.682 47.324 116.042 49.612 116.042 54.24C116.042 58.894 119.682 61.182 122.698 61.182C125.714 61.182 129.354 58.894 129.354 54.24C129.354 49.612 125.714 47.324 122.698 47.324ZM117.342 54.24C117.342 50.314 120.306 48.494 122.698 48.494C125.09 48.494 128.054 50.314 128.054 54.24C128.054 58.192 125.09 60.012 122.698 60.012C120.306 60.012 117.342 58.192 117.342 54.24Z" fill="black"/>
<defs>
<linearGradient id="paint0_linear_3033_58993" x1="-16.9693" y1="25.5729" x2="36.594" y2="29.1253" gradientUnits="userSpaceOnUse">
<stop offset="0.00558659" stop-color="#D588F2"/>
<stop offset="0.2062" stop-color="#D18EF2"/>
<stop offset="0.4677" stop-color="#C49EF3"/>
<stop offset="0.7615" stop-color="#B0B9F5"/>
<stop offset="1" stop-color="#9CD4F7"/>
</linearGradient>
<linearGradient id="paint1_linear_3033_58993" x1="-18.26" y1="45.1011" x2="35.2959" y2="48.653" gradientUnits="userSpaceOnUse">
<stop stop-color="#D588F2"/>
<stop offset="0.2018" stop-color="#D18EF2"/>
<stop offset="0.4647" stop-color="#C49EF3"/>
<stop offset="0.7602" stop-color="#B0B9F5"/>
<stop offset="1" stop-color="#9CD4F7"/>
</linearGradient>
<linearGradient id="paint2_linear_3033_58993" x1="-19.4257" y1="54.2235" x2="24.4403" y2="57.4908" gradientUnits="userSpaceOnUse">
<stop offset="0.00558659" stop-color="#D588F2"/>
<stop offset="0.2062" stop-color="#D18EF2"/>
<stop offset="0.4677" stop-color="#C49EF3"/>
<stop offset="0.7615" stop-color="#B0B9F5"/>
<stop offset="1" stop-color="#9CD4F7"/>
</linearGradient>
</defs>
</svg>
