<svg width="140" height="140" viewBox="0 0 140 140" fill="none" xmlns="http://www.w3.org/2000/svg">
<path d="M34.5246 112.126C34.1446 112.126 33.7646 112.316 33.6506 112.696L28.4446 128.884L22.2506 112.772C22.0986 112.354 21.7566 112.126 21.3386 112.126C20.9206 112.126 20.5786 112.354 20.4266 112.772L14.3086 128.884L9.02659 112.696C8.91259 112.392 8.53259 112.126 8.15259 112.126C7.65859 112.126 7.24059 112.544 7.24059 113.038C7.24059 113.19 7.27859 113.304 7.31659 113.418L13.3206 131.354C13.4726 131.772 13.8146 132.076 14.1946 132.076C14.6126 132.076 14.9166 131.772 15.0686 131.354L21.3386 115.242L27.6466 131.354C27.7986 131.772 28.1406 132.076 28.5206 132.076C28.9386 132.076 29.2426 131.772 29.3946 131.354L35.3606 113.418C35.3986 113.304 35.4366 113.19 35.4366 113.038C35.4366 112.544 35.0186 112.126 34.5246 112.126ZM46.513 112.012C42.181 112.012 36.937 115.356 36.937 122.12C36.937 128.922 42.029 132.19 46.779 132.19C49.173 132.19 51.605 131.43 53.239 129.872C53.695 129.416 53.809 129.188 53.809 128.884C53.809 128.428 53.505 128.086 53.011 128.086C52.745 128.086 52.517 128.238 52.061 128.656C50.731 129.872 48.755 130.518 46.779 130.518C43.169 130.518 39.141 128.124 38.875 122.918H54.721C55.519 122.918 55.975 122.462 55.975 121.74C55.975 115.394 50.845 112.012 46.513 112.012ZM38.875 121.246C39.217 116.116 43.207 113.722 46.513 113.722C49.819 113.722 53.847 116.116 54.151 121.246H38.875ZM77.57 131.62V127.478H77.532V113.114C77.532 112.582 77.152 112.126 76.582 112.126C76.05 112.126 75.632 112.582 75.632 113.114V116.534C74.15 113.456 71.11 112.012 68.108 112.012C63.852 112.012 58.646 115.356 58.646 122.12C58.646 128.922 63.852 132.266 68.108 132.266C71.11 132.266 74.112 130.708 75.632 127.478V131.24C75.632 131.316 75.632 131.43 75.67 131.506V131.62C75.67 136.256 72.174 138.08 68.374 138.08C66.626 138.08 64.916 137.662 63.928 137.054C63.7 136.94 63.434 136.826 63.168 136.826C62.712 136.826 62.37 137.206 62.37 137.624C62.37 138.004 62.598 138.27 62.864 138.422C63.776 138.992 65.676 139.79 68.298 139.79C72.326 139.79 77.57 137.928 77.57 131.62ZM60.546 122.12C60.546 116.382 64.802 113.722 68.222 113.722C71.756 113.722 75.746 116.306 75.746 122.12C75.746 127.782 71.756 130.556 68.222 130.556C64.802 130.556 60.546 127.896 60.546 122.12ZM84.0169 131.202V105.818C84.0169 105.324 83.5989 104.868 83.0669 104.868C82.5349 104.868 82.1169 105.324 82.1169 105.818V131.202C82.1169 131.696 82.5349 132.19 83.0669 132.19C83.5989 132.19 84.0169 131.696 84.0169 131.202ZM97.5419 112.012C93.1339 112.012 87.8139 115.356 87.8139 122.12C87.8139 128.922 93.1339 132.266 97.5419 132.266C101.95 132.266 107.27 128.922 107.27 122.12C107.27 115.356 101.95 112.012 97.5419 112.012ZM89.7139 122.12C89.7139 116.382 94.0459 113.722 97.5419 113.722C101.038 113.722 105.37 116.382 105.37 122.12C105.37 127.896 101.038 130.556 97.5419 130.556C94.0459 130.556 89.7139 127.896 89.7139 122.12ZM119.659 112.012C115.251 112.012 109.931 115.356 109.931 122.12C109.931 128.922 115.251 132.266 119.659 132.266C124.067 132.266 129.387 128.922 129.387 122.12C129.387 115.356 124.067 112.012 119.659 112.012ZM111.831 122.12C111.831 116.382 116.163 113.722 119.659 113.722C123.155 113.722 127.487 116.382 127.487 122.12C127.487 127.896 123.155 130.556 119.659 130.556C116.163 130.556 111.831 127.896 111.831 122.12Z" fill="#282B33"/>
<path d="M99.5437 41.0071C98.7729 39.5648 96.7553 39.3354 95.6181 40.5248L95.5848 40.5576C94.8663 41.2646 94.6903 42.351 95.1661 43.2314C95.8656 44.5191 96.2605 45.9941 96.2605 47.5488C96.2605 52.6388 92.0542 56.783 86.8724 56.783C85.6305 56.783 84.4457 56.5442 83.3656 56.1087C83.2895 56.0806 83.2133 56.0478 83.1372 56.0151C80.9722 55.0926 78.4836 55.8839 77.1846 57.8226C77.1751 57.8366 77.1656 57.8506 77.1561 57.8694C75.0339 61.0021 71.4176 63.0671 67.316 63.0671C63.9091 63.0671 60.8305 61.6436 58.675 59.3631C58.4181 59.0915 58.1754 58.8106 57.947 58.5156C56.7574 56.9937 54.6828 56.4786 52.8985 57.2653C52.5511 57.4198 52.1943 57.5603 51.8279 57.6774C50.3814 58.1597 48.8016 58.347 47.1743 58.1971C41.7166 57.7008 37.339 53.285 36.9488 47.9C36.611 43.1986 39.2566 39.0498 43.2012 37.1111C43.9101 36.7599 44.6572 36.4836 45.4375 36.2869C46.9745 35.8936 48.1164 34.6761 48.5304 33.1683C48.7207 32.4612 48.9777 31.7776 49.2965 31.1267C51.2854 26.9872 55.5679 24.1214 60.5165 24.1214C62.967 24.1214 65.2557 24.8238 67.1828 26.0366C68.1535 26.6454 69.4334 26.4674 70.2328 25.6526C71.3177 24.5428 71.0846 22.7447 69.7665 21.9205C67.0924 20.2488 63.9186 19.2842 60.5165 19.2842C52.594 19.2842 45.8991 24.5428 43.8388 31.6933C36.6348 33.7021 31.4435 40.4873 32.0478 48.3355C32.6521 56.1883 39.1233 62.5146 47.1077 63.0578C49.7009 63.231 52.1752 62.8096 54.4021 61.9058C57.4712 65.5724 62.12 67.9184 67.316 67.9184C73.1401 67.9184 78.279 64.973 81.2767 60.5151C83.2705 61.3486 85.4925 61.7513 87.8241 61.6014C95.0471 61.1425 100.857 55.2939 101.171 48.1763C101.285 45.5821 100.686 43.133 99.5437 41.0071Z" fill="url(#paint0_linear_2363_52282)"/>
<path d="M50.6957 65.9971C46.5893 65.9971 43.249 69.289 43.249 73.3301C43.249 77.3713 46.5893 80.6632 50.6957 80.6632C54.8068 80.6632 58.1471 77.3713 58.1471 73.3301C58.1471 69.289 54.8068 65.9971 50.6957 65.9971ZM50.6957 75.8166C49.3015 75.8166 48.1691 74.7022 48.1691 73.3301C48.1691 71.9581 49.3015 70.8389 50.6957 70.8389C52.0899 70.8389 53.2271 71.9581 53.2271 73.3301C53.2271 74.7022 52.0899 75.8166 50.6957 75.8166Z" fill="url(#paint1_linear_2363_52282)"/>
<path d="M92.3924 36.9173C93.1597 36.9173 93.7818 36.3051 93.7818 35.5499C93.7818 34.7948 93.1597 34.1826 92.3924 34.1826C91.625 34.1826 91.0029 34.7948 91.0029 35.5499C91.0029 36.3051 91.625 36.9173 92.3924 36.9173Z" fill="#D588F2"/>
<path d="M78.7144 8.73764C79.424 8.73764 79.9992 8.17157 79.9992 7.47331C79.9992 6.77505 79.424 6.20898 78.7144 6.20898C78.0049 6.20898 77.4297 6.77505 77.4297 7.47331C77.4297 8.17157 78.0049 8.73764 78.7144 8.73764Z" fill="#9CD4F7"/>
<path d="M106.639 11.1072C107.391 11.1072 108 10.5076 108 9.76795C108 9.0283 107.391 8.42871 106.639 8.42871C105.888 8.42871 105.278 9.0283 105.278 9.76795C105.278 10.5076 105.888 11.1072 106.639 11.1072Z" fill="#D588F2"/>
<path d="M80.4718 31.805C83.5281 31.805 86.0057 29.3667 86.0057 26.359C86.0057 23.3513 83.5281 20.9131 80.4718 20.9131C77.4156 20.9131 74.938 23.3513 74.938 26.359C74.938 29.3667 77.4156 31.805 80.4718 31.805Z" fill="#9CD4F7"/>
<path d="M98.1812 18.347C99.5188 18.347 100.603 17.2799 100.603 15.9636C100.603 14.6472 99.5188 13.5801 98.1812 13.5801C96.8436 13.5801 95.7593 14.6472 95.7593 15.9636C95.7593 17.2799 96.8436 18.347 98.1812 18.347Z" fill="#9CD4F7"/>
<path d="M87.7604 14.8907C88.9009 14.8907 89.8255 13.9809 89.8255 12.8585C89.8255 11.7361 88.9009 10.8262 87.7604 10.8262C86.6199 10.8262 85.6953 11.7361 85.6953 12.8585C85.6953 13.9809 86.6199 14.8907 87.7604 14.8907Z" fill="#D588F2"/>
<path d="M93.1196 3.23102C94.0263 3.23102 94.7612 2.50773 94.7612 1.6155C94.7612 0.72327 94.0263 0 93.1196 0C92.213 0 91.478 0.72327 91.478 1.6155C91.478 2.50773 92.213 3.23102 93.1196 3.23102Z" fill="#9CD4F7"/>
<path d="M72.4534 18.2111C73.6833 18.2111 74.6803 17.2299 74.6803 16.0196C74.6803 14.8093 73.6833 13.8281 72.4534 13.8281C71.2236 13.8281 70.2266 14.8093 70.2266 16.0196C70.2266 17.2299 71.2236 18.2111 72.4534 18.2111Z" fill="#D588F2"/>
<path d="M99.386 31.2753C101.586 31.2753 103.369 29.5205 103.369 27.3559C103.369 25.1913 101.586 23.4365 99.386 23.4365C97.1864 23.4365 95.4033 25.1913 95.4033 27.3559C95.4033 29.5205 97.1864 31.2753 99.386 31.2753Z" fill="#D588F2"/>
<path d="M42.0652 85.6875C43.0454 85.6875 43.8448 86.4742 43.8448 87.4388C43.8448 88.4035 43.0454 89.1902 42.0652 89.1902C41.085 89.1902 40.2856 88.4035 40.2856 87.4388C40.2904 86.4695 41.085 85.6875 42.0652 85.6875ZM42.0652 82.8779C39.5053 82.8779 37.4307 84.9196 37.4307 87.4388C37.4307 89.9581 39.5053 91.9998 42.0652 91.9998C44.6252 91.9998 46.6998 89.9581 46.6998 87.4388C46.6998 84.9196 44.6252 82.8779 42.0652 82.8779Z" fill="url(#paint2_linear_2363_52282)"/>
<defs>
<linearGradient id="paint0_linear_2363_52282" x1="5.68021" y1="39.8762" x2="88.7619" y2="45.3569" gradientUnits="userSpaceOnUse">
<stop offset="0.00558659" stop-color="#D588F2"/>
<stop offset="0.2062" stop-color="#D18EF2"/>
<stop offset="0.4677" stop-color="#C49EF3"/>
<stop offset="0.7615" stop-color="#B0B9F5"/>
<stop offset="1" stop-color="#9CD4F7"/>
</linearGradient>
<linearGradient id="paint1_linear_2363_52282" x1="3.67878" y1="70.3272" x2="86.7488" y2="75.8072" gradientUnits="userSpaceOnUse">
<stop stop-color="#D588F2"/>
<stop offset="0.2018" stop-color="#D18EF2"/>
<stop offset="0.4647" stop-color="#C49EF3"/>
<stop offset="0.7602" stop-color="#B0B9F5"/>
<stop offset="1" stop-color="#9CD4F7"/>
</linearGradient>
<linearGradient id="paint2_linear_2363_52282" x1="1.87019" y1="84.5512" x2="69.9112" y2="89.5922" gradientUnits="userSpaceOnUse">
<stop offset="0.00558659" stop-color="#D588F2"/>
<stop offset="0.2062" stop-color="#D18EF2"/>
<stop offset="0.4677" stop-color="#C49EF3"/>
<stop offset="0.7615" stop-color="#B0B9F5"/>
<stop offset="1" stop-color="#9CD4F7"/>
</linearGradient>
</defs>
</svg>
