<svg width="29" height="35" viewBox="0 0 29 35" fill="none" xmlns="http://www.w3.org/2000/svg">
<path d="M25.7536 15.6001C25.4597 15.0514 24.6905 14.9641 24.2569 15.4166L24.2442 15.4291C23.9702 15.6981 23.9031 16.1114 24.0845 16.4463C24.3512 16.9362 24.5018 17.4973 24.5018 18.0888C24.5018 20.0252 22.898 21.6018 20.9222 21.6018C20.4487 21.6018 19.997 21.5109 19.5851 21.3452C19.5561 21.3346 19.5271 21.3221 19.498 21.3096C18.6725 20.9587 17.7237 21.2597 17.2284 21.9973C17.2248 22.0026 17.2211 22.0079 17.2175 22.0151C16.4083 23.2069 15.0295 23.9925 13.4656 23.9925C12.1666 23.9925 10.9927 23.4509 10.1709 22.5833C10.0729 22.48 9.98038 22.3731 9.8933 22.2609C9.43973 21.6819 8.64871 21.486 7.96836 21.7853C7.83592 21.844 7.69984 21.8975 7.56015 21.942C7.00861 22.1255 6.40627 22.1968 5.78579 22.1398C3.70482 21.9509 2.0357 20.271 1.88693 18.2224C1.75812 16.4338 2.76685 14.8555 4.27088 14.1179C4.5412 13.9843 4.82604 13.8792 5.12358 13.8044C5.70959 13.6547 6.14502 13.1916 6.30286 12.618C6.37543 12.349 6.4734 12.0889 6.59495 11.8412C7.35332 10.2665 8.98616 9.1762 10.873 9.1762C11.8074 9.1762 12.68 9.44343 13.4148 9.90482C13.7849 10.1364 14.2729 10.0687 14.5777 9.75874C14.9914 9.33654 14.9025 8.65246 14.3999 8.33892C13.3803 7.70295 12.1702 7.33597 10.873 7.33597C7.85225 7.33597 5.29957 9.33653 4.51399 12.0568C1.76718 12.821 -0.212184 15.4023 0.0182285 18.388C0.248641 21.3755 2.71605 23.7822 5.76039 23.9889C6.74917 24.0548 7.69259 23.8945 8.54167 23.5507C9.71187 24.9455 11.4844 25.838 13.4656 25.838C15.6863 25.838 17.6457 24.7175 18.7887 23.0216C19.5488 23.3387 20.3961 23.4919 21.2851 23.4349C24.0392 23.2603 26.2544 21.0353 26.3741 18.3275C26.4177 17.3406 26.1891 16.4089 25.7536 15.6001Z" fill="url(#paint0_linear_3926_679)"/>
<path d="M7.12889 25.1077C5.56317 25.1077 4.28956 26.36 4.28956 27.8974C4.28956 29.4348 5.56317 30.6872 7.12889 30.6872C8.69642 30.6872 9.97003 29.4348 9.97003 27.8974C9.97003 26.36 8.69642 25.1077 7.12889 25.1077ZM7.12889 28.8434C6.59731 28.8434 6.16551 28.4194 6.16551 27.8974C6.16551 27.3755 6.59731 26.9497 7.12889 26.9497C7.66047 26.9497 8.09408 27.3755 8.09408 27.8974C8.09408 28.4194 7.66047 28.8434 7.12889 28.8434Z" fill="url(#paint1_linear_3926_679)"/>
<path d="M23.027 14.0449C23.3195 14.0449 23.5567 13.812 23.5567 13.5247C23.5567 13.2374 23.3195 13.0045 23.027 13.0045C22.7344 13.0045 22.4972 13.2374 22.4972 13.5247C22.4972 13.812 22.7344 14.0449 23.027 14.0449Z" fill="#D588F2"/>
<path d="M17.8113 3.32414C18.0818 3.32414 18.3011 3.10879 18.3011 2.84314C18.3011 2.5775 18.0818 2.36215 17.8113 2.36215C17.5407 2.36215 17.3214 2.5775 17.3214 2.84314C17.3214 3.10879 17.5407 3.32414 17.8113 3.32414Z" fill="#9CD4F7"/>
<path d="M28.4588 4.22559C28.7454 4.22559 28.9777 3.99748 28.9777 3.71609C28.9777 3.43471 28.7454 3.2066 28.4588 3.2066C28.1722 3.2066 27.9399 3.43471 27.9399 3.71609C27.9399 3.99748 28.1722 4.22559 28.4588 4.22559Z" fill="#D588F2"/>
<path d="M18.4815 12.0996C19.6469 12.0996 20.5915 11.172 20.5915 10.0278C20.5915 8.88353 19.6469 7.95596 18.4815 7.95596C17.3162 7.95596 16.3715 8.88353 16.3715 10.0278C16.3715 11.172 17.3162 12.0996 18.4815 12.0996Z" fill="#9CD4F7"/>
<path d="M25.2346 6.9797C25.7446 6.9797 26.158 6.57373 26.158 6.07295C26.158 5.57216 25.7446 5.16619 25.2346 5.16619C24.7246 5.16619 24.3111 5.57216 24.3111 6.07295C24.3111 6.57373 24.7246 6.9797 25.2346 6.9797Z" fill="#9CD4F7"/>
<path d="M21.2612 5.665C21.6961 5.665 22.0486 5.31886 22.0486 4.89186C22.0486 4.46487 21.6961 4.11871 21.2612 4.11871C20.8264 4.11871 20.4739 4.46487 20.4739 4.89186C20.4739 5.31886 20.8264 5.665 21.2612 5.665Z" fill="#D588F2"/>
<path d="M23.3042 1.22919C23.6499 1.22919 23.9301 0.954022 23.9301 0.614589C23.9301 0.275156 23.6499 0 23.3042 0C22.9585 0 22.6783 0.275156 22.6783 0.614589C22.6783 0.954022 22.9585 1.22919 23.3042 1.22919Z" fill="#9CD4F7"/>
<path d="M15.4246 6.92803C15.8935 6.92803 16.2737 6.55477 16.2737 6.09432C16.2737 5.63387 15.8935 5.2606 15.4246 5.2606C14.9557 5.2606 14.5755 5.63387 14.5755 6.09432C14.5755 6.55477 14.9557 6.92803 15.4246 6.92803Z" fill="#D588F2"/>
<path d="M25.6938 11.8982C26.5325 11.8982 27.2124 11.2306 27.2124 10.4072C27.2124 9.58366 26.5325 8.91609 25.6938 8.91609C24.8552 8.91609 24.1753 9.58366 24.1753 10.4072C24.1753 11.2306 24.8552 11.8982 25.6938 11.8982Z" fill="#D588F2"/>
<path d="M3.8376 32.5986C4.21134 32.5986 4.51613 32.8979 4.51613 33.2649C4.51613 33.6319 4.21134 33.9311 3.8376 33.9311C3.46386 33.9311 3.15906 33.6319 3.15906 33.2649C3.16087 32.8961 3.46386 32.5986 3.8376 32.5986ZM3.8376 31.5298C2.86152 31.5298 2.0705 32.3065 2.0705 33.2649C2.0705 34.2233 2.86152 35 3.8376 35C4.81367 35 5.60469 34.2233 5.60469 33.2649C5.60469 32.3065 4.81367 31.5298 3.8376 31.5298Z" fill="url(#paint2_linear_3926_679)"/>
<defs>
<linearGradient id="paint0_linear_3926_679" x1="-11.0239" y1="14.8192" x2="23.8744" y2="16.1591" gradientUnits="userSpaceOnUse">
<stop offset="0.00558659" stop-color="#D588F2"/>
<stop offset="0.2062" stop-color="#D18EF2"/>
<stop offset="0.4677" stop-color="#C49EF3"/>
<stop offset="0.7615" stop-color="#B0B9F5"/>
<stop offset="1" stop-color="#9CD4F7"/>
</linearGradient>
<linearGradient id="paint1_linear_3926_679" x1="-76.9664" y1="10.3336" x2="84.8449" y2="19.0337" gradientUnits="userSpaceOnUse">
<stop stop-color="#D588F2"/>
<stop offset="0.2018" stop-color="#D18EF2"/>
<stop offset="0.4647" stop-color="#C49EF3"/>
<stop offset="0.7602" stop-color="#B0B9F5"/>
<stop offset="1" stop-color="#9CD4F7"/>
</linearGradient>
<linearGradient id="paint2_linear_3926_679" x1="-111.172" y1="6.42038" x2="101.934" y2="19.2844" gradientUnits="userSpaceOnUse">
<stop offset="0.00558659" stop-color="#D588F2"/>
<stop offset="0.2062" stop-color="#D18EF2"/>
<stop offset="0.4677" stop-color="#C49EF3"/>
<stop offset="0.7615" stop-color="#B0B9F5"/>
<stop offset="1" stop-color="#9CD4F7"/>
</linearGradient>
</defs>
</svg>
