<svg width="20" height="16" viewBox="0 0 20 16" color="none" xmlns="http://www.w3.org/2000/svg">
<path fill-rule="evenodd" clip-rule="evenodd" d="M0.803786 4.34927C0.523642 6.95216 0.53613 9.95415 0.925953 12.5465C1.14165 13.9809 2.31232 15.0805 3.75739 15.2061L5.26762 15.3374C8.41667 15.6112 11.5835 15.6112 14.7326 15.3374L16.2428 15.2061C17.6879 15.0805 18.8585 13.9809 19.0742 12.5465C19.4641 9.95414 19.4766 6.95233 19.1964 4.34942C19.1602 4.04766 19.1195 3.74631 19.0742 3.44546C18.8585 2.01107 17.6879 0.911423 16.2428 0.785806L14.7326 0.654524C11.5835 0.380784 8.41667 0.380784 5.26762 0.654524L3.75739 0.785806C2.31232 0.911423 1.14165 2.01107 0.925953 3.44546C0.880721 3.74626 0.839998 4.04756 0.803786 4.34927ZM5.39752 2.14889C8.46013 1.88266 11.5401 1.88266 14.6027 2.14889L16.1129 2.28017C16.8672 2.34574 17.4783 2.91976 17.5909 3.66851C17.6026 3.74627 17.614 3.82407 17.6251 3.90189L12.064 6.99134C10.7805 7.70445 9.21968 7.70445 7.93608 6.99134L2.37514 3.90193C2.3862 3.82409 2.39758 3.74628 2.40928 3.66851C2.52187 2.91976 3.13296 2.34574 3.88729 2.28017L5.39752 2.14889ZM17.8086 5.51586C18.0026 7.78361 17.93 10.0685 17.5909 12.3234C17.4783 13.0722 16.8672 13.6462 16.1129 13.7118L14.6027 13.843C11.5401 14.1093 8.46013 14.1093 5.39753 13.843L3.88729 13.7118C3.13296 13.6462 2.52187 13.0722 2.40928 12.3234C2.07019 10.0685 1.99763 7.78363 2.19159 5.5159L7.20762 8.30257C8.94425 9.26737 11.0559 9.26737 12.7925 8.30258L17.8086 5.51586Z" fill="currentColor"/>
</svg>
