<svg width="4" height="18" viewBox="0 0 4 18" color="black" xmlns="http://www.w3.org/2000/svg">
<path d="M2 14.9C2.87928 14.9 3.5 15.5303 3.5 16.2C3.5 16.8697 2.87928 17.5 2 17.5C1.12072 17.5 0.5 16.8697 0.5 16.2C0.5 15.5303 1.12072 14.9 2 14.9ZM2 7.7C2.87928 7.7 3.5 8.33028 3.5 9C3.5 9.66972 2.87928 10.3 2 10.3C1.12072 10.3 0.5 9.66972 0.5 9C0.5 8.33028 1.12072 7.7 2 7.7ZM2 0.5C2.87928 0.5 3.5 1.13028 3.5 1.8C3.5 2.46972 2.87928 3.1 2 3.1C1.12072 3.1 0.5 2.46972 0.5 1.8C0.5 1.13028 1.12072 0.5 2 0.5Z" fill="currentColor" stroke="black"/>
</svg>
