<svg width="22" height="22" viewBox="0 0 18 20" fill="none" xmlns="http://www.w3.org/2000/svg">
<path d="M13.0841 7.20145C14.3723 8.12179 15.9503 8.66331 17.6547 8.66331V5.38538C17.3321 5.38545 17.0104 5.35179 16.6948 5.28497V7.86517C14.9906 7.86517 13.4128 7.32372 12.1243 6.40345V13.0928C12.1243 16.4392 9.41014 19.1518 6.06228 19.1518C4.8131 19.1518 3.652 18.7743 2.68752 18.127C3.78834 19.252 5.32352 19.9499 7.02186 19.9499C10.37 19.9499 13.0843 17.2373 13.0843 13.8908L13.0841 7.20145ZM14.2683 3.89441C13.6099 3.17559 13.1777 2.24662 13.0841 1.21959V0.798H12.1746C12.4035 2.10331 13.1846 3.21848 14.2683 3.89441ZM4.80503 15.5591C4.43723 15.0771 4.23842 14.4874 4.23931 13.8812C4.23931 12.3507 5.48076 11.1097 7.01241 11.1097C7.29781 11.1096 7.58152 11.1534 7.85359 11.2396V7.88835C7.53566 7.84483 7.21483 7.82628 6.89414 7.8331V10.4415C6.62195 10.3552 6.33808 10.3115 6.05255 10.3117C4.52097 10.3117 3.27959 11.5526 3.27959 13.0832C3.27959 14.1656 3.90007 15.1026 4.80503 15.5591Z" fill="#FF004F"/>
<path d="M12.1243 6.40345C13.4128 7.32372 14.9906 7.86517 16.6948 7.86517V5.28497C15.7435 5.08241 14.9014 4.58552 14.2683 3.89441C13.1846 3.21848 12.4035 2.10331 12.1746 0.798H9.78538V13.8906C9.77993 15.417 8.54062 16.6528 7.01228 16.6528C6.11172 16.6528 5.31172 16.2239 4.80503 15.5591C3.90007 15.1026 3.27959 14.1656 3.27959 13.0832C3.27959 11.5526 4.52097 10.3117 6.05255 10.3117C6.346 10.3117 6.62883 10.3574 6.89414 10.4415V7.8331C3.60503 7.90104 0.959793 10.5872 0.959793 13.8907C0.959793 15.5398 1.61841 17.0346 2.68752 18.127C3.652 18.7743 4.8131 19.1518 6.06228 19.1518C9.41014 19.1518 12.1243 16.4392 12.1243 13.0928V6.40345Z" fill="black"/>
<path d="M16.6948 5.28497V4.58731C15.837 4.58861 14.9961 4.34849 14.2683 3.89441C14.9126 4.59939 15.7609 5.08554 16.6948 5.28497ZM12.1746 0.798C12.1527 0.673283 12.1359 0.547663 12.1243 0.421586V0H8.82538V13.0928C8.82014 14.619 7.58083 15.8548 6.05241 15.8548C5.61912 15.8555 5.19196 15.7541 4.80503 15.5591C5.31172 16.2239 6.11172 16.6528 7.01228 16.6528C8.54062 16.6528 9.77993 15.417 9.78538 13.8906V0.798H12.1746ZM6.89414 7.8331L6.89421 7.09041C6.61855 7.05273 6.34064 7.03389 6.06241 7.034C2.71414 7.034 0 9.74669 0 13.0928C0 15.1906 1.06655 17.0395 2.68752 18.127C1.61841 17.0346 0.959793 15.5398 0.959793 13.8907C0.959793 10.5872 3.60503 7.90104 6.89414 7.8331Z" fill="#00F2EA"/>
</svg>
