<svg width="18" height="23" viewBox="0 0 18 23" fill="none" xmlns="http://www.w3.org/2000/svg">
<path d="M15.75 12.4466V8.90632C15.7484 7.32892 15.1827 5.80299 14.1532 4.59875C13.1237 3.39451 11.6967 2.58967 10.125 2.32678V1.11329C10.125 0.818027 10.0065 0.534857 9.7955 0.326075C9.58452 0.117293 9.29837 0 9 0C8.70163 0 8.41548 0.117293 8.2045 0.326075C7.99353 0.534857 7.875 0.818027 7.875 1.11329V2.32678C6.30331 2.58967 4.87634 3.39451 3.84681 4.59875C2.81728 5.80299 2.25162 7.32892 2.25 8.90632V12.4466C1.59351 12.6763 1.02487 13.1013 0.622056 13.6633C0.219238 14.2254 0.00195695 14.897 0 15.5861V17.8126C0 18.1079 0.118527 18.3911 0.329505 18.5999C0.540483 18.8086 0.826631 18.9259 1.125 18.9259H4.6575C4.91657 19.8693 5.48213 20.7021 6.26692 21.2958C7.05172 21.8896 8.01213 22.2112 9 22.2112C9.98787 22.2112 10.9483 21.8896 11.7331 21.2958C12.5179 20.7021 13.0834 19.8693 13.3425 18.9259H16.875C17.1734 18.9259 17.4595 18.8086 17.6705 18.5999C17.8815 18.3911 18 18.1079 18 17.8126V15.5861C17.998 14.897 17.7808 14.2254 17.3779 13.6633C16.9751 13.1013 16.4065 12.6763 15.75 12.4466ZM4.5 8.90632C4.5 7.72527 4.97411 6.59259 5.81802 5.75746C6.66193 4.92233 7.80653 4.45316 9 4.45316C10.1935 4.45316 11.3381 4.92233 12.182 5.75746C13.0259 6.59259 13.5 7.72527 13.5 8.90632V12.2462H4.5V8.90632ZM9 20.0392C8.60734 20.0369 8.22215 19.9329 7.88269 19.7376C7.54323 19.5423 7.26132 19.2624 7.065 18.9259H10.935C10.7387 19.2624 10.4568 19.5423 10.1173 19.7376C9.77785 19.9329 9.39266 20.0369 9 20.0392ZM15.75 16.6993H2.25V15.5861C2.25 15.2908 2.36853 15.0076 2.5795 14.7988C2.79048 14.5901 3.07663 14.4728 3.375 14.4728H14.625C14.9234 14.4728 15.2095 14.5901 15.4205 14.7988C15.6315 15.0076 15.75 15.2908 15.75 15.5861V16.6993Z" fill="#636472"/>
</svg>
