<svg width="20" height="21" viewBox="0 0 20 21" fill="none" xmlns="http://www.w3.org/2000/svg">
<path d="M8.33325 11.5288C8.69113 12.0072 9.14772 12.4031 9.67204 12.6896C10.1964 12.976 10.7762 13.1464 11.3721 13.1891C11.9681 13.2317 12.5662 13.1458 13.126 12.9369C13.6858 12.7281 14.1942 12.4013 14.6166 11.9788L17.1166 9.47878C17.8756 8.69294 18.2956 7.64043 18.2861 6.54794C18.2766 5.45545 17.8384 4.4104 17.0658 3.63787C16.2933 2.86534 15.2482 2.42713 14.1558 2.41764C13.0633 2.40814 12.0108 2.82812 11.2249 3.58711L9.79159 5.01211" stroke="#282B33" stroke-width="2" stroke-linecap="round" stroke-linejoin="round"/>
<path d="M11.6666 9.86184C11.3087 9.3834 10.8521 8.98752 10.3278 8.70106C9.80347 8.41459 9.22367 8.24424 8.62771 8.20156C8.03176 8.15888 7.4336 8.24487 6.8738 8.45369C6.314 8.66251 5.80566 8.98928 5.38326 9.41184L2.88326 11.9118C2.12426 12.6977 1.70429 13.7502 1.71378 14.8427C1.72327 15.9352 2.16148 16.9802 2.93401 17.7528C3.70655 18.5253 4.7516 18.9635 5.84408 18.973C6.93657 18.9825 7.98908 18.5625 8.77492 17.8035L10.1999 16.3785" stroke="#282B33" stroke-width="2" stroke-linecap="round" stroke-linejoin="round"/>
</svg>
