<svg width="65" height="65" viewBox="0 0 65 65" fill="none" xmlns="http://www.w3.org/2000/svg">
<circle cx="32.5" cy="32.5" r="25" transform="rotate(-180 32.5 32.5)" fill="white"/>
<path d="M28.6007 37.0858C27.8196 37.8668 27.8196 39.1332 28.6007 39.9142C29.3817 40.6953 30.6481 40.6953 31.4291 39.9142L28.6007 37.0858ZM36.0149 32.5L37.4291 33.9142C38.2102 33.1332 38.2102 31.8668 37.4291 31.0858L36.0149 32.5ZM31.4291 25.0858C30.6481 24.3047 29.3817 24.3047 28.6007 25.0858C27.8196 25.8668 27.8196 27.1332 28.6007 27.9142L31.4291 25.0858ZM31.4291 39.9142L37.4291 33.9142L34.6007 31.0858L28.6007 37.0858L31.4291 39.9142ZM37.4291 31.0858L31.4291 25.0858L28.6007 27.9142L34.6007 33.9142L37.4291 31.0858Z" fill="#282B33"/>
<path d="M65 32.5C65 50.4493 50.4493 65 32.5 65C14.5507 65 0 50.4493 0 32.5C0 14.5507 14.5507 0 32.5 0C50.4493 0 65 14.5507 65 32.5ZM4.875 32.5C4.875 47.7569 17.2431 60.125 32.5 60.125C47.7569 60.125 60.125 47.7569 60.125 32.5C60.125 17.2431 47.7569 4.875 32.5 4.875C17.2431 4.875 4.875 17.2431 4.875 32.5Z" fill="#CBCCC4" fill-opacity="0.4"/>
<path d="M62.5625 32.5C63.9087 32.5 65.0095 33.593 64.9087 34.9354C64.3687 42.1242 61.4497 48.9561 56.5763 54.3308C51.1553 60.3094 43.7038 64.0572 35.6719 64.8448C27.64 65.6325 19.6024 63.4036 13.1232 58.592C7.29857 54.2664 3.10804 48.1317 1.18181 41.1847C0.822112 39.8875 1.68964 38.6015 3.01019 38.34C4.33074 38.0784 5.60272 38.9413 5.97956 40.2337C7.65914 45.9938 11.1773 51.0746 16.0297 54.6782C21.537 58.7681 28.369 60.6626 35.1961 59.9931C42.0232 59.3236 48.357 56.138 52.9649 51.0561C57.0248 46.5786 59.489 40.9112 60.0176 34.9345C60.1362 33.5935 61.2163 32.5 62.5625 32.5Z" fill="url(#paint0_linear_2297_53661)"/>
<defs>
<linearGradient id="paint0_linear_2297_53661" x1="62.6235" y1="17.9281" x2="62.6235" y2="65" gradientUnits="userSpaceOnUse">
<stop stop-color="#5E5A5A"/>
<stop offset="1" stop-color="#BEC7D7"/>
</linearGradient>
</defs>
</svg>
