<svg width="65" height="65" viewBox="0 0 65 65" fill="none" xmlns="http://www.w3.org/2000/svg">
<circle cx="32.5" cy="32.5" r="25" transform="rotate(-180 32.5 32.5)" fill="white"/>
<path d="M28.6007 37.0858C27.8196 37.8668 27.8196 39.1332 28.6007 39.9142C29.3817 40.6953 30.6481 40.6953 31.4291 39.9142L28.6007 37.0858ZM36.0149 32.5L37.4291 33.9142C38.2102 33.1332 38.2102 31.8668 37.4291 31.0858L36.0149 32.5ZM31.4291 25.0858C30.6481 24.3047 29.3817 24.3047 28.6007 25.0858C27.8196 25.8668 27.8196 27.1332 28.6007 27.9142L31.4291 25.0858ZM31.4291 39.9142L37.4291 33.9142L34.6007 31.0858L28.6007 37.0858L31.4291 39.9142ZM37.4291 31.0858L31.4291 25.0858L28.6007 27.9142L34.6007 33.9142L37.4291 31.0858Z" fill="#282B33"/>
<path d="M65 32.5C65 50.4493 50.4493 65 32.5 65C14.5507 65 0 50.4493 0 32.5C0 14.5507 14.5507 0 32.5 0C50.4493 0 65 14.5507 65 32.5ZM4.875 32.5C4.875 47.7569 17.2431 60.125 32.5 60.125C47.7569 60.125 60.125 47.7569 60.125 32.5C60.125 17.2431 47.7569 4.875 32.5 4.875C17.2431 4.875 4.875 17.2431 4.875 32.5Z" fill="#CBCCC4" fill-opacity="0.4"/>
<path d="M62.5625 32.5C63.9087 32.5 65.0095 33.5929 64.9086 34.9353C64.509 40.2536 62.8053 45.4054 59.932 49.928C56.6218 55.1382 51.8964 59.298 46.3085 61.9207C40.7206 64.5433 34.5014 65.5204 28.3785 64.7376C23.0635 64.0581 18.0119 62.0769 13.6655 58.9861C12.5684 58.2059 12.4311 56.6608 13.2913 55.6253C14.1515 54.5898 15.6827 54.4575 16.79 55.2231C20.4162 57.7301 24.6005 59.3399 28.9967 59.902C34.2012 60.5673 39.4875 59.7368 44.2372 57.5076C48.9869 55.2783 53.0036 51.7425 55.8172 47.3138C58.1938 43.5729 59.6291 39.3257 60.0175 34.9344C60.1362 33.5934 61.2163 32.5 62.5625 32.5Z" fill="url(#paint0_linear_2297_53600)"/>
<defs>
<linearGradient id="paint0_linear_2297_53600" x1="62.6235" y1="17.9281" x2="62.6235" y2="65" gradientUnits="userSpaceOnUse">
<stop stop-color="#5E5A5A"/>
<stop offset="1" stop-color="#BEC7D7"/>
</linearGradient>
</defs>
</svg>
