<svg width="65" height="65" viewBox="0 0 65 65" fill="none" xmlns="http://www.w3.org/2000/svg">
<circle cx="32.5" cy="32.5" r="25" transform="rotate(-180 32.5 32.5)" fill="white"/>
<path d="M28.6004 37.0858C27.8194 37.8668 27.8194 39.1332 28.6004 39.9142C29.3815 40.6953 30.6478 40.6953 31.4289 39.9142L28.6004 37.0858ZM36.0146 32.5L37.4289 33.9142C38.2099 33.1332 38.2099 31.8668 37.4289 31.0858L36.0146 32.5ZM31.4289 25.0858C30.6478 24.3047 29.3815 24.3047 28.6004 25.0858C27.8194 25.8668 27.8194 27.1332 28.6004 27.9142L31.4289 25.0858ZM31.4289 39.9142L37.4289 33.9142L34.6004 31.0858L28.6004 37.0858L31.4289 39.9142ZM37.4289 31.0858L31.4289 25.0858L28.6004 27.9142L34.6004 33.9142L37.4289 31.0858Z" fill="#282B33"/>
<path d="M65 32.5C65 50.4493 50.4493 65 32.5 65C14.5507 65 0 50.4493 0 32.5C0 14.5507 14.5507 0 32.5 0C50.4493 0 65 14.5507 65 32.5ZM4.875 32.5C4.875 47.7569 17.2431 60.125 32.5 60.125C47.7569 60.125 60.125 47.7569 60.125 32.5C60.125 17.2431 47.7569 4.875 32.5 4.875C17.2431 4.875 4.875 17.2431 4.875 32.5Z" fill="#CBCCC4" fill-opacity="0.4"/>
<path d="M62.5625 32.5C63.9087 32.5 65.0095 33.5929 64.9087 34.9353C64.4606 40.899 62.3735 46.6409 58.8558 51.5163C54.8613 57.0525 49.225 61.1902 42.7464 63.3425C36.2678 65.4948 29.2759 65.5524 22.7627 63.507C16.2496 61.4617 10.5459 57.4173 6.4608 51.9476C2.37574 46.478 0.116782 39.8608 0.00440367 33.035C-0.107974 26.2092 1.93194 19.5212 5.83473 13.9201C9.73752 8.31892 15.305 4.08896 21.7473 1.83031C27.4207 -0.158766 33.5189 -0.530053 39.3645 0.733182C40.6803 1.01753 41.4157 2.3833 41.0336 3.67412C40.6515 4.96494 39.2964 5.69024 37.9769 5.42334C33.1176 4.44039 28.0669 4.7806 23.3602 6.43077C17.8843 8.35062 13.1519 11.9461 9.83452 16.7071C6.51715 21.4681 4.78322 27.1528 4.87874 32.9547C4.97426 38.7567 6.89438 44.3813 10.3667 49.0305C13.839 53.6797 18.6871 57.1174 24.2233 58.856C29.7595 60.5945 35.7026 60.5456 41.2094 58.7162C46.7162 56.8867 51.5071 53.3696 54.9024 48.6639C57.8208 44.6192 59.5807 39.8729 60.0175 34.9345C60.1362 33.5935 61.2163 32.5 62.5625 32.5Z" fill="url(#paint0_linear_2297_53853)"/>
<defs>
<linearGradient id="paint0_linear_2297_53853" x1="109.453" y1="-31.7925" x2="16.4901" y2="9.08894" gradientUnits="userSpaceOnUse">
<stop stop-color="#5E5A5A"/>
<stop offset="1" stop-color="#BEC7D7"/>
</linearGradient>
</defs>
</svg>
