<svg width="65" height="65" viewBox="0 0 65 65" fill="none" xmlns="http://www.w3.org/2000/svg">
<circle cx="32.5" cy="32.5" r="25" transform="rotate(-180 32.5 32.5)" fill="white"/>
<path d="M28.6007 37.0858C27.8196 37.8668 27.8196 39.1332 28.6007 39.9142C29.3817 40.6953 30.6481 40.6953 31.4291 39.9142L28.6007 37.0858ZM36.0149 32.5L37.4291 33.9142C38.2102 33.1332 38.2102 31.8668 37.4291 31.0858L36.0149 32.5ZM31.4291 25.0858C30.6481 24.3047 29.3817 24.3047 28.6007 25.0858C27.8196 25.8668 27.8196 27.1332 28.6007 27.9142L31.4291 25.0858ZM31.4291 39.9142L37.4291 33.9142L34.6007 31.0858L28.6007 37.0858L31.4291 39.9142ZM37.4291 31.0858L31.4291 25.0858L28.6007 27.9142L34.6007 33.9142L37.4291 31.0858Z" fill="#282B33"/>
<path d="M65 32.5C65 50.4493 50.4493 65 32.5 65C14.5507 65 0 50.4493 0 32.5C0 14.5507 14.5507 0 32.5 0C50.4493 0 65 14.5507 65 32.5ZM4.875 32.5C4.875 47.7569 17.2431 60.125 32.5 60.125C47.7569 60.125 60.125 47.7569 60.125 32.5C60.125 17.2431 47.7569 4.875 32.5 4.875C17.2431 4.875 4.875 17.2431 4.875 32.5Z" fill="#CBCCC4" fill-opacity="0.4"/>
<path d="M62.5625 32.5C63.9087 32.5 65.0095 33.5928 64.9087 34.9353C64.4847 40.5777 62.5932 46.0272 59.4027 50.7344C56.2123 55.4416 51.8511 59.2172 46.767 61.7011C45.5575 62.292 44.1346 61.6743 43.636 60.4239C43.1373 59.1735 43.7529 57.7651 44.9545 57.1582C49.1358 55.0463 52.7242 51.8989 55.3673 47.9992C58.0105 44.0996 59.6048 39.6006 60.0175 34.9344C60.1362 33.5935 61.2163 32.5 62.5625 32.5Z" fill="url(#paint0_linear_2297_53423)"/>
<defs>
<linearGradient id="paint0_linear_2297_53423" x1="62.6235" y1="17.9281" x2="62.6235" y2="65" gradientUnits="userSpaceOnUse">
<stop stop-color="#5E5A5A"/>
<stop offset="1" stop-color="#BEC7D7"/>
</linearGradient>
</defs>
</svg>
