<svg width="65" height="65" viewBox="0 0 65 65" fill="none" xmlns="http://www.w3.org/2000/svg">
<circle cx="32.5" cy="32.5" r="25" transform="rotate(-180 32.5 32.5)" fill="white"/>
<path d="M28.6004 37.0858C27.8194 37.8668 27.8194 39.1332 28.6004 39.9142C29.3815 40.6953 30.6478 40.6953 31.4289 39.9142L28.6004 37.0858ZM36.0146 32.5L37.4289 33.9142C38.2099 33.1332 38.2099 31.8668 37.4289 31.0858L36.0146 32.5ZM31.4289 25.0858C30.6478 24.3047 29.3815 24.3047 28.6004 25.0858C27.8194 25.8668 27.8194 27.1332 28.6004 27.9142L31.4289 25.0858ZM31.4289 39.9142L37.4289 33.9142L34.6004 31.0858L28.6004 37.0858L31.4289 39.9142ZM37.4289 31.0858L31.4289 25.0858L28.6004 27.9142L34.6004 33.9142L37.4289 31.0858Z" fill="#282B33"/>
<path d="M65 32.5C65 50.4493 50.4493 65 32.5 65C14.5507 65 0 50.4493 0 32.5C0 14.5507 14.5507 0 32.5 0C50.4493 0 65 14.5507 65 32.5ZM4.875 32.5C4.875 47.7569 17.2431 60.125 32.5 60.125C47.7569 60.125 60.125 47.7569 60.125 32.5C60.125 17.2431 47.7569 4.875 32.5 4.875C17.2431 4.875 4.875 17.2431 4.875 32.5Z" fill="#CBCCC4" fill-opacity="0.4"/>
<path d="M62.5625 32.5C63.9087 32.5 65.0095 33.5929 64.9086 34.9353C64.5591 39.5873 63.2112 44.1196 60.9456 48.2194C58.2862 53.0318 54.4493 57.0909 49.794 60.0167C45.1386 62.9425 39.8171 64.6394 34.3274 64.9486C28.8377 65.2578 23.3594 64.1691 18.405 61.7845C13.4506 59.3999 9.18219 55.7973 5.99925 51.3138C2.8163 46.8304 0.822868 41.6127 0.20551 36.1491C-0.411849 30.6855 0.36705 25.1545 2.46931 20.0739C4.26024 15.7457 6.96171 11.8648 10.3795 8.68963C11.3657 7.77338 12.9066 7.95198 13.7464 9.00413C14.5862 10.0563 14.4054 11.5826 13.4313 12.5118C10.652 15.1633 8.4494 18.3719 6.97391 21.9378C5.18699 26.2564 4.52493 30.9577 5.04968 35.6017C5.57444 40.2458 7.26886 44.6808 9.97436 48.4918C12.6799 52.3027 16.308 55.3649 20.5192 57.3918C24.7305 59.4187 29.3871 60.3441 34.0533 60.0813C38.7196 59.8185 43.2428 58.3761 47.1999 55.8892C51.1569 53.4023 54.4182 49.952 56.6788 45.8615C58.5453 42.4838 59.679 38.7607 60.0175 34.9344C60.1362 33.5934 61.2163 32.5 62.5625 32.5Z" fill="url(#paint0_linear_2297_53804)"/>
<defs>
<linearGradient id="paint0_linear_2297_53804" x1="58.8695" y1="-61.3068" x2="-21.0161" y2="38.607" gradientUnits="userSpaceOnUse">
<stop stop-color="#5E5A5A"/>
<stop offset="1" stop-color="#BEC7D7"/>
</linearGradient>
</defs>
</svg>
