<svg width="30" height="30" viewBox="0 0 30 30" color="black" xmlns="http://www.w3.org/2000/svg">
<path fill-rule="evenodd" clip-rule="evenodd" d="M23.298 6.68303C22.919 6.75043 22.3818 6.92674 21.5217 7.21346L12.4592 10.2343C10.8287 10.7778 9.67681 11.1629 8.88321 11.5145C8.48985 11.6887 8.23384 11.8339 8.07141 11.9561C7.93196 12.061 7.90016 12.12 7.8968 12.1271C7.80067 12.3663 7.80068 12.6335 7.89683 12.8727C7.89682 12.8727 7.89681 12.8727 7.89681 12.8727C7.90024 12.8799 7.93212 12.9388 8.07141 13.0436C8.23384 13.1658 8.48985 13.311 8.88321 13.4853C9.6768 13.8368 10.8286 14.2219 12.4592 14.7655C12.4963 14.7778 12.5331 14.7901 12.5696 14.8022C13.1042 14.9796 13.576 15.1362 13.9692 15.4311C14.1965 15.6016 14.3984 15.8036 14.5689 16.0309C14.8638 16.4241 15.0204 16.8958 15.1979 17.4304C15.21 17.4669 15.2222 17.5037 15.2346 17.5408C15.7781 19.1714 16.1632 20.3232 16.5148 21.1168C16.689 21.5102 16.8342 21.7662 16.9564 21.9286C17.0759 22.0875 17.1358 22.1066 17.1273 22.1032C17.3666 22.1994 17.6337 22.1994 17.873 22.1032C17.8645 22.1066 17.9244 22.0875 18.0439 21.9286C18.1661 21.7662 18.3113 21.5102 18.4855 21.1168C18.8371 20.3232 19.2222 19.1714 19.7658 17.5408L22.7866 8.47837C23.0733 7.6182 23.2496 7.08097 23.317 6.70207C23.3184 6.69418 23.3197 6.6865 23.321 6.67904C23.3135 6.6803 23.3058 6.68162 23.298 6.68303ZM23.5569 6.65991C23.5567 6.6601 23.5534 6.65983 23.5477 6.65856C23.5542 6.6591 23.5571 6.65973 23.5569 6.65991ZM23.3415 6.45233C23.3402 6.44659 23.3399 6.4433 23.3401 6.4431C23.3403 6.44289 23.3409 6.44576 23.3415 6.45233ZM7.89648 12.8719C7.89649 12.8719 7.89661 12.8722 7.89681 12.8727L7.89648 12.8719ZM22.9477 4.71394C23.4987 4.61592 24.2532 4.58674 24.8332 5.16679C25.4133 5.74685 25.3841 6.50136 25.2861 7.05235C25.1898 7.59378 24.9633 8.2729 24.7078 9.03919L24.6839 9.11083L21.6631 18.1732L21.6446 18.2289C21.1237 19.7914 20.7092 21.0351 20.3142 21.9269C19.9426 22.7657 19.459 23.6213 18.6188 23.959C17.9009 24.2474 17.0994 24.2474 16.3815 23.959C15.5413 23.6213 15.0577 22.7657 14.6861 21.9269C14.2911 21.0351 13.8766 19.7914 13.3557 18.2289L13.3372 18.1732C13.1011 17.4649 13.0435 17.3303 12.969 17.231C12.9121 17.1552 12.8448 17.0879 12.7691 17.031C12.6697 16.9565 12.5351 16.899 11.8268 16.6628L11.7711 16.6443C10.2086 16.1235 8.96493 15.7089 8.07316 15.3139C7.23435 14.9423 6.37873 14.4588 6.04107 13.6185C5.75259 12.9006 5.75259 12.0991 6.04107 11.3812C6.37873 10.541 7.23435 10.0574 8.07316 9.68586C8.96493 9.29082 10.2086 8.87628 11.7711 8.35545L11.8268 8.3369L20.8892 5.31609L20.9608 5.29221C21.7271 5.0367 22.4062 4.81026 22.9477 4.71394Z" fill="currentColor"/>
</svg>
