<svg width="46" height="45" viewBox="0 0 46 45" fill="none" xmlns="http://www.w3.org/2000/svg">
<ellipse cx="23.0001" cy="22.4561" rx="22.381" ry="22.4561" fill="url(#paint0_linear_2160_42748)"/>
<path d="M30.4199 25.4023C30.5527 25.1367 30.3867 24.9043 30.1875 24.8711C27.8633 24.5059 26.834 22.1152 26.7676 22.0156C26.6348 21.75 26.6348 21.5508 26.7012 21.3848C26.834 21.0859 27.332 20.9199 27.6309 20.8203C27.7305 20.7871 27.8301 20.7539 27.8965 20.7207C28.4609 20.4883 28.7598 20.2227 28.7598 19.8906C28.7266 19.6582 28.5605 19.4258 28.2285 19.293C28.0293 19.2266 27.7637 19.2266 27.5645 19.293C27.2656 19.4258 27.0332 19.4922 26.8008 19.5254C26.668 19.4922 26.5684 19.459 26.5352 19.4258C26.6016 18.2305 26.7676 16.5371 26.3359 15.5742C25.5391 13.7812 23.8789 12.8848 22.1191 12.8848C22.0859 12.8848 21.8203 12.8848 21.7871 12.8848C21.0898 12.8848 18.7324 13.084 17.6035 15.6074C17.1719 16.5371 17.3379 18.2637 17.4043 19.4258C17.3379 19.459 17.2383 19.5254 17.0723 19.5254C16.8398 19.5254 16.6074 19.459 16.3086 19.293C15.9102 19.127 15.2793 19.3926 15.2129 19.8242C15.1465 20.0566 15.2793 20.4219 16.043 20.7207C16.3418 20.8535 17.0723 20.9863 17.2383 21.3848C17.3047 21.5508 17.3047 21.75 17.1719 22.0156C17.1055 22.1152 16.0762 24.5059 13.752 24.8711C13.5859 24.9043 13.4531 25.0703 13.4531 25.2363H13.4863C13.5195 25.9336 15.0469 26.1992 15.7441 26.332C15.8105 26.3984 15.877 26.7969 15.9766 27.1289C16.0098 27.2617 16.1094 27.4277 16.375 27.4277C16.6406 27.4277 17.0391 27.2617 17.6699 27.2617C18.5332 27.2617 18.832 27.4609 19.5293 27.959C20.0273 28.291 20.8906 28.9219 21.9531 28.8555C22.9824 28.8887 23.6797 28.457 24.4102 27.959C25.1074 27.4609 25.4062 27.2617 26.2695 27.2617C26.9336 27.2617 27.2656 27.3945 27.5645 27.3945C27.7969 27.3945 27.9297 27.2949 27.9629 27.0957C28.0625 26.7969 28.1289 26.3984 28.1953 26.2988C29.5234 26.0996 30.2539 25.8008 30.4199 25.4023Z" fill="white"/>
<defs>
<linearGradient id="paint0_linear_2160_42748" x1="23.0001" y1="0" x2="23.0001" y2="44.9123" gradientUnits="userSpaceOnUse">
<stop stop-color="#FFFC00"/>
<stop offset="1" stop-color="#FFC701"/>
</linearGradient>
</defs>
</svg>
