<svg width="38" height="38" viewBox="0 0 38 38" fill="none" xmlns="http://www.w3.org/2000/svg">
<path d="M19 34C17.8955 34 17 34.8954 17 36C17 37.1046 17.8955 38 19 38V34ZM5.56499 32.435C6.34604 33.2161 7.61237 33.2161 8.39342 32.435C9.17447 31.654 9.17447 30.3877 8.39342 29.6066L5.56499 32.435ZM27.7154 15.067C28.4226 14.2185 28.3079 12.9574 27.4594 12.2502C26.6108 11.5431 25.3497 11.6577 24.6425 12.5063L27.7154 15.067ZM18.1366 23.4376L19.673 24.7179H19.673L18.1366 23.4376ZM15.1859 23.5714L16.6001 22.1572L15.1859 23.5714ZM12.4821 18.0391C11.701 17.2581 10.4347 17.2581 9.65366 18.0391C8.87261 18.8202 8.87261 20.0865 9.65366 20.8676L12.4821 18.0391ZM16.7127 24.6376L16.8033 26.6355H16.8033L16.7127 24.6376ZM19 38C23.3958 38 27.6555 36.4758 31.0535 33.6872L28.5159 30.5952C25.8333 32.7967 22.4704 34 19 34V38ZM31.0535 33.6872C34.4515 30.8986 36.7774 27.018 37.6349 22.7067L33.7118 21.9264C33.0348 25.33 31.1985 28.3936 28.5159 30.5952L31.0535 33.6872ZM37.6349 22.7067C38.4925 18.3954 37.8287 13.9202 35.7565 10.0435L32.2288 11.9291C33.8647 14.9896 34.3888 18.5227 33.7118 21.9264L37.6349 22.7067ZM35.7565 10.0435C33.6844 6.16676 30.3322 3.12848 26.271 1.44629L24.7403 5.14181C27.9464 6.46985 30.5929 8.8685 32.2288 11.9291L35.7565 10.0435ZM26.271 1.44629C22.2099 -0.235887 17.6911 -0.457881 13.4846 0.818137L14.6458 4.6459C17.9667 3.63852 21.5341 3.81377 24.7403 5.14181L26.271 1.44629ZM13.4846 0.818137C9.27815 2.09415 5.64426 4.78923 3.20211 8.44417L6.52798 10.6664C8.456 7.78097 11.3249 5.65328 14.6458 4.6459L13.4846 0.818137ZM3.20211 8.44417C0.759958 12.0991 -0.339341 16.4877 0.0915163 20.8623L4.07226 20.4703C3.7321 17.0166 4.59997 13.5519 6.52798 10.6664L3.20211 8.44417ZM0.0915163 20.8623C0.522374 25.2369 2.45673 29.3268 5.56499 32.435L8.39342 29.6066C5.93953 27.1527 4.41241 23.9239 4.07226 20.4703L0.0915163 20.8623ZM24.6425 12.5063L16.6001 22.1572L19.673 24.7179L27.7154 15.067L24.6425 12.5063ZM16.6001 22.1572L12.4821 18.0391L9.65366 20.8676L13.7717 24.9856L16.6001 22.1572ZM16.6001 22.1572C16.4314 22.3597 16.3059 22.5101 16.1967 22.6344C16.0866 22.7598 16.027 22.8194 15.9982 22.8456C15.97 22.8712 16.0162 22.8231 16.1273 22.767C16.2562 22.7019 16.428 22.6484 16.622 22.6396L16.8033 26.6355C17.6818 26.5957 18.3015 26.1577 18.6898 25.8046C19.0354 25.4902 19.3831 25.0658 19.673 24.7179L16.6001 22.1572ZM13.7717 24.9856C14.0919 25.3058 14.4766 25.697 14.8493 25.9788C15.268 26.2953 15.9247 26.6754 16.8033 26.6355L16.622 22.6396C16.8161 22.6308 16.9919 22.6685 17.1263 22.7217C17.242 22.7675 17.2923 22.8113 17.2619 22.7882C17.2309 22.7648 17.1662 22.7109 17.0452 22.596C16.9251 22.482 16.7866 22.3436 16.6001 22.1572L13.7717 24.9856Z" fill="url(#paint0_linear_3475_11651)"/>
<defs>
<linearGradient id="paint0_linear_3475_11651" x1="2" y1="19" x2="36.0001" y2="19" gradientUnits="userSpaceOnUse">
<stop stop-color="#8E2DE2"/>
<stop offset="1" stop-color="#4A00E0"/>
</linearGradient>
</defs>
</svg>
