<svg width="26" height="26" viewBox="0 0 26 26" fill="none" xmlns="http://www.w3.org/2000/svg">
<rect x="0.5" y="0.5" width="25" height="25" rx="12.5" fill="#003566"/>
<path d="M15.4 5.7999H19C19.72 5.7999 20.2 6.2799 20.2 6.9999V8.1999H4.59998V6.9999C4.59998 6.2799 5.19998 5.7999 5.79998 5.7999H9.39998C9.63998 4.4799 10.96 3.3999 12.4 3.3999C13.84 3.3999 15.16 4.4799 15.4 5.7999ZM10.6 5.7999H14.2C13.96 5.0799 13.12 4.5999 12.4 4.5999C11.68 4.5999 10.84 5.0799 10.6 5.7999ZM5.79998 9.3999H19L17.92 21.5199C17.92 22.1199 17.32 22.5999 16.72 22.5999H8.07998C7.47998 22.5999 6.99998 22.1199 6.87998 21.5199L5.79998 9.3999Z" fill="white"/>
<rect x="0.5" y="0.5" width="25" height="25" rx="12.5" stroke="#003566"/>
</svg>
