<svg width="384" height="167" viewBox="0 0 384 167" fill="none" xmlns="http://www.w3.org/2000/svg">
<g filter="url(#filter0_d_1026_73872)">
<rect x="4" width="376" height="159" rx="16" fill="white"/>
<g clip-path="url(#clip0_1026_73872)">
<rect width="167" height="117" transform="translate(17 21)" fill="white"/>
<rect x="76" y="23" width="64" height="106" rx="6" stroke="black" stroke-width="4"/>
<rect width="54.25" height="50.5" transform="translate(116 94)" fill="white"/>
<path d="M157 111H123.25C122.653 111 122.081 111.237 121.659 111.659C121.237 112.081 121 112.653 121 113.25V122.25C121.008 126.978 122.796 131.529 126.006 135H123.25C122.653 135 122.081 135.237 121.659 135.659C121.237 136.081 121 136.653 121 137.25C121 137.847 121.237 138.419 121.659 138.841C122.081 139.263 122.653 139.5 123.25 139.5H156.25C156.847 139.5 157.419 139.263 157.841 138.841C158.263 138.419 158.5 137.847 158.5 137.25C158.5 136.653 158.263 136.081 157.841 135.659C157.419 135.237 156.847 135 156.25 135H153.494C155.108 133.252 156.38 131.217 157.244 129C159.388 128.932 161.421 128.033 162.915 126.494C164.409 124.955 165.246 122.895 165.25 120.75V119.25C165.25 117.062 164.381 114.964 162.834 113.416C161.286 111.869 159.188 111 157 111ZM133.375 135C131.01 133.812 129.022 131.992 127.632 129.74C126.241 127.489 125.503 124.896 125.5 122.25V115.5H154V122.25C153.998 123.537 153.821 124.817 153.475 126.056C153.456 126.094 153.456 126.15 153.438 126.188C152.891 128.081 151.96 129.841 150.701 131.357C149.443 132.874 147.885 134.114 146.125 135H133.375ZM160.75 120.75C160.748 121.5 160.522 122.233 160.101 122.855C159.681 123.476 159.084 123.957 158.387 124.238C158.462 123.578 158.5 122.914 158.5 122.25V115.819C159.169 116.108 159.739 116.588 160.139 117.197C160.539 117.807 160.751 118.521 160.75 119.25V120.75ZM130 105.75V101.25C130 100.653 130.237 100.081 130.659 99.659C131.081 99.2371 131.653 99 132.25 99C132.847 99 133.419 99.2371 133.841 99.659C134.263 100.081 134.5 100.653 134.5 101.25V105.75C134.5 106.347 134.263 106.919 133.841 107.341C133.419 107.763 132.847 108 132.25 108C131.653 108 131.081 107.763 130.659 107.341C130.237 106.919 130 106.347 130 105.75ZM137.5 105.75V101.25C137.5 100.653 137.737 100.081 138.159 99.659C138.581 99.2371 139.153 99 139.75 99C140.347 99 140.919 99.2371 141.341 99.659C141.763 100.081 142 100.653 142 101.25V105.75C142 106.347 141.763 106.919 141.341 107.341C140.919 107.763 140.347 108 139.75 108C139.153 108 138.581 107.763 138.159 107.341C137.737 106.919 137.5 106.347 137.5 105.75ZM145 105.75V101.25C145 100.653 145.237 100.081 145.659 99.659C146.081 99.2371 146.653 99 147.25 99C147.847 99 148.419 99.2371 148.841 99.659C149.263 100.081 149.5 100.653 149.5 101.25V105.75C149.5 106.347 149.263 106.919 148.841 107.341C148.419 107.763 147.847 108 147.25 108C146.653 108 146.081 107.763 145.659 107.341C145.237 106.919 145 106.347 145 105.75Z" fill="black"/>
<rect width="52.25" height="48.5" transform="matrix(-1 0 0 1 100.25 70)" fill="white"/>
<path d="M60.25 86H94C94.5967 86 95.169 86.2371 95.591 86.659C96.0129 87.081 96.25 87.6533 96.25 88.25V97.25C96.2415 101.978 94.4544 106.529 91.2437 110H94C94.5967 110 95.169 110.237 95.591 110.659C96.0129 111.081 96.25 111.653 96.25 112.25C96.25 112.847 96.0129 113.419 95.591 113.841C95.169 114.263 94.5967 114.5 94 114.5H61C60.4033 114.5 59.831 114.263 59.409 113.841C58.9871 113.419 58.75 112.847 58.75 112.25C58.75 111.653 58.9871 111.081 59.409 110.659C59.831 110.237 60.4033 110 61 110H63.7562C62.1422 108.252 60.8702 106.217 60.0062 104C57.8623 103.932 55.8287 103.033 54.3348 101.494C52.841 99.9547 52.0038 97.895 52 95.75V94.25C52 92.062 52.8692 89.9635 54.4164 88.4164C55.9635 86.8692 58.062 86 60.25 86ZM83.875 110C86.2395 108.812 88.2278 106.992 89.6183 104.74C91.0087 102.489 91.7467 99.896 91.75 97.25V90.5H63.25V97.25C63.2521 98.5366 63.4287 99.8171 63.775 101.056C63.7938 101.094 63.7938 101.15 63.8125 101.188C64.3587 103.081 65.2902 104.841 66.5486 106.357C67.8069 107.874 69.3649 109.114 71.125 110H83.875ZM56.5 95.75C56.5018 96.5005 56.7276 97.2333 57.1485 97.8546C57.5694 98.476 58.1662 98.9575 58.8625 99.2375C58.7877 98.5776 58.7501 97.9141 58.75 97.25V90.8187C58.0807 91.1082 57.5109 91.5875 57.111 92.1973C56.7111 92.8071 56.4987 93.5208 56.5 94.25V95.75ZM87.25 80.75V76.25C87.25 75.6533 87.0129 75.081 86.591 74.659C86.169 74.2371 85.5967 74 85 74C84.4033 74 83.831 74.2371 83.409 74.659C82.9871 75.081 82.75 75.6533 82.75 76.25V80.75C82.75 81.3467 82.9871 81.919 83.409 82.341C83.831 82.7629 84.4033 83 85 83C85.5967 83 86.169 82.7629 86.591 82.341C87.0129 81.919 87.25 81.3467 87.25 80.75ZM79.75 80.75V76.25C79.75 75.6533 79.5129 75.081 79.091 74.659C78.669 74.2371 78.0967 74 77.5 74C76.9033 74 76.331 74.2371 75.909 74.659C75.4871 75.081 75.25 75.6533 75.25 76.25V80.75C75.25 81.3467 75.4871 81.919 75.909 82.341C76.331 82.7629 76.9033 83 77.5 83C78.0967 83 78.669 82.7629 79.091 82.341C79.5129 81.919 79.75 81.3467 79.75 80.75ZM72.25 80.75V76.25C72.25 75.6533 72.0129 75.081 71.591 74.659C71.169 74.2371 70.5967 74 70 74C69.4033 74 68.831 74.2371 68.409 74.659C67.9871 75.081 67.75 75.6533 67.75 76.25V80.75C67.75 81.3467 67.9871 81.919 68.409 82.341C68.831 82.7629 69.4033 83 70 83C70.5967 83 71.169 82.7629 71.591 82.341C72.0129 81.919 72.25 81.3467 72.25 80.75Z" fill="black"/>
<path fill-rule="evenodd" clip-rule="evenodd" d="M97.3107 18.3377C108.133 16.1657 117.686 25.0621 128.211 28.1401C140.135 31.6274 154.528 30.4121 163.795 37.7812C173.089 45.1725 175.03 57.0982 177.979 67.7174C180.949 78.414 183.36 89.3628 181.125 100.192C178.846 111.235 175.835 124.147 165.049 130.372C153.682 136.933 138.324 132.455 124.665 132.779C115.429 132.998 106.418 130.635 97.3107 131.979C85.9604 133.655 76.1613 144.214 65.0568 141.58C54.5561 139.09 49.0704 128.406 45.1704 119.613C41.6107 111.586 46.2848 102.537 44.0281 94.1642C41.7578 85.741 31.9837 79.3988 32 70.7496C32.0165 61.9708 36.5554 52.8043 44.117 46.9494C51.6238 41.1368 64.0657 43.8983 72.6215 39.2963C82.5378 33.9626 85.9358 20.6206 97.3107 18.3377Z" fill="#47688F" fill-opacity="0.08"/>
<rect x="83" y="33" width="48" height="15" rx="4" fill="#FFC300"/>
<rect x="80.5" y="35.5" width="47" height="14" rx="3.5" stroke="black"/>
<rect x="83" y="56" width="38" height="15" rx="4" fill="#FFC300"/>
<rect x="87.5" y="58.5" width="37" height="14" rx="3.5" stroke="black"/>
<rect x="100" y="79" width="31" height="15" rx="4" fill="#FFC300"/>
<rect x="98.5" y="82.5" width="30" height="14" rx="3.5" stroke="black"/>
</g>
<g clip-path="url(#clip1_1026_73872)">
<path d="M209.233 54H215.199V52.9062H210.466V43.8182H209.233V54ZM220.051 54.1591C222.119 54.1591 223.511 52.5881 223.511 50.2216C223.511 47.8352 222.119 46.2642 220.051 46.2642C217.983 46.2642 216.591 47.8352 216.591 50.2216C216.591 52.5881 217.983 54.1591 220.051 54.1591ZM220.051 53.1051C218.48 53.1051 217.764 51.7528 217.764 50.2216C217.764 48.6903 218.48 47.3182 220.051 47.3182C221.622 47.3182 222.338 48.6903 222.338 50.2216C222.338 51.7528 221.622 53.1051 220.051 53.1051ZM225.302 54H226.476V49.1676C226.476 48.1335 227.291 47.3778 228.405 47.3778C228.718 47.3778 229.041 47.4375 229.121 47.4574V46.2642C228.986 46.2543 228.678 46.2443 228.504 46.2443C227.589 46.2443 226.794 46.7614 226.515 47.517H226.436V46.3636H225.302V54ZM233.481 54.1591C235.032 54.1591 236.165 53.3835 236.523 52.2301L235.39 51.9119C235.091 52.7074 234.4 53.1051 233.481 53.1051C232.104 53.1051 231.154 52.2152 231.099 50.5795H236.643V50.0824C236.643 47.2386 234.952 46.2642 233.361 46.2642C231.293 46.2642 229.921 47.8949 229.921 50.2415C229.921 52.5881 231.273 54.1591 233.481 54.1591ZM231.099 49.5653C231.179 48.3771 232.019 47.3182 233.361 47.3182C234.634 47.3182 235.449 48.2727 235.449 49.5653H231.099ZM238.427 54H239.601V49.2273C239.601 48.1087 240.416 47.3182 241.331 47.3182C242.221 47.3182 242.842 47.8999 242.842 48.7699V54H244.035V49.0284C244.035 48.044 244.652 47.3182 245.726 47.3182C246.561 47.3182 247.277 47.7607 247.277 48.8892V54H248.45V48.8892C248.45 47.0945 247.486 46.2642 246.123 46.2642C245.03 46.2642 244.229 46.7663 243.836 47.5568H243.757C243.379 46.7415 242.713 46.2642 241.709 46.2642C240.714 46.2642 239.979 46.7415 239.66 47.5568H239.561V46.3636H238.427V54ZM254.533 54H255.706V46.3636H254.533V54ZM255.129 45.0909C255.587 45.0909 255.965 44.733 255.965 44.2955C255.965 43.858 255.587 43.5 255.129 43.5C254.672 43.5 254.294 43.858 254.294 44.2955C254.294 44.733 254.672 45.0909 255.129 45.0909ZM257.855 56.8636H259.028V52.8267H259.128C259.386 53.2443 259.884 54.1591 261.355 54.1591C263.264 54.1591 264.597 52.6278 264.597 50.2017C264.597 47.7955 263.264 46.2642 261.335 46.2642C259.844 46.2642 259.386 47.179 259.128 47.5767H258.989V46.3636H257.855V56.8636ZM259.009 50.1818C259.009 48.4716 259.764 47.3182 261.196 47.3182C262.688 47.3182 263.423 48.571 263.423 50.1818C263.423 51.8125 262.668 53.1051 261.196 53.1051C259.784 53.1051 259.009 51.9119 259.009 50.1818ZM271.795 48.0739C271.428 46.9901 270.602 46.2642 269.091 46.2642C267.48 46.2642 266.287 47.179 266.287 48.4716C266.287 49.5256 266.913 50.2315 268.315 50.5597L269.588 50.858C270.359 51.0369 270.722 51.4048 270.722 51.9318C270.722 52.5881 270.026 53.125 268.932 53.125C267.972 53.125 267.371 52.7124 267.162 51.892L266.048 52.1705C266.322 53.468 267.391 54.1591 268.952 54.1591C270.727 54.1591 271.935 53.1896 271.935 51.8722C271.935 50.8082 271.268 50.1371 269.906 49.804L268.773 49.5256C267.868 49.3018 267.46 48.9986 267.46 48.4119C267.46 47.7557 268.156 47.2784 269.091 47.2784C270.115 47.2784 270.538 47.8452 270.741 48.3722L271.795 48.0739ZM278.513 50.8778C278.513 52.3097 277.42 52.9659 276.545 52.9659C275.57 52.9659 274.874 52.25 274.874 51.1364V46.3636H273.701V51.2159C273.701 53.1648 274.735 54.0994 276.167 54.0994C277.32 54.0994 278.076 53.483 278.434 52.7074H278.513V54H279.687V46.3636H278.513V50.8778ZM281.836 54H283.009V49.2273C283.009 48.1087 283.824 47.3182 284.739 47.3182C285.629 47.3182 286.25 47.8999 286.25 48.7699V54H287.444V49.0284C287.444 48.044 288.06 47.3182 289.134 47.3182C289.969 47.3182 290.685 47.7607 290.685 48.8892V54H291.858V48.8892C291.858 47.0945 290.894 46.2642 289.532 46.2642C288.438 46.2642 287.637 46.7663 287.245 47.5568H287.165C286.787 46.7415 286.121 46.2642 285.117 46.2642C284.123 46.2642 283.387 46.7415 283.069 47.5568H282.969V46.3636H281.836V54ZM300.825 54.1591C302.296 54.1591 302.793 53.2443 303.052 52.8267H303.191V54H304.325V43.8182H303.151V47.5767H303.052C302.793 47.179 302.336 46.2642 300.844 46.2642C298.915 46.2642 297.583 47.7955 297.583 50.2017C297.583 52.6278 298.915 54.1591 300.825 54.1591ZM300.984 53.1051C299.512 53.1051 298.756 51.8125 298.756 50.1818C298.756 48.571 299.492 47.3182 300.984 47.3182C302.415 47.3182 303.171 48.4716 303.171 50.1818C303.171 51.9119 302.396 53.1051 300.984 53.1051ZM309.739 54.1591C311.807 54.1591 313.199 52.5881 313.199 50.2216C313.199 47.8352 311.807 46.2642 309.739 46.2642C307.67 46.2642 306.278 47.8352 306.278 50.2216C306.278 52.5881 307.67 54.1591 309.739 54.1591ZM309.739 53.1051C308.168 53.1051 307.452 51.7528 307.452 50.2216C307.452 48.6903 308.168 47.3182 309.739 47.3182C311.31 47.3182 312.026 48.6903 312.026 50.2216C312.026 51.7528 311.31 53.1051 309.739 53.1051ZM316.163 43.8182H314.99V54H316.163V43.8182ZM321.414 54.1591C323.483 54.1591 324.875 52.5881 324.875 50.2216C324.875 47.8352 323.483 46.2642 321.414 46.2642C319.346 46.2642 317.954 47.8352 317.954 50.2216C317.954 52.5881 319.346 54.1591 321.414 54.1591ZM321.414 53.1051C319.843 53.1051 319.127 51.7528 319.127 50.2216C319.127 48.6903 319.843 47.3182 321.414 47.3182C322.985 47.3182 323.701 48.6903 323.701 50.2216C323.701 51.7528 322.985 53.1051 321.414 53.1051ZM326.666 54H327.839V49.1676C327.839 48.1335 328.654 47.3778 329.768 47.3778C330.081 47.3778 330.404 47.4375 330.484 47.4574V46.2642C330.35 46.2543 330.041 46.2443 329.867 46.2443C328.953 46.2443 328.157 46.7614 327.879 47.517H327.799V46.3636H326.666V54ZM341.221 48.0739C340.853 46.9901 340.028 46.2642 338.517 46.2642C336.906 46.2642 335.713 47.179 335.713 48.4716C335.713 49.5256 336.339 50.2315 337.741 50.5597L339.014 50.858C339.784 51.0369 340.147 51.4048 340.147 51.9318C340.147 52.5881 339.451 53.125 338.358 53.125C337.398 53.125 336.797 52.7124 336.588 51.892L335.474 52.1705C335.748 53.468 336.816 54.1591 338.377 54.1591C340.152 54.1591 341.36 53.1896 341.36 51.8722C341.36 50.8082 340.694 50.1371 339.332 49.804L338.199 49.5256C337.294 49.3018 336.886 48.9986 336.886 48.4119C336.886 47.7557 337.582 47.2784 338.517 47.2784C339.541 47.2784 339.963 47.8452 340.167 48.3722L341.221 48.0739ZM343.127 54H344.3V46.3636H343.127V54ZM343.723 45.0909C344.181 45.0909 344.558 44.733 344.558 44.2955C344.558 43.858 344.181 43.5 343.723 43.5C343.266 43.5 342.888 43.858 342.888 44.2955C342.888 44.733 343.266 45.0909 343.723 45.0909ZM349.77 46.3636H348.139V44.5341H346.966V46.3636H345.812V47.358H346.966V52.1307C346.966 53.4631 348.04 54.0994 349.034 54.0994C349.472 54.0994 349.75 54.0199 349.909 53.9602L349.67 52.9062C349.571 52.9261 349.412 52.9659 349.153 52.9659C348.636 52.9659 348.139 52.8068 348.139 51.8125V47.358H349.77V46.3636ZM211.321 74.179C212.653 74.179 213.349 73.4631 213.588 72.9659H213.648V74H214.821V68.9688C214.821 66.5426 212.972 66.2642 211.997 66.2642C210.844 66.2642 209.531 66.6619 208.935 68.054L210.048 68.4517C210.307 67.8949 210.918 67.2983 212.037 67.2983C213.116 67.2983 213.648 67.87 213.648 68.8494V68.8892C213.648 69.456 213.071 69.4062 211.679 69.5852C210.262 69.7692 208.716 70.0824 208.716 71.8324C208.716 73.3239 209.869 74.179 211.321 74.179ZM211.5 73.125C210.565 73.125 209.889 72.7074 209.889 71.892C209.889 70.9972 210.705 70.7188 211.619 70.5994C212.116 70.5398 213.449 70.4006 213.648 70.1619V71.2358C213.648 72.1903 212.892 73.125 211.5 73.125ZM216.963 74H218.136V69.2273C218.136 68.1087 218.951 67.3182 219.866 67.3182C220.756 67.3182 221.377 67.8999 221.377 68.7699V74H222.57V69.0284C222.57 68.044 223.187 67.3182 224.261 67.3182C225.096 67.3182 225.812 67.7607 225.812 68.8892V74H226.985V68.8892C226.985 67.0945 226.021 66.2642 224.659 66.2642C223.565 66.2642 222.764 66.7663 222.372 67.5568H222.292C221.914 66.7415 221.248 66.2642 220.244 66.2642C219.249 66.2642 218.514 66.7415 218.195 67.5568H218.096V66.3636H216.963V74ZM232.332 74.1591C233.883 74.1591 235.017 73.3835 235.375 72.2301L234.241 71.9119C233.943 72.7074 233.252 73.1051 232.332 73.1051C230.955 73.1051 230.006 72.2152 229.951 70.5795H235.494V70.0824C235.494 67.2386 233.804 66.2642 232.213 66.2642C230.145 66.2642 228.773 67.8949 228.773 70.2415C228.773 72.5881 230.125 74.1591 232.332 74.1591ZM229.951 69.5653C230.03 68.3771 230.871 67.3182 232.213 67.3182C233.486 67.3182 234.301 68.2727 234.301 69.5653H229.951ZM240.6 66.3636H238.969V64.5341H237.796V66.3636H236.643V67.358H237.796V72.1307C237.796 73.4631 238.87 74.0994 239.864 74.0994C240.302 74.0994 240.58 74.0199 240.739 73.9602L240.501 72.9062C240.401 72.9261 240.242 72.9659 239.983 72.9659C239.466 72.9659 238.969 72.8068 238.969 71.8125V67.358H240.6V66.3636ZM244.115 72.608H242.842L242.782 73.1648C242.638 74.5121 242.355 75.8544 242.226 76.4858H243.121C243.359 75.8097 243.866 74.2784 244.035 73.1449L244.115 72.608ZM253.328 74.1591C255.019 74.1591 256.132 73.125 256.331 71.7727H255.158C254.939 72.608 254.243 73.1051 253.328 73.1051C251.936 73.1051 251.042 71.9517 251.042 70.1818C251.042 68.4517 251.956 67.3182 253.328 67.3182C254.363 67.3182 254.979 67.9545 255.158 68.6506H256.331C256.132 67.2188 254.919 66.2642 253.309 66.2642C251.24 66.2642 249.868 67.8949 249.868 70.2216C249.868 72.5085 251.181 74.1591 253.328 74.1591ZM261.149 74.1591C263.217 74.1591 264.609 72.5881 264.609 70.2216C264.609 67.8352 263.217 66.2642 261.149 66.2642C259.081 66.2642 257.689 67.8352 257.689 70.2216C257.689 72.5881 259.081 74.1591 261.149 74.1591ZM261.149 73.1051C259.578 73.1051 258.862 71.7528 258.862 70.2216C258.862 68.6903 259.578 67.3182 261.149 67.3182C262.72 67.3182 263.436 68.6903 263.436 70.2216C263.436 71.7528 262.72 73.1051 261.149 73.1051ZM267.573 69.4062C267.573 68.0739 268.399 67.3182 269.522 67.3182C270.611 67.3182 271.272 68.0291 271.272 69.2273V74H272.445V69.1477C272.445 67.1989 271.406 66.2642 269.86 66.2642C268.707 66.2642 267.991 66.7812 267.633 67.5568H267.534V66.3636H266.4V74H267.573V69.4062ZM279.999 68.0739C279.631 66.9901 278.805 66.2642 277.294 66.2642C275.683 66.2642 274.49 67.179 274.49 68.4716C274.49 69.5256 275.116 70.2315 276.518 70.5597L277.791 70.858C278.562 71.0369 278.925 71.4048 278.925 71.9318C278.925 72.5881 278.229 73.125 277.135 73.125C276.175 73.125 275.574 72.7124 275.365 71.892L274.251 72.1705C274.525 73.468 275.594 74.1591 277.155 74.1591C278.93 74.1591 280.138 73.1896 280.138 71.8722C280.138 70.8082 279.472 70.1371 278.109 69.804L276.976 69.5256C276.071 69.3018 275.663 68.9986 275.663 68.4119C275.663 67.7557 276.359 67.2784 277.294 67.2784C278.318 67.2784 278.741 67.8452 278.945 68.3722L279.999 68.0739ZM285.106 74.1591C286.657 74.1591 287.79 73.3835 288.148 72.2301L287.015 71.9119C286.716 72.7074 286.025 73.1051 285.106 73.1051C283.729 73.1051 282.779 72.2152 282.724 70.5795H288.268V70.0824C288.268 67.2386 286.577 66.2642 284.986 66.2642C282.918 66.2642 281.546 67.8949 281.546 70.2415C281.546 72.5881 282.898 74.1591 285.106 74.1591ZM282.724 69.5653C282.804 68.3771 283.644 67.3182 284.986 67.3182C286.259 67.3182 287.074 68.2727 287.074 69.5653H282.724ZM293.155 74.1591C294.845 74.1591 295.959 73.125 296.157 71.7727H294.984C294.765 72.608 294.069 73.1051 293.155 73.1051C291.763 73.1051 290.868 71.9517 290.868 70.1818C290.868 68.4517 291.782 67.3182 293.155 67.3182C294.189 67.3182 294.805 67.9545 294.984 68.6506H296.157C295.959 67.2188 294.746 66.2642 293.135 66.2642C291.067 66.2642 289.694 67.8949 289.694 70.2216C289.694 72.5085 291.007 74.1591 293.155 74.1591ZM301.194 66.3636H299.563V64.5341H298.39V66.3636H297.236V67.358H298.39V72.1307C298.39 73.4631 299.464 74.0994 300.458 74.0994C300.895 74.0994 301.174 74.0199 301.333 73.9602L301.094 72.9062C300.995 72.9261 300.836 72.9659 300.577 72.9659C300.06 72.9659 299.563 72.8068 299.563 71.8125V67.358H301.194V66.3636ZM306.078 74.1591C307.629 74.1591 308.763 73.3835 309.121 72.2301L307.987 71.9119C307.689 72.7074 306.998 73.1051 306.078 73.1051C304.701 73.1051 303.752 72.2152 303.697 70.5795H309.24V70.0824C309.24 67.2386 307.55 66.2642 305.959 66.2642C303.891 66.2642 302.519 67.8949 302.519 70.2415C302.519 72.5881 303.871 74.1591 306.078 74.1591ZM303.697 69.5653C303.776 68.3771 304.617 67.3182 305.959 67.3182C307.232 67.3182 308.047 68.2727 308.047 69.5653H303.697ZM314.346 66.3636H312.715V64.5341H311.542V66.3636H310.389V67.358H311.542V72.1307C311.542 73.4631 312.616 74.0994 313.61 74.0994C314.048 74.0994 314.326 74.0199 314.485 73.9602L314.247 72.9062C314.147 72.9261 313.988 72.9659 313.73 72.9659C313.213 72.9659 312.715 72.8068 312.715 71.8125V67.358H314.346V66.3636ZM320.923 70.8778C320.923 72.3097 319.83 72.9659 318.955 72.9659C317.98 72.9659 317.284 72.25 317.284 71.1364V66.3636H316.111V71.2159C316.111 73.1648 317.145 74.0994 318.577 74.0994C319.73 74.0994 320.486 73.483 320.844 72.7074H320.923V74H322.097V66.3636H320.923V70.8778ZM324.246 74H325.419V69.1676C325.419 68.1335 326.234 67.3778 327.348 67.3778C327.661 67.3778 327.984 67.4375 328.064 67.4574V66.2642C327.93 66.2543 327.621 66.2443 327.447 66.2443C326.533 66.2443 325.737 66.7614 325.459 67.517H325.379V66.3636H324.246V74ZM211.321 94.179C212.653 94.179 213.349 93.4631 213.588 92.9659H213.648V94H214.821V88.9688C214.821 86.5426 212.972 86.2642 211.997 86.2642C210.844 86.2642 209.531 86.6619 208.935 88.054L210.048 88.4517C210.307 87.8949 210.918 87.2983 212.037 87.2983C213.116 87.2983 213.648 87.87 213.648 88.8494V88.8892C213.648 89.456 213.071 89.4062 211.679 89.5852C210.262 89.7692 208.716 90.0824 208.716 91.8324C208.716 93.3239 209.869 94.179 211.321 94.179ZM211.5 93.125C210.565 93.125 209.889 92.7074 209.889 91.892C209.889 90.9972 210.705 90.7188 211.619 90.5994C212.116 90.5398 213.449 90.4006 213.648 90.1619V91.2358C213.648 92.1903 212.892 93.125 211.5 93.125ZM219.846 94.1591C221.318 94.1591 221.815 93.2443 222.073 92.8267H222.213V94H223.346V83.8182H222.173V87.5767H222.073C221.815 87.179 221.357 86.2642 219.866 86.2642C217.937 86.2642 216.605 87.7955 216.605 90.2017C216.605 92.6278 217.937 94.1591 219.846 94.1591ZM220.005 93.1051C218.534 93.1051 217.778 91.8125 217.778 90.1818C217.778 88.571 218.514 87.3182 220.005 87.3182C221.437 87.3182 222.193 88.4716 222.193 90.1818C222.193 91.9119 221.417 93.1051 220.005 93.1051ZM225.658 94H226.831V86.3636H225.658V94ZM226.254 85.0909C226.712 85.0909 227.09 84.733 227.09 84.2955C227.09 83.858 226.712 83.5 226.254 83.5C225.797 83.5 225.419 83.858 225.419 84.2955C225.419 84.733 225.797 85.0909 226.254 85.0909ZM228.98 96.8636H230.153V92.8267H230.253C230.511 93.2443 231.009 94.1591 232.48 94.1591C234.389 94.1591 235.722 92.6278 235.722 90.2017C235.722 87.7955 234.389 86.2642 232.46 86.2642C230.969 86.2642 230.511 87.179 230.253 87.5767H230.114V86.3636H228.98V96.8636ZM230.134 90.1818C230.134 88.4716 230.889 87.3182 232.321 87.3182C233.812 87.3182 234.548 88.571 234.548 90.1818C234.548 91.8125 233.793 93.1051 232.321 93.1051C230.909 93.1051 230.134 91.9119 230.134 90.1818ZM237.511 94H238.685V86.3636H237.511V94ZM238.108 85.0909C238.565 85.0909 238.943 84.733 238.943 84.2955C238.943 83.858 238.565 83.5 238.108 83.5C237.651 83.5 237.273 83.858 237.273 84.2955C237.273 84.733 237.651 85.0909 238.108 85.0909ZM246.243 88.0739C245.875 86.9901 245.05 86.2642 243.538 86.2642C241.927 86.2642 240.734 87.179 240.734 88.4716C240.734 89.5256 241.361 90.2315 242.763 90.5597L244.035 90.858C244.806 91.0369 245.169 91.4048 245.169 91.9318C245.169 92.5881 244.473 93.125 243.379 93.125C242.42 93.125 241.818 92.7124 241.609 91.892L240.496 92.1705C240.769 93.468 241.838 94.1591 243.399 94.1591C245.174 94.1591 246.382 93.1896 246.382 91.8722C246.382 90.8082 245.716 90.1371 244.354 89.804L243.22 89.5256C242.315 89.3018 241.907 88.9986 241.907 88.4119C241.907 87.7557 242.604 87.2784 243.538 87.2784C244.562 87.2784 244.985 87.8452 245.189 88.3722L246.243 88.0739ZM251.25 94.1591C252.941 94.1591 254.054 93.125 254.253 91.7727H253.08C252.861 92.608 252.165 93.1051 251.25 93.1051C249.858 93.1051 248.963 91.9517 248.963 90.1818C248.963 88.4517 249.878 87.3182 251.25 87.3182C252.284 87.3182 252.901 87.9545 253.08 88.6506H254.253C254.054 87.2188 252.841 86.2642 251.23 86.2642C249.162 86.2642 247.79 87.8949 247.79 90.2216C247.79 92.5085 249.103 94.1591 251.25 94.1591ZM255.968 94H257.142V86.3636H255.968V94ZM256.565 85.0909C257.022 85.0909 257.4 84.733 257.4 84.2955C257.4 83.858 257.022 83.5 256.565 83.5C256.108 83.5 255.73 83.858 255.73 84.2955C255.73 84.733 256.108 85.0909 256.565 85.0909ZM260.464 89.4062C260.464 88.0739 261.289 87.3182 262.413 87.3182C263.502 87.3182 264.163 88.0291 264.163 89.2273V94H265.336V89.1477C265.336 87.1989 264.297 86.2642 262.751 86.2642C261.597 86.2642 260.882 86.7812 260.524 87.5568H260.424V86.3636H259.291V94H260.464V89.4062ZM270.562 97.0227C272.392 97.0227 273.864 96.1875 273.864 94.2188V86.3636H272.73V87.5767H272.611C272.352 87.179 271.875 86.2642 270.384 86.2642C268.455 86.2642 267.122 87.7955 267.122 90.142C267.122 92.5284 268.514 93.8807 270.364 93.8807C271.855 93.8807 272.332 93.0057 272.591 92.5881H272.69V94.1392C272.69 95.4119 271.795 95.9886 270.562 95.9886C269.175 95.9886 268.688 95.2578 268.375 94.8352L267.44 95.4915C267.918 96.2919 268.857 97.0227 270.562 97.0227ZM270.523 92.8267C269.051 92.8267 268.295 91.7131 268.295 90.1222C268.295 88.571 269.031 87.3182 270.523 87.3182C271.955 87.3182 272.71 88.4716 272.71 90.1222C272.71 91.8125 271.935 92.8267 270.523 92.8267ZM283.151 94.1591C284.702 94.1591 285.835 93.3835 286.193 92.2301L285.06 91.9119C284.761 92.7074 284.07 93.1051 283.151 93.1051C281.773 93.1051 280.824 92.2152 280.769 90.5795H286.312V90.0824C286.312 87.2386 284.622 86.2642 283.031 86.2642C280.963 86.2642 279.591 87.8949 279.591 90.2415C279.591 92.5881 280.943 94.1591 283.151 94.1591ZM280.769 89.5653C280.849 88.3771 281.689 87.3182 283.031 87.3182C284.304 87.3182 285.119 88.2727 285.119 89.5653H280.769ZM289.271 83.8182H288.097V94H289.271V83.8182ZM291.42 94H292.593V86.3636H291.42V94ZM292.016 85.0909C292.474 85.0909 292.851 84.733 292.851 84.2955C292.851 83.858 292.474 83.5 292.016 83.5C291.559 83.5 291.181 83.858 291.181 84.2955C291.181 84.733 291.559 85.0909 292.016 85.0909ZM298.063 86.3636H296.432V84.5341H295.259V86.3636H294.105V87.358H295.259V92.1307C295.259 93.4631 296.333 94.0994 297.327 94.0994C297.765 94.0994 298.043 94.0199 298.202 93.9602L297.963 92.9062C297.864 92.9261 297.705 92.9659 297.446 92.9659C296.929 92.9659 296.432 92.8068 296.432 91.8125V87.358H298.063V86.3636ZM300.683 94.0795C301.175 94.0795 301.578 93.6768 301.578 93.1847C301.578 92.6925 301.175 92.2898 300.683 92.2898C300.191 92.2898 299.788 92.6925 299.788 93.1847C299.788 93.6768 300.191 94.0795 300.683 94.0795ZM307.78 94H314.004V92.9062H309.013V89.446H313.607V88.3523H309.013V84.9119H313.925V83.8182H307.78V94ZM315.988 94H317.161V89.1676C317.161 88.1335 317.977 87.3778 319.09 87.3778C319.403 87.3778 319.727 87.4375 319.806 87.4574V86.2642C319.672 86.2543 319.364 86.2443 319.19 86.2443C318.275 86.2443 317.479 86.7614 317.201 87.517H317.121V86.3636H315.988V94ZM324.067 94.1591C326.135 94.1591 327.527 92.5881 327.527 90.2216C327.527 87.8352 326.135 86.2642 324.067 86.2642C321.999 86.2642 320.607 87.8352 320.607 90.2216C320.607 92.5881 321.999 94.1591 324.067 94.1591ZM324.067 93.1051C322.496 93.1051 321.78 91.7528 321.78 90.2216C321.78 88.6903 322.496 87.3182 324.067 87.3182C325.638 87.3182 326.354 88.6903 326.354 90.2216C326.354 91.7528 325.638 93.1051 324.067 93.1051ZM334.727 88.0739C334.359 86.9901 333.534 86.2642 332.023 86.2642C330.412 86.2642 329.219 87.179 329.219 88.4716C329.219 89.5256 329.845 90.2315 331.247 90.5597L332.52 90.858C333.29 91.0369 333.653 91.4048 333.653 91.9318C333.653 92.5881 332.957 93.125 331.863 93.125C330.904 93.125 330.302 92.7124 330.094 91.892L328.98 92.1705C329.253 93.468 330.322 94.1591 331.883 94.1591C333.658 94.1591 334.866 93.1896 334.866 91.8722C334.866 90.8082 334.2 90.1371 332.838 89.804L331.704 89.5256C330.8 89.3018 330.392 88.9986 330.392 88.4119C330.392 87.7557 331.088 87.2784 332.023 87.2784C333.047 87.2784 333.469 87.8452 333.673 88.3722L334.727 88.0739ZM342.817 94.179C344.15 94.179 344.846 93.4631 345.084 92.9659H345.144V94H346.317V88.9688C346.317 86.5426 344.468 86.2642 343.493 86.2642C342.34 86.2642 341.027 86.6619 340.431 88.054L341.544 88.4517C341.803 87.8949 342.414 87.2983 343.533 87.2983C344.612 87.2983 345.144 87.87 345.144 88.8494V88.8892C345.144 89.456 344.567 89.4062 343.175 89.5852C341.758 89.7692 340.212 90.0824 340.212 91.8324C340.212 93.3239 341.365 94.179 342.817 94.179ZM342.996 93.125C342.061 93.125 341.385 92.7074 341.385 91.892C341.385 90.9972 342.201 90.7188 343.115 90.5994C343.613 90.5398 344.945 90.4006 345.144 90.1619V91.2358C345.144 92.1903 344.388 93.125 342.996 93.125ZM351.561 94.1591C353.251 94.1591 354.365 93.125 354.564 91.7727H353.39C353.172 92.608 352.476 93.1051 351.561 93.1051C350.169 93.1051 349.274 91.9517 349.274 90.1818C349.274 88.4517 350.189 87.3182 351.561 87.3182C352.595 87.3182 353.211 87.9545 353.39 88.6506H354.564C354.365 87.2188 353.152 86.2642 351.541 86.2642C349.473 86.2642 348.101 87.8949 348.101 90.2216C348.101 92.5085 349.413 94.1591 351.561 94.1591ZM212.474 106.364H210.764V105.588C210.764 104.832 211.082 104.435 211.858 104.435C212.196 104.435 212.395 104.514 212.514 104.554L212.852 103.54C212.673 103.46 212.315 103.341 211.739 103.341C210.645 103.341 209.591 103.997 209.591 105.31V106.364H208.358V107.358H209.591V114H210.764V107.358H212.474V106.364ZM217.006 114.159C218.557 114.159 219.691 113.384 220.049 112.23L218.915 111.912C218.617 112.707 217.926 113.105 217.006 113.105C215.629 113.105 214.679 112.215 214.625 110.58H220.168V110.082C220.168 107.239 218.478 106.264 216.887 106.264C214.819 106.264 213.446 107.895 213.446 110.241C213.446 112.588 214.799 114.159 217.006 114.159ZM214.625 109.565C214.704 108.377 215.544 107.318 216.887 107.318C218.159 107.318 218.975 108.273 218.975 109.565H214.625ZM221.953 114H223.126V109.168C223.126 108.134 223.941 107.378 225.055 107.378C225.368 107.378 225.691 107.438 225.771 107.457V106.264C225.637 106.254 225.328 106.244 225.154 106.244C224.24 106.244 223.444 106.761 223.166 107.517H223.086V106.364H221.953V114ZM227.162 114H228.335V109.227C228.335 108.109 229.15 107.318 230.065 107.318C230.955 107.318 231.577 107.9 231.577 108.77V114H232.77V109.028C232.77 108.044 233.386 107.318 234.46 107.318C235.295 107.318 236.011 107.761 236.011 108.889V114H237.184V108.889C237.184 107.094 236.22 106.264 234.858 106.264C233.764 106.264 232.964 106.766 232.571 107.557H232.491C232.113 106.741 231.447 106.264 230.443 106.264C229.449 106.264 228.713 106.741 228.395 107.557H228.295V106.364H227.162V114ZM242.531 114.159C244.083 114.159 245.216 113.384 245.574 112.23L244.441 111.912C244.142 112.707 243.451 113.105 242.531 113.105C241.154 113.105 240.205 112.215 240.15 110.58H245.693V110.082C245.693 107.239 244.003 106.264 242.412 106.264C240.344 106.264 238.972 107.895 238.972 110.241C238.972 112.588 240.324 114.159 242.531 114.159ZM240.15 109.565C240.23 108.377 241.07 107.318 242.412 107.318C243.685 107.318 244.5 108.273 244.5 109.565H240.15ZM248.651 109.406C248.651 108.074 249.477 107.318 250.6 107.318C251.689 107.318 252.35 108.029 252.35 109.227V114H253.524V109.148C253.524 107.199 252.485 106.264 250.938 106.264C249.785 106.264 249.069 106.781 248.711 107.557H248.612V106.364H247.478V114H248.651V109.406ZM258.989 106.364H257.358V104.534H256.185V106.364H255.031V107.358H256.185V112.131C256.185 113.463 257.259 114.099 258.253 114.099C258.69 114.099 258.969 114.02 259.128 113.96L258.889 112.906C258.79 112.926 258.631 112.966 258.372 112.966C257.855 112.966 257.358 112.807 257.358 111.812V107.358H258.989V106.364ZM265.566 110.878C265.566 112.31 264.472 112.966 263.597 112.966C262.623 112.966 261.927 112.25 261.927 111.136V106.364H260.754V111.216C260.754 113.165 261.788 114.099 263.219 114.099C264.373 114.099 265.129 113.483 265.487 112.707H265.566V114H266.739V106.364H265.566V110.878ZM268.888 114H270.062V109.227C270.062 108.109 270.877 107.318 271.792 107.318C272.682 107.318 273.303 107.9 273.303 108.77V114H274.496V109.028C274.496 108.044 275.113 107.318 276.187 107.318C277.022 107.318 277.738 107.761 277.738 108.889V114H278.911V108.889C278.911 107.094 277.947 106.264 276.584 106.264C275.491 106.264 274.69 106.766 274.297 107.557H274.218C273.84 106.741 273.174 106.264 272.17 106.264C271.175 106.264 270.439 106.741 270.121 107.557H270.022V106.364H268.888V114ZM288.394 106.364H286.684V105.588C286.684 104.832 287.002 104.435 287.778 104.435C288.116 104.435 288.315 104.514 288.434 104.554L288.772 103.54C288.593 103.46 288.235 103.341 287.659 103.341C286.565 103.341 285.511 103.997 285.511 105.31V106.364H284.278V107.358H285.511V114H286.684V107.358H288.394V106.364ZM292.067 114.179C293.4 114.179 294.096 113.463 294.334 112.966H294.394V114H295.567V108.969C295.567 106.543 293.718 106.264 292.743 106.264C291.59 106.264 290.277 106.662 289.681 108.054L290.794 108.452C291.053 107.895 291.664 107.298 292.783 107.298C293.862 107.298 294.394 107.87 294.394 108.849V108.889C294.394 109.456 293.817 109.406 292.425 109.585C291.008 109.769 289.462 110.082 289.462 111.832C289.462 113.324 290.615 114.179 292.067 114.179ZM292.246 113.125C291.311 113.125 290.635 112.707 290.635 111.892C290.635 110.997 291.451 110.719 292.365 110.599C292.863 110.54 294.195 110.401 294.394 110.162V111.236C294.394 112.19 293.638 113.125 292.246 113.125ZM300.811 114.159C302.501 114.159 303.615 113.125 303.814 111.773H302.64C302.422 112.608 301.726 113.105 300.811 113.105C299.419 113.105 298.524 111.952 298.524 110.182C298.524 108.452 299.439 107.318 300.811 107.318C301.845 107.318 302.461 107.955 302.64 108.651H303.814C303.615 107.219 302.402 106.264 300.791 106.264C298.723 106.264 297.351 107.895 297.351 110.222C297.351 112.509 298.663 114.159 300.811 114.159ZM305.529 114H306.702V106.364H305.529V114ZM306.126 105.091C306.583 105.091 306.961 104.733 306.961 104.295C306.961 103.858 306.583 103.5 306.126 103.5C305.668 103.5 305.29 103.858 305.29 104.295C305.29 104.733 305.668 105.091 306.126 105.091ZM310.025 103.818H308.851V114H310.025V103.818ZM312.173 114H313.347V106.364H312.173V114ZM312.77 105.091C313.227 105.091 313.605 104.733 313.605 104.295C313.605 103.858 313.227 103.5 312.77 103.5C312.313 103.5 311.935 103.858 311.935 104.295C311.935 104.733 312.313 105.091 312.77 105.091ZM320.905 108.074C320.537 106.99 319.712 106.264 318.2 106.264C316.589 106.264 315.396 107.179 315.396 108.472C315.396 109.526 316.023 110.232 317.425 110.56L318.697 110.858C319.468 111.037 319.831 111.405 319.831 111.932C319.831 112.588 319.135 113.125 318.041 113.125C317.082 113.125 316.48 112.712 316.271 111.892L315.158 112.17C315.431 113.468 316.5 114.159 318.061 114.159C319.836 114.159 321.044 113.19 321.044 111.872C321.044 110.808 320.378 110.137 319.016 109.804L317.882 109.526C316.977 109.302 316.57 108.999 316.57 108.412C316.57 107.756 317.266 107.278 318.2 107.278C319.224 107.278 319.647 107.845 319.851 108.372L320.905 108.074ZM322.81 114H323.983V106.364H322.81V114ZM323.407 105.091C323.864 105.091 324.242 104.733 324.242 104.295C324.242 103.858 323.864 103.5 323.407 103.5C322.949 103.5 322.572 103.858 322.572 104.295C322.572 104.733 322.949 105.091 323.407 105.091Z" fill="black"/>
</g>
</g>
<defs>
<filter id="filter0_d_1026_73872" x="0" y="0" width="384" height="167" filterUnits="userSpaceOnUse" color-interpolation-filters="sRGB">
<feFlood flood-opacity="0" result="BackgroundImageFix"/>
<feColorMatrix in="SourceAlpha" type="matrix" values="0 0 0 0 0 0 0 0 0 0 0 0 0 0 0 0 0 0 127 0" result="hardAlpha"/>
<feOffset dy="4"/>
<feGaussianBlur stdDeviation="2"/>
<feComposite in2="hardAlpha" operator="out"/>
<feColorMatrix type="matrix" values="0 0 0 0 0 0 0 0 0 0 0 0 0 0 0 0 0 0 0.25 0"/>
<feBlend mode="normal" in2="BackgroundImageFix" result="effect1_dropShadow_1026_73872"/>
<feBlend mode="normal" in="SourceGraphic" in2="effect1_dropShadow_1026_73872" result="shape"/>
</filter>
<clipPath id="clip0_1026_73872">
<rect width="167" height="117" fill="white" transform="translate(17 21)"/>
</clipPath>
<clipPath id="clip1_1026_73872">
<rect width="159" height="96" fill="white" transform="translate(208 31.5)"/>
</clipPath>
</defs>
</svg>
