<svg width="45" height="45" viewBox="0 0 45 45" fill="none" xmlns="http://www.w3.org/2000/svg">
<ellipse cx="22.5" cy="22.4561" rx="22.5" ry="22.4561" fill="url(#paint0_linear_2160_42743)"/>
<path d="M28.1777 17.4004C28.8418 16.9023 29.4395 16.3047 29.9043 15.6074C29.3066 15.873 28.6094 16.0723 27.9121 16.1387C28.6426 15.707 29.1738 15.043 29.4395 14.2129C28.7754 14.6113 28.0117 14.9102 27.248 15.0762C26.584 14.3789 25.6875 13.9805 24.6914 13.9805C22.7656 13.9805 21.2051 15.541 21.2051 17.4668C21.2051 17.7324 21.2383 17.998 21.3047 18.2637C18.416 18.0977 15.8262 16.7031 14.0996 14.6113C13.8008 15.1094 13.6348 15.707 13.6348 16.3711C13.6348 17.5664 14.2324 18.6289 15.1953 19.2598C14.6309 19.2266 14.0664 19.0938 13.6016 18.8281V18.8613C13.6016 20.5547 14.7969 21.9492 16.3906 22.2812C16.125 22.3477 15.793 22.4141 15.4941 22.4141C15.2617 22.4141 15.0625 22.3809 14.8301 22.3477C15.2617 23.7422 16.5566 24.7383 18.084 24.7715C16.8887 25.7012 15.3945 26.2656 13.7676 26.2656C13.4688 26.2656 13.2031 26.2324 12.9375 26.1992C14.4648 27.1953 16.291 27.7598 18.2832 27.7598C24.6914 27.7598 28.1777 22.4805 28.1777 17.8652C28.1777 17.6992 28.1777 17.5664 28.1777 17.4004Z" fill="white"/>
<defs>
<linearGradient id="paint0_linear_2160_42743" x1="-0.000282977" y1="0" x2="-0.000282977" y2="44.9128" gradientUnits="userSpaceOnUse">
<stop stop-color="#4ECEF6"/>
<stop offset="0.537697" stop-color="#4E8FF6"/>
<stop offset="1" stop-color="#226ADB"/>
</linearGradient>
</defs>
</svg>
