<svg width="22" height="19" viewBox="0 0 22 19" fill="none" xmlns="http://www.w3.org/2000/svg">
<path d="M20.5195 4.57853C20.2054 3.85112 19.7524 3.19194 19.1859 2.63791C18.6191 2.08222 17.9507 1.64062 17.2172 1.33713C16.4566 1.02117 15.6408 0.859449 14.8172 0.861345C13.6617 0.861345 12.5344 1.17775 11.5547 1.77541C11.3203 1.91838 11.0977 2.07541 10.8867 2.2465C10.6758 2.07541 10.4531 1.91838 10.2188 1.77541C9.23906 1.17775 8.11172 0.861345 6.95625 0.861345C6.12422 0.861345 5.31797 1.02072 4.55625 1.33713C3.82031 1.64181 3.15703 2.08009 2.5875 2.63791C2.0203 3.19132 1.56721 3.85065 1.25391 4.57853C0.928125 5.33556 0.761719 6.13947 0.761719 6.96681C0.761719 7.74728 0.921094 8.56056 1.2375 9.38791C1.50234 10.0793 1.88203 10.7965 2.36719 11.5207C3.13594 12.6668 4.19297 13.8621 5.50547 15.0738C7.68047 17.0824 9.83438 18.4699 9.92578 18.5262L10.4813 18.8824C10.7273 19.0395 11.0438 19.0395 11.2898 18.8824L11.8453 18.5262C11.9367 18.4676 14.0883 17.0824 16.2656 15.0738C17.5781 13.8621 18.6352 12.6668 19.4039 11.5207C19.8891 10.7965 20.2711 10.0793 20.5336 9.38791C20.85 8.56056 21.0094 7.74728 21.0094 6.96681C21.0117 6.13947 20.8453 5.33556 20.5195 4.57853ZM10.8867 17.0285C10.8867 17.0285 2.54297 11.6824 2.54297 6.96681C2.54297 4.57853 4.51875 2.64259 6.95625 2.64259C8.66953 2.64259 10.1555 3.59884 10.8867 4.99572C11.618 3.59884 13.1039 2.64259 14.8172 2.64259C17.2547 2.64259 19.2305 4.57853 19.2305 6.96681C19.2305 11.6824 10.8867 17.0285 10.8867 17.0285Z" fill="black"/>
</svg>
