<svg width="25" height="23" viewBox="0 0 25 23" fill="none" xmlns="http://www.w3.org/2000/svg">
<path d="M8.75 0C5.29822 0 2.5 2.79822 2.5 6.25C2.5 9.70178 5.29822 12.5 8.75 12.5C12.2018 12.5 15 9.70178 15 6.25C15 2.79822 12.2018 0 8.75 0ZM5 6.25C5 4.17893 6.67893 2.5 8.75 2.5C10.8211 2.5 12.5 4.17893 12.5 6.25C12.5 8.32107 10.8211 10 8.75 10C6.67893 10 5 8.32107 5 6.25Z" fill="black"/>
<path d="M18.6355 6.52285C18.2839 6.34355 17.8947 6.25008 17.5 6.25008V3.75008C18.2895 3.75008 19.0678 3.93695 19.7711 4.29556C19.8486 4.33506 19.9249 4.37651 20 4.41987C20.6067 4.77017 21.134 5.24461 21.5466 5.81319C22.0103 6.45215 22.3162 7.19184 22.4391 7.97171C22.5619 8.75158 22.4984 9.54947 22.2537 10.3001C22.0089 11.0507 21.5899 11.7326 21.0309 12.2902C20.4719 12.8477 19.7888 13.2649 19.0376 13.5077C18.3691 13.7238 17.6635 13.7962 16.9669 13.7215C16.8807 13.7123 16.7946 13.7008 16.7088 13.687C15.9298 13.5622 15.1913 13.2547 14.5539 12.7899L14.5526 12.7889L16.0263 10.7695C16.3452 11.0021 16.7146 11.156 17.1044 11.2184C17.4942 11.2809 17.8932 11.2502 18.2688 11.1288C18.6444 11.0074 18.9859 10.7988 19.2654 10.52C19.5449 10.2413 19.7544 9.9003 19.8768 9.52501C19.9991 9.14972 20.0309 8.75079 19.9695 8.36087C19.908 7.97094 19.7551 7.60111 19.5233 7.28164C19.2914 6.96217 18.9872 6.70215 18.6355 6.52285Z" fill="black"/>
<path d="M22.4976 22.5C22.4976 21.8437 22.3684 21.1938 22.1172 20.5875C21.8661 19.9812 21.4979 19.4302 21.0339 18.9661C20.5698 18.5021 20.0188 18.1339 19.4125 17.8828C18.8062 17.6316 18.1563 17.5024 17.5 17.5024V15C18.3526 15 19.198 15.1454 20 15.4289C20.1245 15.4729 20.2479 15.5203 20.3701 15.5709C21.2801 15.9478 22.1069 16.5003 22.8033 17.1967C23.4997 17.8931 24.0522 18.7199 24.4291 19.6299C24.4797 19.7521 24.5271 19.8755 24.5711 20C24.8546 20.802 25 21.6474 25 22.5H22.4976Z" fill="black"/>
<path d="M17.5 22.5H15C15 19.0482 12.2018 16.25 8.75 16.25C5.29822 16.25 2.5 19.0482 2.5 22.5H0C0 17.6675 3.91751 13.75 8.75 13.75C13.5825 13.75 17.5 17.6675 17.5 22.5Z" fill="black"/>
</svg>
